<svg width="134" height="122" viewBox="0 0 134 122" fill="none" xmlns="http://www.w3.org/2000/svg">
<g opacity="0.65">
<path d="M93.9709 14.9253L97.6242 16.1418C101.435 17.4122 103.341 18.0474 104.43 19.5603C105.52 21.0732 105.52 23.0866 105.52 27.098V27.379C105.52 30.6898 105.52 32.349 104.723 33.7041C103.926 35.0592 102.475 35.8637 99.5799 37.4768L88.1963 43.798M40.0752 14.9253L36.4219 16.1418C32.6107 17.4122 30.7051 18.0474 29.6156 19.5603C28.5262 21.0732 28.5262 23.0866 28.5262 27.098V27.379C28.5262 30.6898 28.5262 32.349 29.3231 33.7041C30.12 35.0592 31.5713 35.8637 34.4663 37.4768L45.8498 43.798" fill="url(#paint0_linear_29_11708)"/>
<path d="M93.9709 14.9253L97.6242 16.1418C101.435 17.4122 103.341 18.0474 104.43 19.5603C105.52 21.0732 105.52 23.0866 105.52 27.098V27.379C105.52 30.6898 105.52 32.349 104.723 33.7041C103.926 35.0592 102.475 35.8637 99.5799 37.4768L88.1963 43.798M40.0752 14.9253L36.4219 16.1418C32.6107 17.4122 30.7051 18.0474 29.6156 19.5603C28.5262 21.0732 28.5262 23.0866 28.5262 27.098V27.379C28.5262 30.6898 28.5262 32.349 29.3231 33.7041C30.12 35.0592 31.5713 35.8637 34.4663 37.4768L45.8498 43.798" fill="url(#paint1_linear_29_11708)"/>
<path d="M93.9709 14.9253L97.6242 16.1418C101.435 17.4122 103.341 18.0474 104.43 19.5603C105.52 21.0732 105.52 23.0866 105.52 27.098V27.379C105.52 30.6898 105.52 32.349 104.723 33.7041C103.926 35.0592 102.475 35.8637 99.5799 37.4768L88.1963 43.798M40.0752 14.9253L36.4219 16.1418C32.6107 17.4122 30.7051 18.0474 29.6156 19.5603C28.5262 21.0732 28.5262 23.0866 28.5262 27.098V27.379C28.5262 30.6898 28.5262 32.349 29.3231 33.7041C30.12 35.0592 31.5713 35.8637 34.4663 37.4768L45.8498 43.798" stroke="url(#paint2_linear_29_11708)" stroke-width="2"/>
<path d="M93.9709 14.9253L97.6242 16.1418C101.435 17.4122 103.341 18.0474 104.43 19.5603C105.52 21.0732 105.52 23.0866 105.52 27.098V27.379C105.52 30.6898 105.52 32.349 104.723 33.7041C103.926 35.0592 102.475 35.8637 99.5799 37.4768L88.1963 43.798M40.0752 14.9253L36.4219 16.1418C32.6107 17.4122 30.7051 18.0474 29.6156 19.5603C28.5262 21.0732 28.5262 23.0866 28.5262 27.098V27.379C28.5262 30.6898 28.5262 32.349 29.3231 33.7041C30.12 35.0592 31.5713 35.8637 34.4663 37.4768L45.8498 43.798" stroke="url(#paint3_linear_29_11708)" stroke-opacity="0.75" stroke-width="2"/>
</g>
<path d="M67.0226 57.2715C44.8484 57.2715 40.9218 35.1743 40.2288 17.6428C40.0325 12.7691 39.9362 10.3284 41.7687 8.07634C43.5973 5.82042 45.7878 5.45085 50.1726 4.71171C55.7424 3.79932 61.3786 3.3525 67.0226 3.37587C73.8905 3.37587 79.5457 3.98027 83.8727 4.71171C88.2575 5.45085 90.448 5.82042 92.2804 8.07634C94.1129 10.3323 94.0128 12.7691 93.8203 17.6428C93.1274 35.1743 89.2007 57.2715 67.0265 57.2715H67.0226Z" fill="url(#paint4_linear_29_11708)"/>
<path d="M67.0226 57.2715C44.8484 57.2715 40.9218 35.1743 40.2288 17.6428C40.0325 12.7691 39.9362 10.3284 41.7687 8.07634C43.5973 5.82042 45.7878 5.45085 50.1726 4.71171C55.7424 3.79932 61.3786 3.3525 67.0226 3.37587C73.8905 3.37587 79.5457 3.98027 83.8727 4.71171C88.2575 5.45085 90.448 5.82042 92.2804 8.07634C94.1129 10.3323 94.0128 12.7691 93.8203 17.6428C93.1274 35.1743 89.2007 57.2715 67.0265 57.2715H67.0226Z" stroke="url(#paint5_linear_29_11708)" stroke-width="5"/>
<path d="M67.0226 57.2715C44.8484 57.2715 40.9218 35.1743 40.2288 17.6428C40.0325 12.7691 39.9362 10.3284 41.7687 8.07634C43.5973 5.82042 45.7878 5.45085 50.1726 4.71171C55.7424 3.79932 61.3786 3.3525 67.0226 3.37587C73.8905 3.37587 79.5457 3.98027 83.8727 4.71171C88.2575 5.45085 90.448 5.82042 92.2804 8.07634C94.1129 10.3323 94.0128 12.7691 93.8203 17.6428C93.1274 35.1743 89.2007 57.2715 67.0265 57.2715H67.0226Z" stroke="url(#paint6_linear_29_11708)" stroke-opacity="0.75" stroke-width="5"/>
<g opacity="0.65">
<path d="M67.0229 57.2715V68.8205V57.2715Z" fill="url(#paint7_linear_29_11708)"/>
<path d="M67.0229 57.2715V68.8205" stroke="url(#paint8_linear_29_11708)" stroke-width="5" stroke-linecap="round"/>
<path d="M67.0229 57.2715V68.8205" stroke="url(#paint9_linear_29_11708)" stroke-width="5" stroke-linecap="round"/>
</g>
<path d="M83.5703 67.375L83.833 67.3809C85.0553 67.4378 86.2399 67.8868 87.2304 68.6777L87.4404 68.8525C88.4722 69.7533 89.2086 70.9933 89.5302 72.3887L89.5888 72.6699V72.6709L91.7939 84.375H44.206L46.4111 72.6709V72.6699C46.677 71.2546 47.3654 69.9823 48.3574 69.0371L48.5595 68.8525C49.5903 67.9528 50.8572 67.4419 52.167 67.3809L52.4297 67.375H83.5703Z" fill="url(#paint10_linear_29_11708)"/>
<path d="M83.5703 67.375L83.833 67.3809C85.0553 67.4378 86.2399 67.8868 87.2304 68.6777L87.4404 68.8525C88.4722 69.7533 89.2086 70.9933 89.5302 72.3887L89.5888 72.6699V72.6709L91.7939 84.375H44.206L46.4111 72.6709V72.6699C46.677 71.2546 47.3654 69.9823 48.3574 69.0371L48.5595 68.8525C49.5903 67.9528 50.8572 67.4419 52.167 67.3809L52.4297 67.375H83.5703Z" fill="#735E23"/>
<path d="M83.5703 67.375L83.833 67.3809C85.0553 67.4378 86.2399 67.8868 87.2304 68.6777L87.4404 68.8525C88.4722 69.7533 89.2086 70.9933 89.5302 72.3887L89.5888 72.6699V72.6709L91.7939 84.375H44.206L46.4111 72.6709V72.6699C46.677 71.2546 47.3654 69.9823 48.3574 69.0371L48.5595 68.8525C49.5903 67.9528 50.8572 67.4419 52.167 67.3809L52.4297 67.375H83.5703Z" stroke="url(#paint11_linear_29_11708)" stroke-width="2" stroke-linecap="round" stroke-linejoin="round"/>
<path d="M83.5703 67.375L83.833 67.3809C85.0553 67.4378 86.2399 67.8868 87.2304 68.6777L87.4404 68.8525C88.4722 69.7533 89.2086 70.9933 89.5302 72.3887L89.5888 72.6699V72.6709L91.7939 84.375H44.206L46.4111 72.6709V72.6699C46.677 71.2546 47.3654 69.9823 48.3574 69.0371L48.5595 68.8525C49.5903 67.9528 50.8572 67.4419 52.167 67.3809L52.4297 67.375H83.5703Z" stroke="#9E8644" stroke-width="2" stroke-linecap="round" stroke-linejoin="round"/>
<path d="M83.5432 78.6268C83.5566 79.1218 83.6335 79.5192 83.7739 79.819C83.9142 80.1118 84.0914 80.314 84.3053 80.4255V80.4674C84.1716 80.4604 84.0179 80.4534 83.844 80.4465C83.6769 80.4395 83.4964 80.436 83.3026 80.436C83.0552 80.436 82.7911 80.443 82.5104 80.4569C82.2363 80.4709 81.9522 80.4778 81.658 80.4778C81.5778 80.4778 81.5009 80.4778 81.4274 80.4778C81.3538 80.4778 81.2836 80.4743 81.2168 80.4674V80.4255C81.3639 80.3558 81.4875 80.2652 81.5878 80.1536C81.6881 80.0421 81.7683 79.8992 81.8285 79.7249C81.8953 79.5506 81.9421 79.3414 81.9689 79.0974C81.9956 78.8534 82.009 78.5571 82.009 78.2085C82.009 78.083 82.0056 77.9471 81.999 77.8007C81.999 77.6473 81.9956 77.5044 81.9889 77.3719C81.9288 77.2464 81.8385 77.0686 81.7182 76.8385C81.6045 76.6015 81.4708 76.3401 81.3171 76.0542C81.1633 75.7684 80.9995 75.4721 80.8257 75.1653C80.6519 74.8586 80.4781 74.5727 80.3043 74.3078C80.1371 74.0359 79.98 73.8023 79.833 73.6071C79.6859 73.4049 79.5622 73.269 79.4619 73.1993V73.1574C79.6358 73.1714 79.8163 73.1818 80.0034 73.1888C80.1906 73.1888 80.3745 73.1888 80.555 73.1888C80.7221 73.1888 80.9661 73.1818 81.287 73.1679C81.6079 73.1539 81.9388 73.147 82.2797 73.147C82.3332 73.147 82.3834 73.1505 82.4301 73.1574C82.4836 73.1574 82.5371 73.1574 82.5906 73.1574V73.1993C82.4168 73.262 82.2898 73.3631 82.2095 73.5025C82.136 73.635 82.0992 73.7919 82.0992 73.9731C82.0992 74.1265 82.1393 74.3217 82.2196 74.5588C82.3065 74.7958 82.4034 75.0363 82.5104 75.2803C82.624 75.5174 82.731 75.7405 82.8313 75.9496C82.9382 76.1518 83.0151 76.2982 83.0619 76.3889C83.1555 76.2215 83.2558 76.0194 83.3627 75.7823C83.4697 75.5383 83.6168 75.2037 83.8039 74.7784C83.9176 74.5274 83.9744 74.2799 83.9744 74.0359C83.9744 73.8546 83.9376 73.6908 83.8641 73.5444C83.7906 73.398 83.6669 73.2829 83.4931 73.1993V73.1574C83.834 73.1783 84.1683 73.1888 84.4959 73.1888C84.7298 73.1888 84.9404 73.1818 85.1276 73.1679C85.3148 73.1539 85.5153 73.147 85.7293 73.147C85.7761 73.147 85.8195 73.147 85.8596 73.147C85.9064 73.147 85.9532 73.1505 86 73.1574V73.1993C85.893 73.262 85.7861 73.3561 85.6791 73.4816C85.5722 73.6071 85.4619 73.75 85.3482 73.9104C85.2412 74.0707 85.1343 74.245 85.0273 74.4333C84.9204 74.6215 84.8167 74.8098 84.7165 74.998C84.5092 75.3954 84.312 75.7823 84.1248 76.1588C83.9376 76.5283 83.7471 76.9013 83.5532 77.2778C83.5466 77.3963 83.5399 77.5253 83.5332 77.6647C83.5332 77.7972 83.5332 77.9331 83.5332 78.0726C83.5332 78.1702 83.5332 78.2678 83.5332 78.3654C83.5399 78.456 83.5432 78.5432 83.5432 78.6268Z" fill="#472F01"/>
<path d="M77.3103 78.4483C77.3304 78.9572 77.3972 79.3825 77.5109 79.7241C77.6245 80.0588 77.805 80.2923 78.0524 80.4248V80.4666C77.9253 80.4527 77.7749 80.4457 77.6011 80.4457C77.434 80.4387 77.2602 80.4352 77.0797 80.4352C76.9794 80.4352 76.8825 80.4352 76.7889 80.4352C76.6953 80.4352 76.6084 80.4387 76.5281 80.4457C76.361 80.4527 76.1839 80.4596 75.9967 80.4666C75.8162 80.4736 75.6323 80.4771 75.4452 80.4771C75.3716 80.4771 75.2981 80.4771 75.2245 80.4771C75.151 80.4771 75.0775 80.4736 75.0039 80.4666V80.4248C75.2513 80.2644 75.4385 80.0309 75.5655 79.7241C75.6992 79.4173 75.7727 78.999 75.7861 78.4692C75.7928 78.1136 75.7961 77.7127 75.7961 77.2665C75.8028 76.8203 75.8061 76.3776 75.8061 75.9384C75.8061 75.4992 75.8028 75.1053 75.7961 74.7567C75.7961 74.4081 75.7928 74.1536 75.7861 73.9933L75.5053 74.0142C75.3114 74.0351 75.1243 74.07 74.9438 74.1188C74.77 74.1676 74.6095 74.2512 74.4624 74.3698C74.3154 74.4813 74.185 74.6347 74.0714 74.8299C73.9644 75.0181 73.8808 75.2621 73.8207 75.5619H73.7806C73.7739 75.4922 73.7705 75.426 73.7705 75.3632C73.7705 75.3005 73.7705 75.2343 73.7705 75.1645C73.7705 75.0251 73.7705 74.8822 73.7705 74.7358C73.7772 74.5894 73.7839 74.436 73.7906 74.2756C73.804 73.8782 73.7939 73.5018 73.7605 73.1462C74.0948 73.1671 74.4156 73.1845 74.7232 73.1985C75.0307 73.2055 75.3582 73.2089 75.7059 73.2089C75.8262 73.2089 75.9499 73.2089 76.0769 73.2089C76.2039 73.2089 76.3343 73.2055 76.468 73.1985C76.8089 73.1915 77.1766 73.1811 77.571 73.1671C77.9654 73.1462 78.3331 73.1357 78.6741 73.1357C78.7877 73.1357 78.8947 73.1392 78.995 73.1462C79.1019 73.1462 79.2022 73.1497 79.2958 73.1567C79.3025 73.2194 79.3058 73.2787 79.3058 73.3344C79.3125 73.3902 79.3158 73.446 79.3158 73.5018C79.3158 73.6063 79.3125 73.7214 79.3058 73.8469C79.2991 73.9724 79.2924 74.1223 79.2858 74.2965C79.2858 74.3802 79.2824 74.4569 79.2757 74.5266C79.2757 74.5894 79.2757 74.6556 79.2757 74.7253C79.2757 74.8438 79.2757 74.9658 79.2757 75.0913C79.2824 75.2168 79.2924 75.3737 79.3058 75.5619H79.2657C79.1587 75.039 78.9615 74.6591 78.6741 74.422C78.3933 74.185 78.0557 74.049 77.6613 74.0142C77.6078 74.0072 77.5577 74.0037 77.5109 74.0037C77.4707 73.9968 77.434 73.9933 77.4006 73.9933H77.2802C77.2735 74.1257 77.2669 74.3175 77.2602 74.5685C77.2535 74.8194 77.2501 75.1053 77.2501 75.426C77.2501 75.677 77.2501 75.9419 77.2501 76.2208C77.2568 76.4927 77.2635 76.7611 77.2702 77.026C77.2769 77.2909 77.2836 77.5454 77.2902 77.7894C77.2969 78.0334 77.3036 78.2531 77.3103 78.4483Z" fill="#472F01"/>
<path d="M70.5529 79.6419C70.9139 79.6419 71.1813 79.5478 71.3551 79.3596C71.529 79.1713 71.6159 78.9447 71.6159 78.6798C71.6159 78.4288 71.5457 78.2197 71.4053 78.0523C71.2649 77.885 71.0844 77.7316 70.8638 77.5922C70.6432 77.4528 70.3958 77.3168 70.1217 77.1843C69.8543 77.0449 69.5903 76.8776 69.3296 76.6824C69.0421 76.4663 68.8382 76.2153 68.7179 75.9294C68.6042 75.6366 68.5474 75.3333 68.5474 75.0196C68.5474 74.7407 68.5908 74.4793 68.6777 74.2353C68.7713 73.9913 68.905 73.7786 69.0789 73.5974C69.2527 73.4161 69.4666 73.2732 69.7206 73.1686C69.9814 73.064 70.2822 73.0117 70.6231 73.0117C70.7836 73.0117 70.944 73.0257 71.1045 73.0535C71.2716 73.0814 71.4287 73.1128 71.5758 73.1477C71.7228 73.1756 71.8565 73.2034 71.9769 73.2313C72.1039 73.2522 72.2108 73.2627 72.2977 73.2627C72.4916 73.2627 72.6153 73.1965 72.6688 73.064H72.6989C72.7055 73.1407 72.7089 73.2209 72.7089 73.3045C72.7156 73.3812 72.7189 73.4614 72.7189 73.5451C72.7189 73.7333 72.7089 73.9564 72.6888 74.2144C72.6755 74.4653 72.6688 74.6884 72.6688 74.8837C72.6688 75.0998 72.6788 75.3368 72.6989 75.5948H72.6688C72.622 75.4205 72.5384 75.2322 72.4181 75.0301C72.3044 74.8279 72.164 74.6431 71.9969 74.4758C71.8365 74.3015 71.6526 74.1586 71.4454 74.047C71.2448 73.9285 71.0309 73.8693 70.8036 73.8693C70.583 73.8693 70.3891 73.9355 70.222 74.0679C70.0616 74.1934 69.9814 74.3887 69.9814 74.6536C69.9814 74.8 70.0215 74.9359 70.1017 75.0614C70.1819 75.18 70.2889 75.295 70.4226 75.4065C70.563 75.5181 70.7234 75.6261 70.9039 75.7307C71.0911 75.8283 71.2916 75.9329 71.5056 76.0445C72.0671 76.3373 72.4782 76.6649 72.739 77.0275C72.9997 77.39 73.13 77.8223 73.13 78.3242C73.13 78.638 73.0732 78.9343 72.9596 79.2131C72.8459 79.485 72.6855 79.7256 72.4782 79.9347C72.271 80.1439 72.0203 80.3077 71.7262 80.4262C71.432 80.5448 71.1045 80.604 70.7435 80.604C70.5429 80.604 70.349 80.5901 70.1619 80.5622C69.9814 80.5343 69.8142 80.5029 69.6605 80.4681C69.5134 80.4262 69.3797 80.3914 69.2594 80.3635C69.1457 80.3356 69.0555 80.3217 68.9886 80.3217C68.895 80.3217 68.8048 80.3356 68.7179 80.3635C68.631 80.3914 68.5608 80.4437 68.5073 80.5204H68.4672C68.4872 80.3042 68.4973 80.0323 68.4973 79.7047C68.4973 79.4397 68.4872 79.1748 68.4672 78.9099C68.4538 78.6449 68.4471 78.38 68.4471 78.1151C68.4471 78.0454 68.4471 77.9757 68.4471 77.9059C68.4471 77.8362 68.4505 77.763 68.4571 77.6863H68.4872C68.5808 78.021 68.7078 78.3103 68.8683 78.5543C69.0354 78.7983 69.2126 79.0005 69.3997 79.1609C69.5936 79.3212 69.7908 79.4397 69.9914 79.5164C70.1919 79.5931 70.3791 79.6349 70.5529 79.6419Z" fill="#472F01"/>
<path d="M64.8411 73.7948C64.6272 73.7948 64.4434 73.875 64.2896 74.0353C64.1425 74.1957 64.0188 74.4118 63.9186 74.6837C63.8183 74.9556 63.7414 75.2728 63.6879 75.6353C63.6411 75.9979 63.6144 76.3848 63.6077 76.7962C63.5943 77.2633 63.6111 77.6851 63.6579 78.0615C63.7113 78.431 63.7916 78.7448 63.8985 79.0027C64.0055 79.2607 64.1392 79.4594 64.2996 79.5988C64.4601 79.7383 64.6406 79.808 64.8411 79.808C65.0417 79.808 65.2188 79.7383 65.3726 79.5988C65.533 79.4594 65.6634 79.2607 65.7637 79.0027C65.8706 78.7448 65.9475 78.431 65.9943 78.0615C66.0411 77.6851 66.0612 77.2633 66.0545 76.7962C66.0478 76.3848 66.0177 75.9979 65.9642 75.6353C65.9174 75.2658 65.8439 74.9451 65.7436 74.6732C65.6433 74.4013 65.5163 74.1887 65.3626 74.0353C65.2155 73.875 65.0417 73.7948 64.8411 73.7948ZM67.699 76.9635C67.7057 77.5212 67.6388 78.0267 67.4985 78.4798C67.3581 78.926 67.1609 79.306 66.9068 79.6197C66.6528 79.9335 66.3486 80.1775 65.9943 80.3518C65.6467 80.5191 65.2623 80.6028 64.8411 80.6028C64.42 80.6028 64.0322 80.5191 63.6779 80.3518C63.3236 80.1775 63.0161 79.9335 62.7554 79.6197C62.4946 79.299 62.2941 78.9156 62.1537 78.4694C62.0133 78.0162 61.9498 77.5142 61.9632 76.9635C61.9765 76.4406 62.0434 75.9421 62.1637 75.468C62.2907 74.987 62.4712 74.5652 62.7052 74.2026C62.9459 73.8331 63.2434 73.5403 63.5977 73.3242C63.952 73.1081 64.3665 73 64.8411 73C65.3024 73 65.7102 73.1081 66.0645 73.3242C66.4188 73.5403 66.7163 73.8331 66.957 74.2026C67.1976 74.5652 67.3781 74.987 67.4985 75.468C67.6255 75.9421 67.6923 76.4406 67.699 76.9635Z" fill="#472F01"/>
<path d="M57.8589 79.0346C57.8923 79.3623 57.9659 79.6586 58.0795 79.9235C58.1932 80.1815 58.357 80.3488 58.5709 80.4255V80.4673C58.3636 80.4534 58.1297 80.4464 57.869 80.4464C57.6082 80.4464 57.3575 80.4464 57.1169 80.4464C56.923 80.4464 56.7191 80.4534 56.5052 80.4673C56.2913 80.4743 56.0773 80.4778 55.8634 80.4778C55.8099 80.4778 55.7564 80.4743 55.703 80.4673C55.6562 80.4673 55.606 80.4673 55.5526 80.4673V80.4255C55.8066 80.2651 55.9904 80.0281 56.1041 79.7143C56.2177 79.4006 56.2879 78.9858 56.3147 78.4699C56.328 78.2677 56.3347 78.0341 56.3347 77.7692C56.3414 77.4973 56.3447 77.2184 56.3447 76.9326C56.3447 76.7165 56.3414 76.5003 56.3347 76.2842C56.3347 76.0681 56.3314 75.8659 56.3247 75.6777C56.3247 75.4824 56.3213 75.3082 56.3147 75.1548C56.308 74.9944 56.3013 74.8654 56.2946 74.7678C56.2545 74.3495 56.1843 74.0079 56.084 73.743C55.9837 73.4711 55.8066 73.2794 55.5526 73.1678V73.1364C55.84 73.1573 56.1576 73.1678 56.5052 73.1678H56.8461C57.04 73.1608 57.2439 73.1539 57.4578 73.1469C57.6784 73.1329 57.9157 73.126 58.1698 73.126C58.2701 73.126 58.3703 73.1295 58.4706 73.1364C58.5776 73.1364 58.6879 73.1399 58.8015 73.1469C59.0155 73.1608 59.2528 73.1957 59.5135 73.2515C59.7742 73.3003 60.0216 73.3909 60.2555 73.5234C60.4895 73.6558 60.6934 73.8371 60.8672 74.0672C61.041 74.2972 61.148 74.6005 61.1881 74.977C61.2149 75.2698 61.1881 75.5278 61.1079 75.7509C61.0344 75.974 60.9274 76.1657 60.787 76.326C60.6466 76.4794 60.4862 76.6014 60.3057 76.6921C60.1319 76.7827 59.9581 76.8454 59.7842 76.8803C59.9581 77.3195 60.1386 77.7657 60.3257 78.2189C60.5196 78.6721 60.7369 79.1008 60.9775 79.5052C61.0912 79.7004 61.2215 79.8851 61.3686 80.0594C61.5224 80.2337 61.7196 80.3523 61.9603 80.415V80.4673C61.9268 80.4882 61.8667 80.5091 61.7798 80.53C61.6928 80.551 61.5892 80.5684 61.4689 80.5823C61.3486 80.6032 61.2182 80.6172 61.0778 80.6242C60.9374 80.6311 60.8037 80.6276 60.6767 80.6137C60.4427 80.5928 60.2455 80.544 60.0851 80.4673C59.9246 80.3906 59.7842 80.293 59.6639 80.1745C59.5436 80.049 59.44 79.9061 59.353 79.7457C59.2661 79.5854 59.1826 79.4146 59.1024 79.2333C59.0622 79.1496 59.0054 79.0206 58.9319 78.8463C58.865 78.6651 58.7882 78.4594 58.7012 78.2293C58.6143 77.9993 58.5241 77.7518 58.4305 77.4868C58.3436 77.2219 58.26 76.9605 58.1798 76.7025C58.6745 76.6328 59.0489 76.4655 59.3029 76.2005C59.5569 75.9286 59.6606 75.5417 59.6138 75.0397C59.5937 74.7818 59.5235 74.5761 59.4032 74.4227C59.2895 74.2694 59.1492 74.1508 58.982 74.0672C58.8149 73.9835 58.6277 73.9312 58.4205 73.9103C58.2199 73.8894 58.0227 73.8824 57.8288 73.8894C57.8222 74.0079 57.8155 74.1683 57.8088 74.3704C57.8088 74.5726 57.8054 74.7922 57.7988 75.0293C57.7988 75.2663 57.7954 75.5069 57.7887 75.7509C57.7887 75.9949 57.7887 76.2145 57.7887 76.4097C57.7887 76.6049 57.7887 76.821 57.7887 77.0581C57.7887 77.2951 57.7921 77.5322 57.7988 77.7692C57.8054 78.0062 57.8121 78.2363 57.8188 78.4594C57.8322 78.6755 57.8456 78.8673 57.8589 79.0346Z" fill="#472F01"/>
<path d="M55.1342 73.1567C55.1476 73.2264 55.1542 73.2961 55.1542 73.3658C55.1542 73.4286 55.1542 73.4948 55.1542 73.5645C55.1542 73.7667 55.1442 73.9968 55.1242 74.2547C55.1175 74.3942 55.1108 74.5196 55.1041 74.6312C55.1041 74.7358 55.1041 74.8508 55.1041 74.9763C55.1041 75.053 55.1041 75.1367 55.1041 75.2273C55.1041 75.3179 55.1074 75.419 55.1141 75.5306H55.074C54.9871 75.2238 54.8601 74.9728 54.693 74.7776C54.5325 74.5754 54.3453 74.4151 54.1314 74.2965C53.9242 74.178 53.7036 74.0944 53.4696 74.0456C53.2423 73.9968 53.0183 73.9724 52.7977 73.9724H52.2963C52.2897 74.07 52.283 74.2024 52.2763 74.3698C52.2763 74.5371 52.2729 74.7253 52.2663 74.9345C52.2663 75.1436 52.2629 75.3667 52.2562 75.6038C52.2562 75.8408 52.2562 76.0813 52.2562 76.3253C52.3298 76.3253 52.42 76.3253 52.527 76.3253C52.6406 76.3184 52.7342 76.3079 52.8078 76.294C52.9816 76.2661 53.1353 76.2138 53.269 76.1371C53.4027 76.0604 53.5197 75.9733 53.62 75.8757C53.7203 75.7711 53.8005 75.663 53.8607 75.5515C53.9208 75.433 53.9609 75.3214 53.981 75.2168H54.0111C54.0178 75.2726 54.0211 75.3249 54.0211 75.3737C54.0211 75.4225 54.0211 75.4748 54.0211 75.5306C54.0211 75.7188 54.0144 75.9175 54.0011 76.1267C53.9944 76.3288 53.9843 76.538 53.971 76.7541C53.9643 77.0469 53.9676 77.3084 53.981 77.5384C54.0011 77.7685 54.0211 77.9951 54.0412 78.2182H54.0011C53.9075 77.8835 53.7537 77.6291 53.5398 77.4548C53.3325 77.2735 53.0885 77.1655 52.8078 77.1306C52.7142 77.1236 52.6139 77.1201 52.5069 77.1201C52.4 77.1201 52.3164 77.1201 52.2562 77.1201C52.2562 77.3363 52.2596 77.5454 52.2663 77.7476C52.2796 77.9428 52.2897 78.1206 52.2963 78.2809C52.303 78.4762 52.3164 78.6818 52.3365 78.8979C52.3565 79.1141 52.3933 79.3232 52.4468 79.5254C52.5002 79.7276 52.5738 79.9089 52.6674 80.0692C52.7676 80.2296 52.898 80.3516 53.0584 80.4352V80.4666C52.898 80.4527 52.7108 80.4457 52.4969 80.4457C52.2897 80.4387 52.0791 80.4352 51.8652 80.4352H51.5743C51.3939 80.4422 51.19 80.4527 50.9627 80.4666C50.742 80.4736 50.5315 80.4771 50.3309 80.4771C50.2707 80.4771 50.2139 80.4771 50.1604 80.4771C50.107 80.4771 50.0535 80.4736 50 80.4666V80.4352C50.1471 80.3585 50.2674 80.2644 50.361 80.1529C50.4613 80.0344 50.5415 79.8879 50.6017 79.7136C50.6618 79.5394 50.7053 79.3372 50.732 79.1071C50.7588 78.8701 50.7755 78.5982 50.7822 78.2914C50.8022 77.636 50.8122 77.0156 50.8122 76.4299C50.8122 76.1371 50.8089 75.8582 50.8022 75.5933C50.7955 75.3214 50.7822 75.0634 50.7621 74.8194C50.7153 74.3454 50.6384 73.9828 50.5315 73.7318C50.4245 73.4808 50.2473 73.2996 50 73.188V73.1462C50.2139 73.1601 50.4512 73.1706 50.712 73.1776C50.9794 73.1845 51.2434 73.188 51.5042 73.188C51.7314 73.188 51.9487 73.188 52.156 73.188C52.3632 73.1811 52.547 73.1776 52.7075 73.1776C52.8144 73.1776 52.9415 73.1741 53.0885 73.1671C53.2356 73.1601 53.3894 73.1567 53.5498 73.1567C53.7102 73.1497 53.874 73.1462 54.0412 73.1462C54.2083 73.1392 54.3687 73.1357 54.5225 73.1357C54.6428 73.1357 54.7531 73.1392 54.8534 73.1462C54.9604 73.1462 55.054 73.1497 55.1342 73.1567Z" fill="#472F01"/>
<g opacity="0.65" filter="url(#filter0_d_29_11708)">
<path d="M100.974 84.9702H33.0724H100.974Z" fill="url(#paint12_linear_29_11708)"/>
<path d="M100.974 84.9702H33.0724H100.974Z" fill="#D5AA32" fill-opacity="0.6"/>
<path d="M100.974 84.9702H33.0724" stroke="#9C7F30" stroke-width="2" stroke-linecap="round"/>
</g>
<path d="M67.0228 57.2715C44.8486 57.2715 40.9219 35.1743 40.229 17.6428C40.0326 12.7691 39.9364 10.3284 41.7688 8.07634C43.5974 5.82042 45.7879 5.45085 50.1727 4.71171C55.7426 3.79932 61.3787 3.3525 67.0228 3.37587C73.8906 3.37587 79.5458 3.98027 83.8729 4.71171C88.2577 5.45085 90.4481 5.82042 92.2806 8.07634C94.1131 10.3323 94.013 12.7691 93.8205 17.6428C93.1275 35.1743 89.2008 57.2715 67.0266 57.2715H67.0228Z" fill="url(#paint13_linear_29_11708)"/>
<path d="M67.0228 57.2715C44.8486 57.2715 40.9219 35.1743 40.229 17.6428C40.0326 12.7691 39.9364 10.3284 41.7688 8.07634C43.5974 5.82042 45.7879 5.45085 50.1727 4.71171C55.7426 3.79932 61.3787 3.3525 67.0228 3.37587C73.8906 3.37587 79.5458 3.98027 83.8729 4.71171C88.2577 5.45085 90.4481 5.82042 92.2806 8.07634C94.1131 10.3323 94.013 12.7691 93.8205 17.6428C93.1275 35.1743 89.2008 57.2715 67.0266 57.2715H67.0228Z" fill="url(#paint14_linear_29_11708)"/>
<path d="M67.0228 57.2715C44.8486 57.2715 40.9219 35.1743 40.229 17.6428C40.0326 12.7691 39.9364 10.3284 41.7688 8.07634C43.5974 5.82042 45.7879 5.45085 50.1727 4.71171C55.7426 3.79932 61.3787 3.3525 67.0228 3.37587C73.8906 3.37587 79.5458 3.98027 83.8729 4.71171C88.2577 5.45085 90.4481 5.82042 92.2806 8.07634C94.1131 10.3323 94.013 12.7691 93.8205 17.6428C93.1275 35.1743 89.2008 57.2715 67.0266 57.2715H67.0228Z" stroke="url(#paint15_linear_29_11708)"/>
<path d="M67.0228 57.2715C44.8486 57.2715 40.9219 35.1743 40.229 17.6428C40.0326 12.7691 39.9364 10.3284 41.7688 8.07634C43.5974 5.82042 45.7879 5.45085 50.1727 4.71171C55.7426 3.79932 61.3787 3.3525 67.0228 3.37587C73.8906 3.37587 79.5458 3.98027 83.8729 4.71171C88.2577 5.45085 90.4481 5.82042 92.2806 8.07634C94.1131 10.3323 94.013 12.7691 93.8205 17.6428C93.1275 35.1743 89.2008 57.2715 67.0266 57.2715H67.0228Z" stroke="url(#paint16_linear_29_11708)" stroke-opacity="0.75"/>
<path d="M56.9066 23.8187C57.03 22.4867 57.3383 21.3521 57.8316 20.4147C58.325 19.4774 58.9786 18.6757 59.7926 18.0097C60.6313 17.3437 61.5933 16.8627 62.6786 16.5667C63.7886 16.2461 65.0343 16.0857 66.4156 16.0857C67.5256 16.0857 68.574 16.2091 69.5606 16.4557C70.572 16.6777 71.4846 17.0601 72.2986 17.6027C73.1373 18.1454 73.8033 18.8607 74.2966 19.7487C74.8146 20.6367 75.0736 21.7221 75.0736 23.0047C75.0736 24.0901 74.8023 25.1261 74.2596 26.1127C73.717 27.0994 72.9276 27.8764 71.8916 28.4437C73.3963 28.9371 74.4816 29.7634 75.1476 30.9227C75.8136 32.0821 76.122 33.4387 76.0726 34.9927C76.0233 36.4234 75.715 37.6321 75.1476 38.6187C74.5803 39.6054 73.8526 40.4194 72.9646 41.0607C72.0766 41.6774 71.053 42.1337 69.8936 42.4297C68.7343 42.7257 67.5256 42.8737 66.2676 42.8737C63.4803 42.8737 61.1986 42.2447 59.4226 40.9867C57.6466 39.7287 56.5613 37.7307 56.1666 34.9927H61.4576C61.6303 35.6094 61.877 36.1151 62.1976 36.5097C62.543 36.9044 62.9253 37.2251 63.3446 37.4717C63.7886 37.6937 64.2573 37.8541 64.7506 37.9527C65.244 38.0267 65.7496 38.0637 66.2676 38.0637C66.8596 38.0637 67.427 38.0021 67.9696 37.8787C68.5123 37.7554 68.9933 37.5581 69.4126 37.2867C69.832 37.0154 70.165 36.6577 70.4116 36.2137C70.6583 35.7451 70.7816 35.1777 70.7816 34.5117C70.7816 34.0184 70.6706 33.5621 70.4486 33.1427C70.2513 32.7234 69.98 32.4151 69.6346 32.2177C69.1906 31.9217 68.6973 31.7367 68.1546 31.6627C67.6366 31.5641 67.094 31.5147 66.5266 31.5147H63.8996V27.1487H65.6756C66.317 27.1487 66.8966 27.0747 67.4146 26.9267C67.9326 26.7541 68.4013 26.4951 68.8206 26.1497C69.1166 25.8784 69.3633 25.5701 69.5606 25.2247C69.758 24.8547 69.8566 24.4231 69.8566 23.9297C69.8566 23.3377 69.758 22.8444 69.5606 22.4497C69.3633 22.0304 69.092 21.7097 68.7466 21.4877C68.4013 21.2411 67.9943 21.0684 67.5256 20.9697C67.057 20.8711 66.5636 20.8217 66.0456 20.8217C65.1083 20.8217 64.282 21.0684 63.5666 21.5617C62.8513 22.0304 62.3826 22.7827 62.1606 23.8187H56.9066Z" fill="white"/>
<defs>
<filter id="filter0_d_29_11708" x="0.272419" y="56.1702" width="133.501" height="65.6" filterUnits="userSpaceOnUse" color-interpolation-filters="sRGB">
<feFlood flood-opacity="0" result="BackgroundImageFix"/>
<feColorMatrix in="SourceAlpha" type="matrix" values="0 0 0 0 0 0 0 0 0 0 0 0 0 0 0 0 0 0 127 0" result="hardAlpha"/>
<feOffset dy="4"/>
<feGaussianBlur stdDeviation="15.9"/>
<feComposite in2="hardAlpha" operator="out"/>
<feColorMatrix type="matrix" values="0 0 0 0 0 0 0 0 0 0 0 0 0 0 0 0 0 0 0.25 0"/>
<feBlend mode="normal" in2="BackgroundImageFix" result="effect1_dropShadow_29_11708"/>
<feBlend mode="normal" in="SourceGraphic" in2="effect1_dropShadow_29_11708" result="shape"/>
</filter>
<linearGradient id="paint0_linear_29_11708" x1="67.0231" y1="14.9253" x2="67.0231" y2="43.798" gradientUnits="userSpaceOnUse">
<stop stop-color="#6DABE9"/>
<stop offset="1" stop-color="#064490"/>
</linearGradient>
<linearGradient id="paint1_linear_29_11708" x1="65.5574" y1="20.4392" x2="65.5574" y2="45.7027" gradientUnits="userSpaceOnUse">
<stop stop-color="#6DD8D8"/>
<stop offset="1" stop-color="#006DAF"/>
</linearGradient>
<linearGradient id="paint2_linear_29_11708" x1="67.0231" y1="14.9253" x2="67.0231" y2="43.798" gradientUnits="userSpaceOnUse">
<stop stop-color="#0862B8"/>
<stop offset="1" stop-color="#0058BC"/>
</linearGradient>
<linearGradient id="paint3_linear_29_11708" x1="67.0231" y1="17.7324" x2="67.0231" y2="43.7979" gradientUnits="userSpaceOnUse">
<stop stop-color="#EAFFFF"/>
<stop offset="1" stop-color="#27D1F5"/>
</linearGradient>
<linearGradient id="paint4_linear_29_11708" x1="67.0237" y1="3.375" x2="67.0237" y2="57.2715" gradientUnits="userSpaceOnUse">
<stop stop-color="#6DABE9"/>
<stop offset="1" stop-color="#064490"/>
</linearGradient>
<linearGradient id="paint5_linear_29_11708" x1="67.0237" y1="3.375" x2="67.0237" y2="57.2715" gradientUnits="userSpaceOnUse">
<stop stop-color="#0862B8"/>
<stop offset="1" stop-color="#0058BC"/>
</linearGradient>
<linearGradient id="paint6_linear_29_11708" x1="67.0237" y1="8.61494" x2="67.0238" y2="57.2715" gradientUnits="userSpaceOnUse">
<stop stop-color="#EAFFFF"/>
<stop offset="1" stop-color="#27D1F5"/>
</linearGradient>
<linearGradient id="paint7_linear_29_11708" x1="67.5229" y1="57.2715" x2="67.5229" y2="68.8205" gradientUnits="userSpaceOnUse">
<stop stop-color="#6DABE9"/>
<stop offset="1" stop-color="#064490"/>
</linearGradient>
<linearGradient id="paint8_linear_29_11708" x1="67.5229" y1="57.2715" x2="67.5229" y2="68.8205" gradientUnits="userSpaceOnUse">
<stop stop-color="#0862B8"/>
<stop offset="1" stop-color="#0058BC"/>
</linearGradient>
<linearGradient id="paint9_linear_29_11708" x1="67.5039" y1="59.477" x2="67.504" y2="69.5825" gradientUnits="userSpaceOnUse">
<stop stop-color="#6DD8D8"/>
<stop offset="1" stop-color="#006DAF"/>
</linearGradient>
<linearGradient id="paint10_linear_29_11708" x1="68" y1="66.375" x2="68" y2="85.375" gradientUnits="userSpaceOnUse">
<stop stop-color="#6DABE9"/>
<stop offset="1" stop-color="#064490"/>
</linearGradient>
<linearGradient id="paint11_linear_29_11708" x1="68" y1="66.375" x2="68" y2="85.375" gradientUnits="userSpaceOnUse">
<stop stop-color="#0862B8"/>
<stop offset="1" stop-color="#0058BC"/>
</linearGradient>
<linearGradient id="paint12_linear_29_11708" x1="67.023" y1="84.9702" x2="67.023" y2="85.9702" gradientUnits="userSpaceOnUse">
<stop stop-color="#6DABE9"/>
<stop offset="1" stop-color="#064490"/>
</linearGradient>
<linearGradient id="paint13_linear_29_11708" x1="67.0239" y1="3.375" x2="67.0239" y2="57.2715" gradientUnits="userSpaceOnUse">
<stop stop-color="#6DABE9"/>
<stop offset="1" stop-color="#064490"/>
</linearGradient>
<linearGradient id="paint14_linear_29_11708" x1="65.9999" y1="13.6677" x2="66" y2="60.8272" gradientUnits="userSpaceOnUse">
<stop stop-color="#6DD8D8"/>
<stop offset="1" stop-color="#006DAF"/>
</linearGradient>
<linearGradient id="paint15_linear_29_11708" x1="67.0239" y1="3.375" x2="67.0239" y2="57.2715" gradientUnits="userSpaceOnUse">
<stop stop-color="#0862B8"/>
<stop offset="1" stop-color="#0058BC"/>
</linearGradient>
<linearGradient id="paint16_linear_29_11708" x1="67.0239" y1="8.61494" x2="67.0239" y2="57.2715" gradientUnits="userSpaceOnUse">
<stop stop-color="#EAFFFF"/>
<stop offset="1" stop-color="#27D1F5"/>
</linearGradient>
</defs>
</svg>
