<svg width="146" height="135" viewBox="0 0 146 135" fill="none" xmlns="http://www.w3.org/2000/svg">
<g opacity="0.65">
<path d="M104.169 16.3594L108.394 17.7664C112.802 19.2358 115.006 19.9705 116.267 21.7204C117.527 23.4703 117.527 25.799 117.527 30.4387V30.7637C117.527 34.593 117.527 36.5121 116.605 38.0794C115.683 39.6467 114.005 40.5773 110.656 42.443L97.4897 49.7543M41.8316 16.3594L37.606 17.7664C33.1979 19.2358 30.9938 19.9705 29.7337 21.7204C28.4736 23.4703 28.4736 25.799 28.4736 30.4387V30.7637C28.4736 34.593 28.4736 36.5121 29.3953 38.0794C30.317 39.6467 31.9957 40.5773 35.3441 42.443L48.5106 49.7543" fill="url(#paint0_linear_29_11670)"/>
<path d="M104.169 16.3594L108.394 17.7664C112.802 19.2358 115.006 19.9705 116.267 21.7204C117.527 23.4703 117.527 25.799 117.527 30.4387V30.7637C117.527 34.593 117.527 36.5121 116.605 38.0794C115.683 39.6467 114.005 40.5773 110.656 42.443L97.4897 49.7543M41.8316 16.3594L37.606 17.7664C33.1979 19.2358 30.9938 19.9705 29.7337 21.7204C28.4736 23.4703 28.4736 25.799 28.4736 30.4387V30.7637C28.4736 34.593 28.4736 36.5121 29.3953 38.0794C30.317 39.6467 31.9957 40.5773 35.3441 42.443L48.5106 49.7543" fill="url(#paint1_linear_29_11670)"/>
<path d="M104.169 16.3594L108.394 17.7664C112.802 19.2358 115.006 19.9705 116.267 21.7204C117.527 23.4703 117.527 25.799 117.527 30.4387V30.7637C117.527 34.593 117.527 36.5121 116.605 38.0794C115.683 39.6467 114.005 40.5773 110.656 42.443L97.4897 49.7543M41.8316 16.3594L37.606 17.7664C33.1979 19.2358 30.9938 19.9705 29.7337 21.7204C28.4736 23.4703 28.4736 25.799 28.4736 30.4387V30.7637C28.4736 34.593 28.4736 36.5121 29.3953 38.0794C30.317 39.6467 31.9957 40.5773 35.3441 42.443L48.5106 49.7543" stroke="url(#paint2_linear_29_11670)" stroke-width="2"/>
<path d="M104.169 16.3594L108.394 17.7664C112.802 19.2358 115.006 19.9705 116.267 21.7204C117.527 23.4703 117.527 25.799 117.527 30.4387V30.7637C117.527 34.593 117.527 36.5121 116.605 38.0794C115.683 39.6467 114.005 40.5773 110.656 42.443L97.4897 49.7543M41.8316 16.3594L37.606 17.7664C33.1979 19.2358 30.9938 19.9705 29.7337 21.7204C28.4736 23.4703 28.4736 25.799 28.4736 30.4387V30.7637C28.4736 34.593 28.4736 36.5121 29.3953 38.0794C30.317 39.6467 31.9957 40.5773 35.3441 42.443L48.5106 49.7543" stroke="url(#paint3_linear_29_11670)" stroke-opacity="0.75" stroke-width="2"/>
</g>
<path d="M72.9998 65.3381C47.3526 65.3381 42.8109 39.7799 42.0094 19.5025C41.7823 13.8655 41.671 11.0425 43.7904 8.43769C45.9055 5.82844 48.439 5.40099 53.5106 4.54608C59.9528 3.49078 66.4718 2.97397 72.9998 3.00101C80.9434 3.00101 87.4843 3.70007 92.4891 4.54608C97.5607 5.40099 100.094 5.82844 102.214 8.43769C104.333 11.0469 104.217 13.8655 103.995 19.5025C103.193 39.7799 98.6516 65.3381 73.0043 65.3381H72.9998Z" fill="url(#paint4_linear_29_11670)" stroke="url(#paint5_linear_29_11670)" stroke-width="5"/>
<g opacity="0.65">
<path d="M73 65.3379V78.6958V65.3379Z" fill="url(#paint6_linear_29_11670)"/>
<path d="M73 65.3379V78.6958" stroke="url(#paint7_linear_29_11670)" stroke-width="5" stroke-linecap="round"/>
<path d="M73 65.3379V78.6958" stroke="url(#paint8_linear_29_11670)" stroke-width="5" stroke-linecap="round"/>
</g>
<path d="M90.6279 80L90.9287 80.0059C92.3273 80.0622 93.6677 80.5043 94.7734 81.2646L95.0068 81.4326C96.1534 82.2946 96.9457 83.4608 97.2891 84.7441L97.3516 85.002V85.0029L99.7578 96H47.2422L49.6484 85.0029V85.002C49.9315 83.704 50.6698 82.511 51.7686 81.6094L51.9932 81.4326C53.1411 80.5696 54.5727 80.0662 56.0713 80.0059L56.3721 80H90.6279Z" fill="#7C7317" stroke="#D9B523" stroke-width="2" stroke-linecap="round" stroke-linejoin="round"/>
<path d="M91.2703 90.9308C91.2851 91.4526 91.3705 91.8715 91.5265 92.1875C91.6825 92.4961 91.8793 92.7092 92.117 92.8268V92.8709C91.9685 92.8635 91.7976 92.8562 91.6045 92.8488C91.4188 92.8415 91.2183 92.8378 91.0028 92.8378C90.728 92.8378 90.4346 92.8452 90.1226 92.8599C89.8181 92.8746 89.5024 92.8819 89.1756 92.8819C89.0864 92.8819 89.001 92.8819 88.9193 92.8819C88.8376 92.8819 88.7596 92.8782 88.6853 92.8709V92.8268C88.8488 92.7533 88.9862 92.6578 89.0976 92.5402C89.209 92.4226 89.2981 92.272 89.365 92.0883C89.4393 91.9045 89.4913 91.6841 89.521 91.4269C89.5507 91.1697 89.5655 90.8574 89.5655 90.4899C89.5655 90.3576 89.5618 90.2143 89.5544 90.06C89.5544 89.8984 89.5507 89.7477 89.5433 89.6081C89.4764 89.4758 89.3761 89.2884 89.2424 89.0459C89.1162 88.7961 88.9676 88.5205 88.7968 88.2192C88.6259 87.9179 88.4439 87.6056 88.2508 87.2822C88.0577 86.9589 87.8646 86.6576 87.6714 86.3783C87.4857 86.0917 87.3112 85.8456 87.1478 85.6398C86.9843 85.4267 86.8469 85.2834 86.7355 85.2099V85.1658C86.9286 85.1805 87.1292 85.1915 87.3372 85.1989C87.5451 85.1989 87.7494 85.1989 87.95 85.1989C88.1357 85.1989 88.4068 85.1915 88.7633 85.1768C89.1199 85.1621 89.4876 85.1548 89.8664 85.1548C89.9258 85.1548 89.9815 85.1585 90.0335 85.1658C90.0929 85.1658 90.1523 85.1658 90.2118 85.1658V85.2099C90.0186 85.276 89.8775 85.3826 89.7884 85.5296C89.7067 85.6692 89.6658 85.8345 89.6658 86.0256C89.6658 86.1873 89.7104 86.393 89.7995 86.6429C89.8961 86.8927 90.0038 87.1463 90.1226 87.4035C90.2489 87.6533 90.3678 87.8885 90.4792 88.109C90.598 88.3221 90.6834 88.4764 90.7354 88.5719C90.8394 88.3956 90.9509 88.1824 91.0697 87.9326C91.1885 87.6754 91.352 87.3226 91.5599 86.8744C91.6862 86.6098 91.7494 86.3489 91.7494 86.0917C91.7494 85.9007 91.7085 85.728 91.6268 85.5737C91.5451 85.4193 91.4077 85.2981 91.2145 85.2099V85.1658C91.5934 85.1879 91.9648 85.1989 92.3287 85.1989C92.5887 85.1989 92.8227 85.1915 93.0307 85.1768C93.2387 85.1621 93.4615 85.1548 93.6992 85.1548C93.7512 85.1548 93.7995 85.1548 93.844 85.1548C93.896 85.1548 93.948 85.1585 94 85.1658V85.2099C93.8812 85.276 93.7623 85.3752 93.6435 85.5075C93.5246 85.6398 93.4021 85.7904 93.2758 85.9595C93.1569 86.1285 93.0381 86.3122 92.9193 86.5106C92.8004 86.709 92.6853 86.9074 92.5739 87.1059C92.3436 87.5247 92.1245 87.9326 91.9165 88.3294C91.7085 88.7189 91.4968 89.112 91.2814 89.5089C91.274 89.6338 91.2665 89.7698 91.2591 89.9167C91.2591 90.0564 91.2591 90.1997 91.2591 90.3466C91.2591 90.4495 91.2591 90.5524 91.2591 90.6553C91.2665 90.7508 91.2703 90.8427 91.2703 90.9308Z" fill="#474101"/>
<path d="M84.3448 90.7428C84.3671 91.2792 84.4413 91.7275 84.5676 92.0876C84.6939 92.4403 84.8944 92.6865 85.1693 92.8261V92.8702C85.0281 92.8555 84.861 92.8482 84.6679 92.8482C84.4822 92.8408 84.2891 92.8371 84.0885 92.8371C83.9771 92.8371 83.8694 92.8371 83.7654 92.8371C83.6614 92.8371 83.5648 92.8408 83.4757 92.8482C83.29 92.8555 83.0932 92.8629 82.8852 92.8702C82.6846 92.8775 82.4804 92.8812 82.2724 92.8812C82.1907 92.8812 82.109 92.8812 82.0273 92.8812C81.9456 92.8812 81.8638 92.8775 81.7821 92.8702V92.8261C82.057 92.6571 82.265 92.4109 82.4061 92.0876C82.5546 91.7642 82.6363 91.3233 82.6512 90.7648C82.6586 90.39 82.6623 89.9675 82.6623 89.4972C82.6698 89.0268 82.6735 88.5602 82.6735 88.0972C82.6735 87.6343 82.6698 87.2191 82.6623 86.8516C82.6623 86.4842 82.6586 86.216 82.6512 86.047L82.3392 86.069C82.1238 86.091 81.9158 86.1278 81.7153 86.1792C81.5222 86.2307 81.3439 86.3189 81.1805 86.4438C81.0171 86.5614 80.8722 86.723 80.7459 86.9288C80.6271 87.1272 80.5342 87.3844 80.4674 87.7004H80.4228C80.4154 87.6269 80.4117 87.5571 80.4117 87.491C80.4117 87.4248 80.4117 87.355 80.4117 87.2815C80.4117 87.1346 80.4117 86.9839 80.4117 86.8296C80.4191 86.6753 80.4265 86.5136 80.434 86.3446C80.4488 85.9257 80.4377 85.5289 80.4005 85.1541C80.7719 85.1761 81.1285 85.1945 81.4702 85.2092C81.8118 85.2166 82.1758 85.2202 82.5621 85.2202C82.6958 85.2202 82.8332 85.2202 82.9743 85.2202C83.1155 85.2202 83.2603 85.2166 83.4089 85.2092C83.7877 85.2019 84.1962 85.1908 84.6345 85.1761C85.0727 85.1541 85.4812 85.1431 85.8601 85.1431C85.9863 85.1431 86.1052 85.1467 86.2166 85.1541C86.3355 85.1541 86.4469 85.1578 86.5509 85.1651C86.5583 85.2313 86.562 85.2937 86.562 85.3525C86.5694 85.4113 86.5731 85.4701 86.5731 85.5289C86.5731 85.6391 86.5694 85.7604 86.562 85.8926C86.5546 86.0249 86.5472 86.1829 86.5397 86.3666C86.5397 86.4548 86.536 86.5356 86.5286 86.6091C86.5286 86.6753 86.5286 86.7451 86.5286 86.8186C86.5286 86.9435 86.5286 87.0721 86.5286 87.2044C86.536 87.3366 86.5472 87.502 86.562 87.7004H86.5174C86.3986 87.1493 86.1795 86.7488 85.8601 86.4989C85.5481 86.249 85.173 86.1057 84.7347 86.069C84.6753 86.0617 84.6196 86.058 84.5676 86.058C84.523 86.0506 84.4822 86.047 84.445 86.047H84.3113C84.3039 86.1866 84.2965 86.3887 84.2891 86.6532C84.2816 86.9178 84.2779 87.2191 84.2779 87.5571C84.2779 87.8217 84.2779 88.1009 84.2779 88.3949C84.2853 88.6815 84.2928 88.9644 84.3002 89.2436C84.3076 89.5229 84.3151 89.7911 84.3225 90.0483C84.3299 90.3055 84.3373 90.537 84.3448 90.7428Z" fill="#474101"/>
<path d="M76.8366 92.0008C77.2377 92.0008 77.5348 91.9016 77.728 91.7032C77.9211 91.5048 78.0177 91.2659 78.0177 90.9867C78.0177 90.7221 77.9397 90.5017 77.7837 90.3253C77.6277 90.1489 77.4271 89.9873 77.182 89.8403C76.9369 89.6933 76.6621 89.55 76.3575 89.4104C76.0604 89.2634 75.767 89.087 75.4773 88.8813C75.1579 88.6535 74.9314 88.3889 74.7977 88.0876C74.6714 87.779 74.6082 87.4593 74.6082 87.1286C74.6082 86.8347 74.6565 86.5591 74.7531 86.3019C74.8571 86.0447 75.0056 85.8206 75.1988 85.6295C75.3919 85.4384 75.6296 85.2878 75.9118 85.1776C76.2015 85.0673 76.5358 85.0122 76.9146 85.0122C77.0929 85.0122 77.2712 85.0269 77.4494 85.0563C77.6351 85.0857 77.8097 85.1188 77.9731 85.1555C78.1365 85.1849 78.2851 85.2143 78.4188 85.2437C78.5599 85.2657 78.6787 85.2768 78.7753 85.2768C78.9907 85.2768 79.1281 85.2069 79.1876 85.0673H79.221C79.2284 85.1482 79.2321 85.2327 79.2321 85.3209C79.2396 85.4017 79.2433 85.4862 79.2433 85.5744C79.2433 85.7728 79.2321 86.008 79.2098 86.2799C79.195 86.5444 79.1876 86.7796 79.1876 86.9853C79.1876 87.2131 79.1987 87.463 79.221 87.7349H79.1876C79.1356 87.5512 79.0427 87.3528 78.909 87.1396C78.7827 86.9265 78.6268 86.7318 78.4411 86.5554C78.2628 86.3717 78.0585 86.2211 77.8283 86.1035C77.6054 85.9786 77.3677 85.9161 77.1152 85.9161C76.87 85.9161 76.6546 85.9859 76.4689 86.1255C76.2907 86.2578 76.2015 86.4636 76.2015 86.7428C76.2015 86.8971 76.2461 87.0404 76.3352 87.1727C76.4244 87.2976 76.5432 87.4189 76.6918 87.5365C76.8478 87.6541 77.026 87.768 77.2266 87.8782C77.4346 87.9811 77.6574 88.0913 77.8951 88.2089C78.519 88.5175 78.9759 88.8629 79.2656 89.245C79.5552 89.6272 79.7001 90.0828 79.7001 90.6119C79.7001 90.9426 79.6369 91.2549 79.5107 91.5489C79.3844 91.8355 79.2061 92.089 78.9759 92.3094C78.7456 92.5299 78.4671 92.7026 78.1402 92.8275C77.8134 92.9525 77.4494 93.0149 77.0483 93.0149C76.8255 93.0149 76.6101 93.0002 76.4021 92.9708C76.2015 92.9414 76.0158 92.9084 75.845 92.8716C75.6816 92.8275 75.533 92.7908 75.3993 92.7614C75.273 92.732 75.1728 92.7173 75.0985 92.7173C74.9945 92.7173 74.8942 92.732 74.7977 92.7614C74.7011 92.7908 74.6231 92.8459 74.5637 92.9267H74.5191C74.5414 92.6989 74.5525 92.4123 74.5525 92.0669C74.5525 91.7877 74.5414 91.5084 74.5191 91.2292C74.5043 90.9499 74.4968 90.6707 74.4968 90.3914C74.4968 90.318 74.4968 90.2445 74.4968 90.171C74.4968 90.0975 74.5005 90.0203 74.508 89.9395H74.5414C74.6454 90.2922 74.7865 90.5972 74.9648 90.8544C75.1505 91.1116 75.3473 91.3247 75.5553 91.4937C75.7707 91.6628 75.9898 91.7877 76.2127 91.8685C76.4355 91.9494 76.6435 91.9934 76.8366 92.0008Z" fill="#474101"/>
<path d="M70.4901 85.8377C70.2524 85.8377 70.0482 85.9223 69.8773 86.0913C69.7139 86.2603 69.5765 86.4881 69.4651 86.7747C69.3537 87.0613 69.2682 87.3957 69.2088 87.7778C69.1568 88.1599 69.1271 88.5678 69.1197 89.0014C69.1048 89.4937 69.1234 89.9383 69.1754 90.3351C69.2348 90.7246 69.3239 91.0553 69.4428 91.3272C69.5616 91.5991 69.7102 91.8085 69.8885 91.9555C70.0667 92.1025 70.2673 92.176 70.4901 92.176C70.713 92.176 70.9098 92.1025 71.0806 91.9555C71.2589 91.8085 71.4038 91.5991 71.5152 91.3272C71.634 91.0553 71.7194 90.7246 71.7714 90.3351C71.8234 89.9383 71.8457 89.4937 71.8383 89.0014C71.8309 88.5678 71.7974 88.1599 71.738 87.7778C71.686 87.3883 71.6043 87.0503 71.4929 86.7637C71.3815 86.4771 71.2403 86.2529 71.0695 86.0913C70.9061 85.9223 70.713 85.8377 70.4901 85.8377ZM73.6656 89.1777C73.673 89.7656 73.5987 90.2984 73.4427 90.7761C73.2867 91.2464 73.0676 91.6469 72.7854 91.9776C72.5031 92.3083 72.1651 92.5655 71.7714 92.7492C71.3852 92.9255 70.9581 93.0137 70.4901 93.0137C70.0222 93.0137 69.5913 92.9255 69.1977 92.7492C68.804 92.5655 68.4623 92.3083 68.1726 91.9776C67.8829 91.6395 67.6601 91.2354 67.5041 90.765C67.3481 90.2874 67.2775 89.7583 67.2924 89.1777C67.3073 88.6266 67.3815 88.1011 67.5152 87.6014C67.6564 87.0944 67.8569 86.6498 68.1169 86.2676C68.3843 85.8782 68.7149 85.5695 69.1085 85.3417C69.5022 85.1139 69.9627 85 70.4901 85C71.0027 85 71.4558 85.1139 71.8494 85.3417C72.2431 85.5695 72.5737 85.8782 72.8411 86.2676C73.1085 86.6498 73.309 87.0944 73.4427 87.6014C73.5839 88.1011 73.6581 88.6266 73.6656 89.1777Z" fill="#474101"/>
<path d="M62.7321 91.3608C62.7693 91.7062 62.851 92.0185 62.9773 92.2978C63.1035 92.5697 63.2855 92.746 63.5232 92.8269V92.871C63.2929 92.8563 63.033 92.8489 62.7433 92.8489C62.4536 92.8489 62.175 92.8489 61.9076 92.8489C61.6922 92.8489 61.4657 92.8563 61.228 92.871C60.9903 92.8783 60.7526 92.882 60.5149 92.882C60.4555 92.882 60.396 92.8783 60.3366 92.871C60.2846 92.871 60.2289 92.871 60.1695 92.871V92.8269C60.4518 92.6579 60.656 92.408 60.7823 92.0773C60.9086 91.7466 60.9866 91.3094 61.0163 90.7656C61.0311 90.5525 61.0386 90.3063 61.0386 90.027C61.046 89.7404 61.0497 89.4465 61.0497 89.1452C61.0497 88.9174 61.046 88.6896 61.0386 88.4618C61.0386 88.234 61.0348 88.0208 61.0274 87.8224C61.0274 87.6167 61.0237 87.4329 61.0163 87.2713C61.0089 87.1023 61.0014 86.9663 60.994 86.8634C60.9494 86.4225 60.8714 86.0624 60.76 85.7832C60.6486 85.4966 60.4518 85.2945 60.1695 85.1769V85.1438C60.4889 85.1659 60.8417 85.1769 61.228 85.1769H61.6068C61.8222 85.1696 62.0488 85.1622 62.2865 85.1549C62.5316 85.1402 62.7953 85.1328 63.0775 85.1328C63.1889 85.1328 63.3004 85.1365 63.4118 85.1438C63.5306 85.1438 63.6532 85.1475 63.7795 85.1549C64.0172 85.1696 64.2809 85.2063 64.5705 85.2651C64.8602 85.3165 65.1351 85.4121 65.395 85.5517C65.655 85.6913 65.8816 85.8824 66.0747 86.1249C66.2678 86.3674 66.3867 86.6871 66.4312 87.0839C66.4609 87.3925 66.4312 87.6644 66.3421 87.8996C66.2604 88.1347 66.1415 88.3368 65.9856 88.5059C65.8296 88.6675 65.6513 88.7961 65.4507 88.8917C65.2576 88.9872 65.0645 89.0533 64.8714 89.0901C65.0645 89.553 65.2651 90.0234 65.473 90.501C65.6884 90.9787 65.9299 91.4306 66.1973 91.8568C66.3235 92.0626 66.4684 92.2574 66.6318 92.4411C66.8026 92.6248 67.0218 92.7497 67.2892 92.8159V92.871C67.252 92.893 67.1852 92.9151 67.0886 92.9371C66.992 92.9592 66.8769 92.9775 66.7432 92.9922C66.6095 93.0143 66.4647 93.029 66.3087 93.0363C66.1527 93.0437 66.0041 93.04 65.863 93.0253C65.603 93.0032 65.3839 92.9518 65.2056 92.871C65.0274 92.7901 64.8714 92.6872 64.7377 92.5623C64.604 92.43 64.4888 92.2794 64.3923 92.1104C64.2957 91.9414 64.2029 91.7613 64.1137 91.5703C64.0692 91.4821 64.006 91.3461 63.9243 91.1624C63.85 90.9713 63.7646 90.7545 63.668 90.512C63.5715 90.2695 63.4712 90.0087 63.3672 89.7294C63.2707 89.4502 63.1778 89.1746 63.0887 88.9027C63.6383 88.8292 64.0543 88.6528 64.3366 88.3736C64.6188 88.087 64.734 87.6791 64.682 87.15C64.6597 86.8781 64.5817 86.6613 64.448 86.4997C64.3217 86.338 64.1657 86.2131 63.98 86.1249C63.7943 86.0367 63.5863 85.9816 63.3561 85.9595C63.1332 85.9375 62.9141 85.9301 62.6987 85.9375C62.6913 86.0624 62.6838 86.2314 62.6764 86.4446C62.6764 86.6577 62.6727 86.8891 62.6653 87.139C62.6653 87.3889 62.6616 87.6424 62.6541 87.8996C62.6541 88.1568 62.6541 88.3883 62.6541 88.594C62.6541 88.7998 62.6541 89.0276 62.6541 89.2775C62.6541 89.5273 62.6579 89.7772 62.6653 90.027C62.6727 90.2769 62.6801 90.5194 62.6876 90.7545C62.7024 90.9824 62.7173 91.1844 62.7321 91.3608Z" fill="#474101"/>
<path d="M59.7046 85.1651C59.7195 85.2386 59.7269 85.3121 59.7269 85.3856C59.7269 85.4517 59.7269 85.5215 59.7269 85.595C59.7269 85.8081 59.7158 86.0506 59.6935 86.3225C59.6861 86.4695 59.6786 86.6018 59.6712 86.7194C59.6712 86.8296 59.6712 86.9508 59.6712 87.0831C59.6712 87.164 59.6712 87.2521 59.6712 87.3477C59.6712 87.4432 59.6749 87.5498 59.6824 87.6673H59.6378C59.5412 87.344 59.4001 87.0794 59.2144 86.8737C59.0361 86.6606 58.8282 86.4915 58.5905 86.3666C58.3602 86.2417 58.1151 86.1535 57.8551 86.1021C57.6025 86.0506 57.3537 86.0249 57.1086 86.0249H56.5515C56.5441 86.1278 56.5366 86.2674 56.5292 86.4438C56.5292 86.6202 56.5255 86.8186 56.5181 87.039C56.5181 87.2595 56.5144 87.4946 56.5069 87.7445C56.5069 87.9944 56.5069 88.2479 56.5069 88.5051C56.5886 88.5051 56.6889 88.5051 56.8078 88.5051C56.934 88.4977 57.038 88.4867 57.1197 88.472C57.3129 88.4426 57.4837 88.3875 57.6323 88.3067C57.7808 88.2258 57.9108 88.134 58.0222 88.0311C58.1336 87.9209 58.2228 87.807 58.2896 87.6894C58.3565 87.5645 58.401 87.4469 58.4233 87.3366H58.4568C58.4642 87.3954 58.4679 87.4506 58.4679 87.502C58.4679 87.5534 58.4679 87.6085 58.4679 87.6673C58.4679 87.8658 58.4605 88.0752 58.4456 88.2956C58.4382 88.5088 58.427 88.7292 58.4122 88.957C58.4048 89.2657 58.4085 89.5412 58.4233 89.7838C58.4456 90.0263 58.4679 90.2651 58.4902 90.5003H58.4456C58.3416 90.1475 58.1708 89.8793 57.9331 89.6956C57.7028 89.5045 57.4317 89.3906 57.1197 89.3539C57.0157 89.3465 56.9043 89.3428 56.7855 89.3428C56.6666 89.3428 56.5738 89.3428 56.5069 89.3428C56.5069 89.5706 56.5106 89.7911 56.5181 90.0042C56.5329 90.21 56.5441 90.3974 56.5515 90.5664C56.5589 90.7722 56.5738 90.9889 56.5961 91.2167C56.6183 91.4446 56.6592 91.665 56.7186 91.8781C56.778 92.0912 56.8598 92.2823 56.9637 92.4513C57.0752 92.6203 57.22 92.7489 57.3983 92.8371V92.8702C57.22 92.8555 57.012 92.8482 56.7743 92.8482C56.5441 92.8408 56.3101 92.8371 56.0724 92.8371H55.7493C55.5487 92.8445 55.3222 92.8555 55.0696 92.8702C54.8245 92.8775 54.5905 92.8812 54.3677 92.8812C54.3008 92.8812 54.2377 92.8812 54.1783 92.8812C54.1188 92.8812 54.0594 92.8775 54 92.8702V92.8371C54.1634 92.7563 54.2971 92.6571 54.4011 92.5395C54.5125 92.4146 54.6017 92.2603 54.6685 92.0765C54.7354 91.8928 54.7836 91.6797 54.8134 91.4372C54.8431 91.1874 54.8616 90.9008 54.8691 90.5774C54.8914 89.8866 54.9025 89.2326 54.9025 88.6153C54.9025 88.3067 54.8988 88.0127 54.8914 87.7335C54.8839 87.4469 54.8691 87.175 54.8468 86.9178C54.7948 86.4181 54.7094 86.0359 54.5905 85.7714C54.4717 85.5068 54.2748 85.3158 54 85.1982V85.1541C54.2377 85.1688 54.5014 85.1798 54.7911 85.1872C55.0882 85.1945 55.3816 85.1982 55.6713 85.1982C55.9238 85.1982 56.1652 85.1982 56.3955 85.1982C56.6258 85.1908 56.83 85.1872 57.0083 85.1872C57.1272 85.1872 57.2683 85.1835 57.4317 85.1761C57.5951 85.1688 57.766 85.1651 57.9442 85.1651C58.1225 85.1578 58.3045 85.1541 58.4902 85.1541C58.6759 85.1467 58.8541 85.1431 59.025 85.1431C59.1587 85.1431 59.2813 85.1467 59.3927 85.1541C59.5115 85.1541 59.6155 85.1578 59.7046 85.1651Z" fill="#474101"/>
<g opacity="0.65" filter="url(#filter0_d_29_11670)">
<path d="M112.268 97.375H33.7317H112.268Z" fill="url(#paint9_linear_29_11670)"/>
<path d="M112.268 97.375H33.7317" stroke="#FFEA00" stroke-width="2" stroke-linecap="round"/>
</g>
<path d="M72.9998 65.3381C47.3525 65.3381 42.8108 39.7799 42.0093 19.5025C41.7822 13.8655 41.6709 11.0425 43.7904 8.43769C45.9054 5.82844 48.4389 5.40099 53.5105 4.54608C59.9528 3.49078 66.4717 2.97397 72.9998 3.00101C80.9433 3.00101 87.4842 3.70007 92.489 4.54608C97.5606 5.40099 100.094 5.82844 102.214 8.43769C104.333 11.0469 104.217 13.8655 103.995 19.5025C103.193 39.7799 98.6515 65.3381 73.0042 65.3381H72.9998Z" fill="url(#paint10_linear_29_11670)"/>
<path d="M72.9998 65.3381C47.3525 65.3381 42.8108 39.7799 42.0093 19.5025C41.7822 13.8655 41.6709 11.0425 43.7904 8.43769C45.9054 5.82844 48.4389 5.40099 53.5105 4.54608C59.9528 3.49078 66.4717 2.97397 72.9998 3.00101C80.9433 3.00101 87.4842 3.70007 92.489 4.54608C97.5606 5.40099 100.094 5.82844 102.214 8.43769C104.333 11.0469 104.217 13.8655 103.995 19.5025C103.193 39.7799 98.6515 65.3381 73.0042 65.3381H72.9998Z" fill="url(#paint11_linear_29_11670)"/>
<path d="M72.9998 65.3381C47.3525 65.3381 42.8108 39.7799 42.0093 19.5025C41.7822 13.8655 41.6709 11.0425 43.7904 8.43769C45.9054 5.82844 48.4389 5.40099 53.5105 4.54608C59.9528 3.49078 66.4717 2.97397 72.9998 3.00101C80.9433 3.00101 87.4842 3.70007 92.489 4.54608C97.5606 5.40099 100.094 5.82844 102.214 8.43769C104.333 11.0469 104.217 13.8655 103.995 19.5025C103.193 39.7799 98.6515 65.3381 73.0042 65.3381H72.9998Z" stroke="url(#paint12_linear_29_11670)" stroke-width="5"/>
<path d="M72.9998 65.3381C47.3525 65.3381 42.8108 39.7799 42.0093 19.5025C41.7822 13.8655 41.6709 11.0425 43.7904 8.43769C45.9054 5.82844 48.4389 5.40099 53.5105 4.54608C59.9528 3.49078 66.4717 2.97397 72.9998 3.00101C80.9433 3.00101 87.4842 3.70007 92.489 4.54608C97.5606 5.40099 100.094 5.82844 102.214 8.43769C104.333 11.0469 104.217 13.8655 103.995 19.5025C103.193 39.7799 98.6515 65.3381 73.0042 65.3381H72.9998Z" stroke="url(#paint13_linear_29_11670)" stroke-opacity="0.75" stroke-width="5"/>
<path d="M77.6889 51H70.3889V24.95H63.1889V19.95C64.2556 19.95 65.2389 19.8667 66.1389 19.7C67.0723 19.5 67.9389 19.2 68.7389 18.8C69.4389 18.4333 70.1056 17.9833 70.7389 17.45C71.3723 16.8833 71.8723 16.2667 72.2389 15.6H77.6889V51Z" fill="white"/>
<defs>
<filter id="filter0_d_29_11670" x="0.93169" y="68.575" width="144.136" height="65.6" filterUnits="userSpaceOnUse" color-interpolation-filters="sRGB">
<feFlood flood-opacity="0" result="BackgroundImageFix"/>
<feColorMatrix in="SourceAlpha" type="matrix" values="0 0 0 0 0 0 0 0 0 0 0 0 0 0 0 0 0 0 127 0" result="hardAlpha"/>
<feOffset dy="4"/>
<feGaussianBlur stdDeviation="15.9"/>
<feComposite in2="hardAlpha" operator="out"/>
<feColorMatrix type="matrix" values="0 0 0 0 0 0 0 0 0 0 0 0 0 0 0 0 0 0 0.25 0"/>
<feBlend mode="normal" in2="BackgroundImageFix" result="effect1_dropShadow_29_11670"/>
<feBlend mode="normal" in="SourceGraphic" in2="effect1_dropShadow_29_11670" result="shape"/>
</filter>
<linearGradient id="paint0_linear_29_11670" x1="73.0001" y1="16.3594" x2="73.0001" y2="49.7543" gradientUnits="userSpaceOnUse">
<stop stop-color="#6DABE9"/>
<stop offset="1" stop-color="#064490"/>
</linearGradient>
<linearGradient id="paint1_linear_29_11670" x1="71.305" y1="22.7369" x2="71.305" y2="51.9574" gradientUnits="userSpaceOnUse">
<stop stop-color="#6DD8D8"/>
<stop offset="1" stop-color="#006DAF"/>
</linearGradient>
<linearGradient id="paint2_linear_29_11670" x1="73.0001" y1="16.3594" x2="73.0001" y2="49.7543" gradientUnits="userSpaceOnUse">
<stop stop-color="#0862B8"/>
<stop offset="1" stop-color="#0058BC"/>
</linearGradient>
<linearGradient id="paint3_linear_29_11670" x1="73.0001" y1="19.6061" x2="73.0001" y2="49.7543" gradientUnits="userSpaceOnUse">
<stop stop-color="#EAFFFF"/>
<stop offset="1" stop-color="#27D1F5"/>
</linearGradient>
<linearGradient id="paint4_linear_29_11670" x1="73.0011" y1="3" x2="73.0011" y2="65.3381" gradientUnits="userSpaceOnUse">
<stop stop-color="#6DABE9"/>
<stop offset="1" stop-color="#064490"/>
</linearGradient>
<linearGradient id="paint5_linear_29_11670" x1="73.0011" y1="3" x2="73.0011" y2="65.3381" gradientUnits="userSpaceOnUse">
<stop stop-color="#0862B8"/>
<stop offset="1" stop-color="#0058BC"/>
</linearGradient>
<linearGradient id="paint6_linear_29_11670" x1="73.5" y1="65.3379" x2="73.5" y2="78.6958" gradientUnits="userSpaceOnUse">
<stop stop-color="#6DABE9"/>
<stop offset="1" stop-color="#064490"/>
</linearGradient>
<linearGradient id="paint7_linear_29_11670" x1="73.5" y1="65.3379" x2="73.5" y2="78.6958" gradientUnits="userSpaceOnUse">
<stop stop-color="#0862B8"/>
<stop offset="1" stop-color="#0058BC"/>
</linearGradient>
<linearGradient id="paint8_linear_29_11670" x1="73.4809" y1="67.8889" x2="73.481" y2="79.5771" gradientUnits="userSpaceOnUse">
<stop stop-color="#6DD8D8"/>
<stop offset="1" stop-color="#006DAF"/>
</linearGradient>
<linearGradient id="paint9_linear_29_11670" x1="72.9998" y1="97.375" x2="72.9998" y2="98.375" gradientUnits="userSpaceOnUse">
<stop stop-color="#6DABE9"/>
<stop offset="1" stop-color="#064490"/>
</linearGradient>
<linearGradient id="paint10_linear_29_11670" x1="73.001" y1="3" x2="73.001" y2="65.3381" gradientUnits="userSpaceOnUse">
<stop stop-color="#6DABE9"/>
<stop offset="1" stop-color="#064490"/>
</linearGradient>
<linearGradient id="paint11_linear_29_11670" x1="71.8167" y1="14.9048" x2="71.8167" y2="69.4507" gradientUnits="userSpaceOnUse">
<stop stop-color="#6DD8D8"/>
<stop offset="1" stop-color="#006DAF"/>
</linearGradient>
<linearGradient id="paint12_linear_29_11670" x1="73.001" y1="3" x2="73.001" y2="65.3381" gradientUnits="userSpaceOnUse">
<stop stop-color="#0862B8"/>
<stop offset="1" stop-color="#0058BC"/>
</linearGradient>
<linearGradient id="paint13_linear_29_11670" x1="73.001" y1="9.06065" x2="73.0011" y2="65.3381" gradientUnits="userSpaceOnUse">
<stop stop-color="#EAFFFF"/>
<stop offset="1" stop-color="#27D1F5"/>
</linearGradient>
</defs>
</svg>
