<svg width="134" height="122" viewBox="0 0 134 122" fill="none" xmlns="http://www.w3.org/2000/svg">
<g opacity="0.65">
<path d="M93.9241 14.9253L97.5774 16.1418C101.389 17.4122 103.294 18.0474 104.384 19.5603C105.473 21.0732 105.473 23.0866 105.473 27.098V27.379C105.473 30.6898 105.473 32.349 104.676 33.7041C103.879 35.0592 102.428 35.8637 99.5331 37.4768L88.1495 43.798M40.0284 14.9253L36.3751 16.1418C32.5639 17.4122 30.6583 18.0474 29.5688 19.5603C28.4794 21.0732 28.4794 23.0866 28.4794 27.098V27.379C28.4794 30.6898 28.4794 32.349 29.2763 33.7041C30.0731 35.0592 31.5245 35.8637 34.4194 37.4768L45.803 43.798" fill="url(#paint0_linear_29_11632)"/>
<path d="M93.9241 14.9253L97.5774 16.1418C101.389 17.4122 103.294 18.0474 104.384 19.5603C105.473 21.0732 105.473 23.0866 105.473 27.098V27.379C105.473 30.6898 105.473 32.349 104.676 33.7041C103.879 35.0592 102.428 35.8637 99.5331 37.4768L88.1495 43.798M40.0284 14.9253L36.3751 16.1418C32.5639 17.4122 30.6583 18.0474 29.5688 19.5603C28.4794 21.0732 28.4794 23.0866 28.4794 27.098V27.379C28.4794 30.6898 28.4794 32.349 29.2763 33.7041C30.0731 35.0592 31.5245 35.8637 34.4194 37.4768L45.803 43.798" fill="url(#paint1_linear_29_11632)"/>
<path d="M93.9241 14.9253L97.5774 16.1418C101.389 17.4122 103.294 18.0474 104.384 19.5603C105.473 21.0732 105.473 23.0866 105.473 27.098V27.379C105.473 30.6898 105.473 32.349 104.676 33.7041C103.879 35.0592 102.428 35.8637 99.5331 37.4768L88.1495 43.798M40.0284 14.9253L36.3751 16.1418C32.5639 17.4122 30.6583 18.0474 29.5688 19.5603C28.4794 21.0732 28.4794 23.0866 28.4794 27.098V27.379C28.4794 30.6898 28.4794 32.349 29.2763 33.7041C30.0731 35.0592 31.5245 35.8637 34.4194 37.4768L45.803 43.798" stroke="url(#paint2_linear_29_11632)" stroke-width="2"/>
<path d="M93.9241 14.9253L97.5774 16.1418C101.389 17.4122 103.294 18.0474 104.384 19.5603C105.473 21.0732 105.473 23.0866 105.473 27.098V27.379C105.473 30.6898 105.473 32.349 104.676 33.7041C103.879 35.0592 102.428 35.8637 99.5331 37.4768L88.1495 43.798M40.0284 14.9253L36.3751 16.1418C32.5639 17.4122 30.6583 18.0474 29.5688 19.5603C28.4794 21.0732 28.4794 23.0866 28.4794 27.098V27.379C28.4794 30.6898 28.4794 32.349 29.2763 33.7041C30.0731 35.0592 31.5245 35.8637 34.4194 37.4768L45.803 43.798" stroke="url(#paint3_linear_29_11632)" stroke-opacity="0.75" stroke-width="2"/>
</g>
<path d="M66.9758 57.2715C44.8016 57.2715 40.8749 35.1743 40.182 17.6428C39.9857 12.7691 39.8894 10.3284 41.7219 8.07634C43.5505 5.82042 45.7409 5.45085 50.1257 4.71171C55.6956 3.79932 61.3318 3.3525 66.9758 3.37587C73.8437 3.37587 79.4989 3.98027 83.8259 4.71171C88.2107 5.45085 90.4012 5.82042 92.2336 8.07634C94.0661 10.3323 93.966 12.7691 93.7735 17.6428C93.0806 35.1743 89.1539 57.2715 66.9797 57.2715H66.9758Z" fill="url(#paint4_linear_29_11632)"/>
<path d="M66.9758 57.2715C44.8016 57.2715 40.8749 35.1743 40.182 17.6428C39.9857 12.7691 39.8894 10.3284 41.7219 8.07634C43.5505 5.82042 45.7409 5.45085 50.1257 4.71171C55.6956 3.79932 61.3318 3.3525 66.9758 3.37587C73.8437 3.37587 79.4989 3.98027 83.8259 4.71171C88.2107 5.45085 90.4012 5.82042 92.2336 8.07634C94.0661 10.3323 93.966 12.7691 93.7735 17.6428C93.0806 35.1743 89.1539 57.2715 66.9797 57.2715H66.9758Z" stroke="url(#paint5_linear_29_11632)" stroke-width="5"/>
<path d="M66.9758 57.2715C44.8016 57.2715 40.8749 35.1743 40.182 17.6428C39.9857 12.7691 39.8894 10.3284 41.7219 8.07634C43.5505 5.82042 45.7409 5.45085 50.1257 4.71171C55.6956 3.79932 61.3318 3.3525 66.9758 3.37587C73.8437 3.37587 79.4989 3.98027 83.8259 4.71171C88.2107 5.45085 90.4012 5.82042 92.2336 8.07634C94.0661 10.3323 93.966 12.7691 93.7735 17.6428C93.0806 35.1743 89.1539 57.2715 66.9797 57.2715H66.9758Z" stroke="url(#paint6_linear_29_11632)" stroke-opacity="0.75" stroke-width="5"/>
<g opacity="0.65">
<path d="M66.9762 57.2715V68.8205V57.2715Z" fill="url(#paint7_linear_29_11632)"/>
<path d="M66.9762 57.2715V68.8205" stroke="url(#paint8_linear_29_11632)" stroke-width="5" stroke-linecap="round"/>
<path d="M66.9762 57.2715V68.8205" stroke="url(#paint9_linear_29_11632)" stroke-width="5" stroke-linecap="round"/>
</g>
<path d="M81.5699 67.375L81.8326 67.3809C83.0549 67.4378 84.2395 67.8868 85.23 68.6777L85.44 68.8525C86.4718 69.7533 87.2082 70.9933 87.5298 72.3887L87.5884 72.6699V72.6709L89.7935 84.375H42.2056L44.4107 72.6709V72.6699C44.6766 71.2546 45.365 69.9823 46.357 69.0371L46.5591 68.8525C47.5899 67.9528 48.8568 67.4419 50.1666 67.3809L50.4293 67.375H81.5699Z" fill="#575757" stroke="#919191" stroke-width="2" stroke-linecap="round" stroke-linejoin="round"/>
<g opacity="0.65" filter="url(#filter0_d_29_11632)">
<path d="M100.927 84.9702H33.0256H100.927Z" fill="url(#paint10_linear_29_11632)"/>
<path d="M100.927 84.9702H33.0256" stroke="#838383" stroke-width="2" stroke-linecap="round"/>
</g>
<path d="M66.976 57.2715C44.8018 57.2715 40.8751 35.1743 40.1822 17.6428C39.9858 12.7691 39.8896 10.3284 41.7221 8.07634C43.5507 5.82042 45.7411 5.45085 50.1259 4.71171C55.6958 3.79932 61.332 3.3525 66.976 3.37587C73.8439 3.37587 79.4991 3.98027 83.8261 4.71171C88.2109 5.45085 90.4014 5.82042 92.2338 8.07634C94.0663 10.3323 93.9662 12.7691 93.7737 17.6428C93.0807 35.1743 89.1541 57.2715 66.9799 57.2715H66.976Z" fill="url(#paint11_linear_29_11632)"/>
<path d="M66.976 57.2715C44.8018 57.2715 40.8751 35.1743 40.1822 17.6428C39.9858 12.7691 39.8896 10.3284 41.7221 8.07634C43.5507 5.82042 45.7411 5.45085 50.1259 4.71171C55.6958 3.79932 61.332 3.3525 66.976 3.37587C73.8439 3.37587 79.4991 3.98027 83.8261 4.71171C88.2109 5.45085 90.4014 5.82042 92.2338 8.07634C94.0663 10.3323 93.9662 12.7691 93.7737 17.6428C93.0807 35.1743 89.1541 57.2715 66.9799 57.2715H66.976Z" fill="url(#paint12_linear_29_11632)"/>
<path d="M66.976 57.2715C44.8018 57.2715 40.8751 35.1743 40.1822 17.6428C39.9858 12.7691 39.8896 10.3284 41.7221 8.07634C43.5507 5.82042 45.7411 5.45085 50.1259 4.71171C55.6958 3.79932 61.332 3.3525 66.976 3.37587C73.8439 3.37587 79.4991 3.98027 83.8261 4.71171C88.2109 5.45085 90.4014 5.82042 92.2338 8.07634C94.0663 10.3323 93.9662 12.7691 93.7737 17.6428C93.0807 35.1743 89.1541 57.2715 66.9799 57.2715H66.976Z" stroke="url(#paint13_linear_29_11632)"/>
<path d="M66.976 57.2715C44.8018 57.2715 40.8751 35.1743 40.1822 17.6428C39.9858 12.7691 39.8896 10.3284 41.7221 8.07634C43.5507 5.82042 45.7411 5.45085 50.1259 4.71171C55.6958 3.79932 61.332 3.3525 66.976 3.37587C73.8439 3.37587 79.4991 3.98027 83.8261 4.71171C88.2109 5.45085 90.4014 5.82042 92.2338 8.07634C94.0663 10.3323 93.9662 12.7691 93.7737 17.6428C93.0807 35.1743 89.1541 57.2715 66.9799 57.2715H66.976Z" stroke="url(#paint14_linear_29_11632)" stroke-opacity="0.75"/>
<path d="M64.344 32.1807C64.936 31.6874 65.528 31.1571 66.12 30.5897C66.7366 30.0224 67.3286 29.4304 67.896 28.8137C68.4633 28.2464 68.9443 27.6297 69.339 26.9637C69.7583 26.2977 69.9803 25.5577 70.005 24.7437C70.0543 23.4364 69.709 22.4621 68.969 21.8207C68.229 21.1794 67.2423 20.8711 66.009 20.8957C64.899 20.9204 63.9986 21.1794 63.308 21.6727C62.642 22.1661 62.2473 22.8814 62.124 23.8187H57.129C57.1783 22.3634 57.5236 21.1054 58.165 20.0447C58.831 18.9594 59.7066 18.0961 60.792 17.4547C61.5813 16.9861 62.4446 16.6531 63.382 16.4557C64.3193 16.2337 65.306 16.1227 66.342 16.1227C69.1293 16.0734 71.3246 16.8134 72.928 18.3427C73.6186 18.9841 74.1736 19.7857 74.593 20.7477C75.0123 21.6851 75.222 22.7951 75.222 24.0777C75.222 25.0151 75.1233 25.9031 74.926 26.7417C74.7286 27.5804 74.3956 28.3574 73.927 29.0727C73.631 29.5661 73.3103 30.0224 72.965 30.4417C72.6443 30.8364 72.3113 31.2064 71.966 31.5517C71.6453 31.8971 71.2876 32.2424 70.893 32.5877C70.523 32.9331 70.1036 33.3154 69.635 33.7347C68.7223 34.5241 67.8466 35.2517 67.008 35.9177C66.194 36.5837 65.417 37.2374 64.677 37.8787H74.926V42.6147H57.314V38.2487L64.344 32.1807Z" fill="white"/>
<path d="M81.5432 78.6268C81.5566 79.1218 81.6335 79.5192 81.7739 79.819C81.9142 80.1118 82.0914 80.314 82.3053 80.4255V80.4674C82.1716 80.4604 82.0179 80.4534 81.844 80.4465C81.6769 80.4395 81.4964 80.436 81.3026 80.436C81.0552 80.436 80.7911 80.443 80.5104 80.4569C80.2363 80.4709 79.9522 80.4778 79.658 80.4778C79.5778 80.4778 79.5009 80.4778 79.4274 80.4778C79.3538 80.4778 79.2836 80.4743 79.2168 80.4674V80.4255C79.3639 80.3558 79.4875 80.2652 79.5878 80.1536C79.6881 80.0421 79.7683 79.8992 79.8285 79.7249C79.8953 79.5506 79.9421 79.3414 79.9689 79.0974C79.9956 78.8534 80.009 78.5571 80.009 78.2085C80.009 78.083 80.0056 77.9471 79.999 77.8007C79.999 77.6473 79.9956 77.5044 79.9889 77.3719C79.9288 77.2464 79.8385 77.0686 79.7182 76.8385C79.6045 76.6015 79.4708 76.3401 79.3171 76.0542C79.1633 75.7684 78.9995 75.4721 78.8257 75.1653C78.6519 74.8586 78.4781 74.5727 78.3043 74.3078C78.1371 74.0359 77.98 73.8023 77.833 73.6071C77.6859 73.4049 77.5622 73.269 77.4619 73.1993V73.1574C77.6358 73.1714 77.8163 73.1818 78.0034 73.1888C78.1906 73.1888 78.3745 73.1888 78.555 73.1888C78.7221 73.1888 78.9661 73.1818 79.287 73.1679C79.6079 73.1539 79.9388 73.147 80.2797 73.147C80.3332 73.147 80.3834 73.1505 80.4301 73.1574C80.4836 73.1574 80.5371 73.1574 80.5906 73.1574V73.1993C80.4168 73.262 80.2898 73.3631 80.2095 73.5025C80.136 73.635 80.0992 73.7919 80.0992 73.9731C80.0992 74.1265 80.1393 74.3217 80.2196 74.5588C80.3065 74.7958 80.4034 75.0363 80.5104 75.2803C80.624 75.5174 80.731 75.7405 80.8313 75.9496C80.9382 76.1518 81.0151 76.2982 81.0619 76.3889C81.1555 76.2215 81.2558 76.0194 81.3627 75.7823C81.4697 75.5383 81.6168 75.2037 81.8039 74.7784C81.9176 74.5274 81.9744 74.2799 81.9744 74.0359C81.9744 73.8546 81.9376 73.6908 81.8641 73.5444C81.7906 73.398 81.6669 73.2829 81.4931 73.1993V73.1574C81.834 73.1783 82.1683 73.1888 82.4959 73.1888C82.7298 73.1888 82.9404 73.1818 83.1276 73.1679C83.3148 73.1539 83.5153 73.147 83.7293 73.147C83.7761 73.147 83.8195 73.147 83.8596 73.147C83.9064 73.147 83.9532 73.1505 84 73.1574V73.1993C83.893 73.262 83.7861 73.3561 83.6791 73.4816C83.5722 73.6071 83.4619 73.75 83.3482 73.9104C83.2412 74.0707 83.1343 74.245 83.0273 74.4333C82.9204 74.6215 82.8167 74.8098 82.7165 74.998C82.5092 75.3954 82.312 75.7823 82.1248 76.1588C81.9376 76.5283 81.7471 76.9013 81.5532 77.2778C81.5466 77.3963 81.5399 77.5253 81.5332 77.6647C81.5332 77.7972 81.5332 77.9331 81.5332 78.0726C81.5332 78.1702 81.5332 78.2678 81.5332 78.3654C81.5399 78.456 81.5432 78.5432 81.5432 78.6268Z" fill="#272727"/>
<path d="M75.3103 78.4483C75.3304 78.9572 75.3972 79.3825 75.5109 79.7241C75.6245 80.0588 75.805 80.2923 76.0524 80.4248V80.4666C75.9253 80.4527 75.7749 80.4457 75.6011 80.4457C75.434 80.4387 75.2602 80.4352 75.0797 80.4352C74.9794 80.4352 74.8825 80.4352 74.7889 80.4352C74.6953 80.4352 74.6084 80.4387 74.5281 80.4457C74.361 80.4527 74.1839 80.4596 73.9967 80.4666C73.8162 80.4736 73.6323 80.4771 73.4452 80.4771C73.3716 80.4771 73.2981 80.4771 73.2245 80.4771C73.151 80.4771 73.0775 80.4736 73.0039 80.4666V80.4248C73.2513 80.2644 73.4385 80.0309 73.5655 79.7241C73.6992 79.4173 73.7727 78.999 73.7861 78.4692C73.7928 78.1136 73.7961 77.7127 73.7961 77.2665C73.8028 76.8203 73.8061 76.3776 73.8061 75.9384C73.8061 75.4992 73.8028 75.1053 73.7961 74.7567C73.7961 74.4081 73.7928 74.1536 73.7861 73.9933L73.5053 74.0142C73.3114 74.0351 73.1243 74.07 72.9438 74.1188C72.77 74.1676 72.6095 74.2512 72.4624 74.3698C72.3154 74.4813 72.185 74.6347 72.0714 74.8299C71.9644 75.0181 71.8808 75.2621 71.8207 75.5619H71.7806C71.7739 75.4922 71.7705 75.426 71.7705 75.3632C71.7705 75.3005 71.7705 75.2343 71.7705 75.1645C71.7705 75.0251 71.7705 74.8822 71.7705 74.7358C71.7772 74.5894 71.7839 74.436 71.7906 74.2756C71.804 73.8782 71.7939 73.5018 71.7605 73.1462C72.0948 73.1671 72.4156 73.1845 72.7232 73.1985C73.0307 73.2055 73.3582 73.2089 73.7059 73.2089C73.8262 73.2089 73.9499 73.2089 74.0769 73.2089C74.2039 73.2089 74.3343 73.2055 74.468 73.1985C74.8089 73.1915 75.1766 73.1811 75.571 73.1671C75.9654 73.1462 76.3331 73.1357 76.6741 73.1357C76.7877 73.1357 76.8947 73.1392 76.995 73.1462C77.1019 73.1462 77.2022 73.1497 77.2958 73.1567C77.3025 73.2194 77.3058 73.2787 77.3058 73.3344C77.3125 73.3902 77.3158 73.446 77.3158 73.5018C77.3158 73.6063 77.3125 73.7214 77.3058 73.8469C77.2991 73.9724 77.2924 74.1223 77.2858 74.2965C77.2858 74.3802 77.2824 74.4569 77.2757 74.5266C77.2757 74.5894 77.2757 74.6556 77.2757 74.7253C77.2757 74.8438 77.2757 74.9658 77.2757 75.0913C77.2824 75.2168 77.2924 75.3737 77.3058 75.5619H77.2657C77.1587 75.039 76.9615 74.6591 76.6741 74.422C76.3933 74.185 76.0557 74.049 75.6613 74.0142C75.6078 74.0072 75.5577 74.0037 75.5109 74.0037C75.4707 73.9968 75.434 73.9933 75.4006 73.9933H75.2802C75.2735 74.1257 75.2669 74.3175 75.2602 74.5685C75.2535 74.8194 75.2501 75.1053 75.2501 75.426C75.2501 75.677 75.2501 75.9419 75.2501 76.2208C75.2568 76.4927 75.2635 76.7611 75.2702 77.026C75.2769 77.2909 75.2836 77.5454 75.2902 77.7894C75.2969 78.0334 75.3036 78.2531 75.3103 78.4483Z" fill="#272727"/>
<path d="M68.5529 79.6419C68.9139 79.6419 69.1813 79.5478 69.3551 79.3596C69.529 79.1713 69.6159 78.9447 69.6159 78.6798C69.6159 78.4288 69.5457 78.2197 69.4053 78.0523C69.2649 77.885 69.0844 77.7316 68.8638 77.5922C68.6432 77.4528 68.3958 77.3168 68.1217 77.1843C67.8543 77.0449 67.5903 76.8776 67.3296 76.6824C67.0421 76.4663 66.8382 76.2153 66.7179 75.9294C66.6042 75.6366 66.5474 75.3333 66.5474 75.0196C66.5474 74.7407 66.5908 74.4793 66.6777 74.2353C66.7713 73.9913 66.905 73.7786 67.0789 73.5974C67.2527 73.4161 67.4666 73.2732 67.7206 73.1686C67.9814 73.064 68.2822 73.0117 68.6231 73.0117C68.7836 73.0117 68.944 73.0257 69.1045 73.0535C69.2716 73.0814 69.4287 73.1128 69.5758 73.1477C69.7228 73.1756 69.8565 73.2034 69.9769 73.2313C70.1039 73.2522 70.2108 73.2627 70.2977 73.2627C70.4916 73.2627 70.6153 73.1965 70.6688 73.064H70.6989C70.7055 73.1407 70.7089 73.2209 70.7089 73.3045C70.7156 73.3812 70.7189 73.4614 70.7189 73.5451C70.7189 73.7333 70.7089 73.9564 70.6888 74.2144C70.6755 74.4653 70.6688 74.6884 70.6688 74.8837C70.6688 75.0998 70.6788 75.3368 70.6989 75.5948H70.6688C70.622 75.4205 70.5384 75.2322 70.4181 75.0301C70.3044 74.8279 70.164 74.6431 69.9969 74.4758C69.8365 74.3015 69.6526 74.1586 69.4454 74.047C69.2448 73.9285 69.0309 73.8693 68.8036 73.8693C68.583 73.8693 68.3891 73.9355 68.222 74.0679C68.0616 74.1934 67.9814 74.3887 67.9814 74.6536C67.9814 74.8 68.0215 74.9359 68.1017 75.0614C68.1819 75.18 68.2889 75.295 68.4226 75.4065C68.563 75.5181 68.7234 75.6261 68.9039 75.7307C69.0911 75.8283 69.2916 75.9329 69.5056 76.0445C70.0671 76.3373 70.4782 76.6649 70.739 77.0275C70.9997 77.39 71.13 77.8223 71.13 78.3242C71.13 78.638 71.0732 78.9343 70.9596 79.2131C70.8459 79.485 70.6855 79.7256 70.4782 79.9347C70.271 80.1439 70.0203 80.3077 69.7262 80.4262C69.432 80.5448 69.1045 80.604 68.7435 80.604C68.5429 80.604 68.349 80.5901 68.1619 80.5622C67.9814 80.5343 67.8142 80.5029 67.6605 80.4681C67.5134 80.4262 67.3797 80.3914 67.2594 80.3635C67.1457 80.3356 67.0555 80.3217 66.9886 80.3217C66.895 80.3217 66.8048 80.3356 66.7179 80.3635C66.631 80.3914 66.5608 80.4437 66.5073 80.5204H66.4672C66.4872 80.3042 66.4973 80.0323 66.4973 79.7047C66.4973 79.4397 66.4872 79.1748 66.4672 78.9099C66.4538 78.6449 66.4471 78.38 66.4471 78.1151C66.4471 78.0454 66.4471 77.9757 66.4471 77.9059C66.4471 77.8362 66.4505 77.763 66.4571 77.6863H66.4872C66.5808 78.021 66.7078 78.3103 66.8683 78.5543C67.0354 78.7983 67.2126 79.0005 67.3997 79.1609C67.5936 79.3212 67.7908 79.4397 67.9914 79.5164C68.1919 79.5931 68.3791 79.6349 68.5529 79.6419Z" fill="#272727"/>
<path d="M62.8411 73.7948C62.6272 73.7948 62.4434 73.875 62.2896 74.0353C62.1425 74.1957 62.0188 74.4118 61.9186 74.6837C61.8183 74.9556 61.7414 75.2728 61.6879 75.6353C61.6411 75.9979 61.6144 76.3848 61.6077 76.7962C61.5943 77.2633 61.6111 77.6851 61.6579 78.0615C61.7113 78.431 61.7916 78.7448 61.8985 79.0027C62.0055 79.2607 62.1392 79.4594 62.2996 79.5988C62.4601 79.7383 62.6406 79.808 62.8411 79.808C63.0417 79.808 63.2188 79.7383 63.3726 79.5988C63.533 79.4594 63.6634 79.2607 63.7637 79.0027C63.8706 78.7448 63.9475 78.431 63.9943 78.0615C64.0411 77.6851 64.0612 77.2633 64.0545 76.7962C64.0478 76.3848 64.0177 75.9979 63.9642 75.6353C63.9174 75.2658 63.8439 74.9451 63.7436 74.6732C63.6433 74.4013 63.5163 74.1887 63.3626 74.0353C63.2155 73.875 63.0417 73.7948 62.8411 73.7948ZM65.699 76.9635C65.7057 77.5212 65.6388 78.0267 65.4985 78.4798C65.3581 78.926 65.1609 79.306 64.9068 79.6197C64.6528 79.9335 64.3486 80.1775 63.9943 80.3518C63.6467 80.5191 63.2623 80.6028 62.8411 80.6028C62.42 80.6028 62.0322 80.5191 61.6779 80.3518C61.3236 80.1775 61.0161 79.9335 60.7554 79.6197C60.4946 79.299 60.2941 78.9156 60.1537 78.4694C60.0133 78.0162 59.9498 77.5142 59.9632 76.9635C59.9765 76.4406 60.0434 75.9421 60.1637 75.468C60.2907 74.987 60.4712 74.5652 60.7052 74.2026C60.9459 73.8331 61.2434 73.5403 61.5977 73.3242C61.952 73.1081 62.3665 73 62.8411 73C63.3024 73 63.7102 73.1081 64.0645 73.3242C64.4188 73.5403 64.7163 73.8331 64.957 74.2026C65.1976 74.5652 65.3781 74.987 65.4985 75.468C65.6255 75.9421 65.6923 76.4406 65.699 76.9635Z" fill="#272727"/>
<path d="M55.8589 79.0346C55.8923 79.3623 55.9659 79.6586 56.0795 79.9235C56.1932 80.1815 56.357 80.3488 56.5709 80.4255V80.4673C56.3636 80.4534 56.1297 80.4464 55.869 80.4464C55.6082 80.4464 55.3575 80.4464 55.1169 80.4464C54.923 80.4464 54.7191 80.4534 54.5052 80.4673C54.2913 80.4743 54.0773 80.4778 53.8634 80.4778C53.8099 80.4778 53.7564 80.4743 53.703 80.4673C53.6562 80.4673 53.606 80.4673 53.5526 80.4673V80.4255C53.8066 80.2651 53.9904 80.0281 54.1041 79.7143C54.2177 79.4006 54.2879 78.9858 54.3147 78.4699C54.328 78.2677 54.3347 78.0341 54.3347 77.7692C54.3414 77.4973 54.3447 77.2184 54.3447 76.9326C54.3447 76.7165 54.3414 76.5003 54.3347 76.2842C54.3347 76.0681 54.3314 75.8659 54.3247 75.6777C54.3247 75.4824 54.3213 75.3082 54.3147 75.1548C54.308 74.9944 54.3013 74.8654 54.2946 74.7678C54.2545 74.3495 54.1843 74.0079 54.084 73.743C53.9837 73.4711 53.8066 73.2794 53.5526 73.1678V73.1364C53.84 73.1573 54.1576 73.1678 54.5052 73.1678H54.8461C55.04 73.1608 55.2439 73.1539 55.4578 73.1469C55.6784 73.1329 55.9157 73.126 56.1698 73.126C56.2701 73.126 56.3703 73.1295 56.4706 73.1364C56.5776 73.1364 56.6879 73.1399 56.8015 73.1469C57.0155 73.1608 57.2528 73.1957 57.5135 73.2515C57.7742 73.3003 58.0216 73.3909 58.2555 73.5234C58.4895 73.6558 58.6934 73.8371 58.8672 74.0672C59.041 74.2972 59.148 74.6005 59.1881 74.977C59.2149 75.2698 59.1881 75.5278 59.1079 75.7509C59.0344 75.974 58.9274 76.1657 58.787 76.326C58.6466 76.4794 58.4862 76.6014 58.3057 76.6921C58.1319 76.7827 57.9581 76.8454 57.7842 76.8803C57.9581 77.3195 58.1386 77.7657 58.3257 78.2189C58.5196 78.6721 58.7369 79.1008 58.9775 79.5052C59.0912 79.7004 59.2215 79.8851 59.3686 80.0594C59.5224 80.2337 59.7196 80.3523 59.9603 80.415V80.4673C59.9268 80.4882 59.8667 80.5091 59.7798 80.53C59.6928 80.551 59.5892 80.5684 59.4689 80.5823C59.3486 80.6032 59.2182 80.6172 59.0778 80.6242C58.9374 80.6311 58.8037 80.6276 58.6767 80.6137C58.4427 80.5928 58.2455 80.544 58.0851 80.4673C57.9246 80.3906 57.7842 80.293 57.6639 80.1745C57.5436 80.049 57.44 79.9061 57.353 79.7457C57.2661 79.5854 57.1826 79.4146 57.1024 79.2333C57.0622 79.1496 57.0054 79.0206 56.9319 78.8463C56.865 78.6651 56.7882 78.4594 56.7012 78.2293C56.6143 77.9993 56.5241 77.7518 56.4305 77.4868C56.3436 77.2219 56.26 76.9605 56.1798 76.7025C56.6745 76.6328 57.0489 76.4655 57.3029 76.2005C57.5569 75.9286 57.6606 75.5417 57.6138 75.0397C57.5937 74.7818 57.5235 74.5761 57.4032 74.4227C57.2895 74.2694 57.1492 74.1508 56.982 74.0672C56.8149 73.9835 56.6277 73.9312 56.4205 73.9103C56.2199 73.8894 56.0227 73.8824 55.8288 73.8894C55.8222 74.0079 55.8155 74.1683 55.8088 74.3704C55.8088 74.5726 55.8054 74.7922 55.7988 75.0293C55.7988 75.2663 55.7954 75.5069 55.7887 75.7509C55.7887 75.9949 55.7887 76.2145 55.7887 76.4097C55.7887 76.6049 55.7887 76.821 55.7887 77.0581C55.7887 77.2951 55.7921 77.5322 55.7988 77.7692C55.8054 78.0062 55.8121 78.2363 55.8188 78.4594C55.8322 78.6755 55.8456 78.8673 55.8589 79.0346Z" fill="#272727"/>
<path d="M53.1342 73.1567C53.1476 73.2264 53.1542 73.2961 53.1542 73.3658C53.1542 73.4286 53.1542 73.4948 53.1542 73.5645C53.1542 73.7667 53.1442 73.9968 53.1242 74.2547C53.1175 74.3942 53.1108 74.5196 53.1041 74.6312C53.1041 74.7358 53.1041 74.8508 53.1041 74.9763C53.1041 75.053 53.1041 75.1367 53.1041 75.2273C53.1041 75.3179 53.1074 75.419 53.1141 75.5306H53.074C52.9871 75.2238 52.8601 74.9728 52.693 74.7776C52.5325 74.5754 52.3453 74.4151 52.1314 74.2965C51.9242 74.178 51.7036 74.0944 51.4696 74.0456C51.2423 73.9968 51.0183 73.9724 50.7977 73.9724H50.2963C50.2897 74.07 50.283 74.2024 50.2763 74.3698C50.2763 74.5371 50.2729 74.7253 50.2663 74.9345C50.2663 75.1436 50.2629 75.3667 50.2562 75.6038C50.2562 75.8408 50.2562 76.0813 50.2562 76.3253C50.3298 76.3253 50.42 76.3253 50.527 76.3253C50.6406 76.3184 50.7342 76.3079 50.8078 76.294C50.9816 76.2661 51.1353 76.2138 51.269 76.1371C51.4027 76.0604 51.5197 75.9733 51.62 75.8757C51.7203 75.7711 51.8005 75.663 51.8607 75.5515C51.9208 75.433 51.9609 75.3214 51.981 75.2168H52.0111C52.0178 75.2726 52.0211 75.3249 52.0211 75.3737C52.0211 75.4225 52.0211 75.4748 52.0211 75.5306C52.0211 75.7188 52.0144 75.9175 52.0011 76.1267C51.9944 76.3288 51.9843 76.538 51.971 76.7541C51.9643 77.0469 51.9676 77.3084 51.981 77.5384C52.0011 77.7685 52.0211 77.9951 52.0412 78.2182H52.0011C51.9075 77.8835 51.7537 77.6291 51.5398 77.4548C51.3325 77.2735 51.0885 77.1655 50.8078 77.1306C50.7142 77.1236 50.6139 77.1201 50.5069 77.1201C50.4 77.1201 50.3164 77.1201 50.2562 77.1201C50.2562 77.3363 50.2596 77.5454 50.2663 77.7476C50.2796 77.9428 50.2897 78.1206 50.2963 78.2809C50.303 78.4762 50.3164 78.6818 50.3365 78.8979C50.3565 79.1141 50.3933 79.3232 50.4468 79.5254C50.5002 79.7276 50.5738 79.9089 50.6674 80.0692C50.7676 80.2296 50.898 80.3516 51.0584 80.4352V80.4666C50.898 80.4527 50.7108 80.4457 50.4969 80.4457C50.2897 80.4387 50.0791 80.4352 49.8652 80.4352H49.5743C49.3939 80.4422 49.19 80.4527 48.9627 80.4666C48.742 80.4736 48.5315 80.4771 48.3309 80.4771C48.2707 80.4771 48.2139 80.4771 48.1604 80.4771C48.107 80.4771 48.0535 80.4736 48 80.4666V80.4352C48.1471 80.3585 48.2674 80.2644 48.361 80.1529C48.4613 80.0344 48.5415 79.8879 48.6017 79.7136C48.6618 79.5394 48.7053 79.3372 48.732 79.1071C48.7588 78.8701 48.7755 78.5982 48.7822 78.2914C48.8022 77.636 48.8122 77.0156 48.8122 76.4299C48.8122 76.1371 48.8089 75.8582 48.8022 75.5933C48.7955 75.3214 48.7822 75.0634 48.7621 74.8194C48.7153 74.3454 48.6384 73.9828 48.5315 73.7318C48.4245 73.4808 48.2473 73.2996 48 73.188V73.1462C48.2139 73.1601 48.4512 73.1706 48.712 73.1776C48.9794 73.1845 49.2434 73.188 49.5042 73.188C49.7314 73.188 49.9487 73.188 50.156 73.188C50.3632 73.1811 50.547 73.1776 50.7075 73.1776C50.8144 73.1776 50.9415 73.1741 51.0885 73.1671C51.2356 73.1601 51.3894 73.1567 51.5498 73.1567C51.7102 73.1497 51.874 73.1462 52.0412 73.1462C52.2083 73.1392 52.3687 73.1357 52.5225 73.1357C52.6428 73.1357 52.7531 73.1392 52.8534 73.1462C52.9604 73.1462 53.054 73.1497 53.1342 73.1567Z" fill="#272727"/>
<defs>
<filter id="filter0_d_29_11632" x="0.225636" y="56.1702" width="133.501" height="65.6" filterUnits="userSpaceOnUse" color-interpolation-filters="sRGB">
<feFlood flood-opacity="0" result="BackgroundImageFix"/>
<feColorMatrix in="SourceAlpha" type="matrix" values="0 0 0 0 0 0 0 0 0 0 0 0 0 0 0 0 0 0 127 0" result="hardAlpha"/>
<feOffset dy="4"/>
<feGaussianBlur stdDeviation="15.9"/>
<feComposite in2="hardAlpha" operator="out"/>
<feColorMatrix type="matrix" values="0 0 0 0 0 0 0 0 0 0 0 0 0 0 0 0 0 0 0.25 0"/>
<feBlend mode="normal" in2="BackgroundImageFix" result="effect1_dropShadow_29_11632"/>
<feBlend mode="normal" in="SourceGraphic" in2="effect1_dropShadow_29_11632" result="shape"/>
</filter>
<linearGradient id="paint0_linear_29_11632" x1="66.9762" y1="14.9253" x2="66.9762" y2="43.798" gradientUnits="userSpaceOnUse">
<stop stop-color="#6DABE9"/>
<stop offset="1" stop-color="#064490"/>
</linearGradient>
<linearGradient id="paint1_linear_29_11632" x1="65.5106" y1="20.4392" x2="65.5106" y2="45.7027" gradientUnits="userSpaceOnUse">
<stop stop-color="#6DD8D8"/>
<stop offset="1" stop-color="#006DAF"/>
</linearGradient>
<linearGradient id="paint2_linear_29_11632" x1="66.9762" y1="14.9253" x2="66.9762" y2="43.798" gradientUnits="userSpaceOnUse">
<stop stop-color="#0862B8"/>
<stop offset="1" stop-color="#0058BC"/>
</linearGradient>
<linearGradient id="paint3_linear_29_11632" x1="66.9762" y1="17.7324" x2="66.9763" y2="43.7979" gradientUnits="userSpaceOnUse">
<stop stop-color="#EAFFFF"/>
<stop offset="1" stop-color="#27D1F5"/>
</linearGradient>
<linearGradient id="paint4_linear_29_11632" x1="66.9769" y1="3.375" x2="66.9769" y2="57.2715" gradientUnits="userSpaceOnUse">
<stop stop-color="#6DABE9"/>
<stop offset="1" stop-color="#064490"/>
</linearGradient>
<linearGradient id="paint5_linear_29_11632" x1="66.9769" y1="3.375" x2="66.9769" y2="57.2715" gradientUnits="userSpaceOnUse">
<stop stop-color="#0862B8"/>
<stop offset="1" stop-color="#0058BC"/>
</linearGradient>
<linearGradient id="paint6_linear_29_11632" x1="66.9769" y1="8.61494" x2="66.977" y2="57.2715" gradientUnits="userSpaceOnUse">
<stop stop-color="#EAFFFF"/>
<stop offset="1" stop-color="#27D1F5"/>
</linearGradient>
<linearGradient id="paint7_linear_29_11632" x1="67.4762" y1="57.2715" x2="67.4762" y2="68.8205" gradientUnits="userSpaceOnUse">
<stop stop-color="#6DABE9"/>
<stop offset="1" stop-color="#064490"/>
</linearGradient>
<linearGradient id="paint8_linear_29_11632" x1="67.4762" y1="57.2715" x2="67.4762" y2="68.8205" gradientUnits="userSpaceOnUse">
<stop stop-color="#0862B8"/>
<stop offset="1" stop-color="#0058BC"/>
</linearGradient>
<linearGradient id="paint9_linear_29_11632" x1="67.4571" y1="59.477" x2="67.4572" y2="69.5825" gradientUnits="userSpaceOnUse">
<stop stop-color="#6DD8D8"/>
<stop offset="1" stop-color="#006DAF"/>
</linearGradient>
<linearGradient id="paint10_linear_29_11632" x1="66.9762" y1="84.9702" x2="66.9762" y2="85.9702" gradientUnits="userSpaceOnUse">
<stop stop-color="#6DABE9"/>
<stop offset="1" stop-color="#064490"/>
</linearGradient>
<linearGradient id="paint11_linear_29_11632" x1="66.9771" y1="3.375" x2="66.9771" y2="57.2715" gradientUnits="userSpaceOnUse">
<stop stop-color="#6DABE9"/>
<stop offset="1" stop-color="#064490"/>
</linearGradient>
<linearGradient id="paint12_linear_29_11632" x1="65.9531" y1="13.6677" x2="65.9532" y2="60.8272" gradientUnits="userSpaceOnUse">
<stop stop-color="#6DD8D8"/>
<stop offset="1" stop-color="#006DAF"/>
</linearGradient>
<linearGradient id="paint13_linear_29_11632" x1="66.9771" y1="3.375" x2="66.9771" y2="57.2715" gradientUnits="userSpaceOnUse">
<stop stop-color="#0862B8"/>
<stop offset="1" stop-color="#0058BC"/>
</linearGradient>
<linearGradient id="paint14_linear_29_11632" x1="66.9771" y1="8.61494" x2="66.9771" y2="57.2715" gradientUnits="userSpaceOnUse">
<stop stop-color="#EAFFFF"/>
<stop offset="1" stop-color="#27D1F5"/>
</linearGradient>
</defs>
</svg>
