<svg width="158" height="130" viewBox="0 0 158 130" fill="none" xmlns="http://www.w3.org/2000/svg">
<path d="M93 63C97.3444 63 101.122 66.8 101.122 70.98C101.098 72.4533 100.691 73.8946 99.9423 75.161C99.1935 76.4274 98.1286 77.475 96.8533 78.2C98.7422 77.25 101.5 77.25 101.5 77.25C106.222 77.25 110 80.67 110 85.42C110 90.17 106.222 93.4 101.5 93.4C101.5 93.4 98.6667 93.4 94.8889 91.5C94.8889 91.5 94.3222 95.3 98.6667 101H87.3333C91.6778 95.3 91.1111 91.5 91.1111 91.5C87.3333 93.4 84.5 93.4 84.5 93.4C79.7778 93.4 76 90.17 76 85.42C76 80.67 79.7778 77.25 84.5 77.25C84.5 77.25 87.2578 77.25 89.1467 78.2C88.58 77.877 85.0478 75.863 84.8778 70.98C84.8778 66.8 88.6556 63 93 63Z" fill="#102D50"/>
<path d="M141 63C145.344 63 149.122 66.8 149.122 70.98C149.098 72.4533 148.691 73.8946 147.942 75.161C147.193 76.4274 146.129 77.475 144.853 78.2C146.742 77.25 149.5 77.25 149.5 77.25C154.222 77.25 158 80.67 158 85.42C158 90.17 154.222 93.4 149.5 93.4C149.5 93.4 146.667 93.4 142.889 91.5C142.889 91.5 142.322 95.3 146.667 101H135.333C139.678 95.3 139.111 91.5 139.111 91.5C135.333 93.4 132.5 93.4 132.5 93.4C127.778 93.4 124 90.17 124 85.42C124 80.67 127.778 77.25 132.5 77.25C132.5 77.25 135.258 77.25 137.147 78.2C136.58 77.877 133.048 75.863 132.878 70.98C132.878 66.8 136.656 63 141 63Z" fill="#102D50"/>
<path d="M41 63C45.3444 63 49.1222 66.8 49.1222 70.98C49.0978 72.4533 48.691 73.8946 47.9423 75.161C47.1935 76.4274 46.1286 77.475 44.8533 78.2C46.7422 77.25 49.5 77.25 49.5 77.25C54.2222 77.25 58 80.67 58 85.42C58 90.17 54.2222 93.4 49.5 93.4C49.5 93.4 46.6667 93.4 42.8889 91.5C42.8889 91.5 42.3222 95.3 46.6667 101H35.3333C39.6778 95.3 39.1111 91.5 39.1111 91.5C35.3333 93.4 32.5 93.4 32.5 93.4C27.7778 93.4 24 90.17 24 85.42C24 80.67 27.7778 77.25 32.5 77.25C32.5 77.25 35.2578 77.25 37.1467 78.2C36.58 77.877 33.0478 75.863 32.8778 70.98C32.8778 66.8 36.6556 63 41 63Z" fill="#102D50"/>
<path d="M93 0C87.375 9.5 78 13.3 78 22.8C78 26.6 81.75 30.4 85.5 30.4C87.375 30.4 89.25 30.4 91.125 28.5C91.125 28.5 91.725 32.3 87.375 38H98.625C94.875 32.3 94.875 28.5 94.875 28.5C96.75 30.4 98.625 30.4 100.5 30.4C104.25 30.4 108 26.6 108 22.8C108 13.3 98.625 9.5 93 0Z" fill="#102D50"/>
<path d="M141 0C135.375 9.5 126 13.3 126 22.8C126 26.6 129.75 30.4 133.5 30.4C135.375 30.4 137.25 30.4 139.125 28.5C139.125 28.5 139.725 32.3 135.375 38H146.625C142.875 32.3 142.875 28.5 142.875 28.5C144.75 30.4 146.625 30.4 148.5 30.4C152.25 30.4 156 26.6 156 22.8C156 13.3 146.625 9.5 141 0Z" fill="#102D50"/>
<path d="M41 0C35.375 9.5 26 13.3 26 22.8C26 26.6 29.75 30.4 33.5 30.4C35.375 30.4 37.25 30.4 39.125 28.5C39.125 28.5 39.725 32.3 35.375 38H46.625C42.875 32.3 42.875 28.5 42.875 28.5C44.75 30.4 46.625 30.4 48.5 30.4C52.25 30.4 56 26.6 56 22.8C56 13.3 46.625 9.5 41 0Z" fill="#102D50"/>
<path d="M68 73L65.39 70.6262C56.12 62.2278 50 56.6708 50 49.891C50 44.3341 54.356 40 59.9 40C63.032 40 66.038 41.4567 68 43.7406C69.962 41.4567 72.968 40 76.1 40C81.644 40 86 44.3341 86 49.891C86 56.6708 79.88 62.2278 70.61 70.6262L68 73Z" fill="#102D50"/>
<path d="M118 73L115.39 70.6262C106.12 62.2278 100 56.6708 100 49.891C100 44.3341 104.356 40 109.9 40C113.032 40 116.038 41.4567 118 43.7406C119.962 41.4567 122.968 40 126.1 40C131.644 40 136 44.3341 136 49.891C136 56.6708 129.88 62.2278 120.61 70.6262L118 73Z" fill="#102D50"/>
<path d="M18 73L15.39 70.6262C6.12 62.2278 0 56.6708 0 49.891C0 44.3341 4.356 40 9.9 40C13.032 40 16.038 41.4567 18 43.7406C19.962 41.4567 22.968 40 26.1 40C31.644 40 36 44.3341 36 49.891C36 56.6708 29.88 62.2278 20.61 70.6262L18 73Z" fill="#102D50"/>
<path d="M80 113L68 130L56 113L68 96" fill="#102D50"/>
<path d="M130 113L118 130L106 113L118 96" fill="#102D50"/>
<path d="M30 113L18 130L6 113L18 96" fill="#102D50"/>
</svg>
