<svg width="13" height="10" viewBox="0 0 13 10" fill="none" xmlns="http://www.w3.org/2000/svg">
<path d="M2.29005 0.37499L10.7101 0.37499C11.0425 0.374509 11.3682 0.468176 11.6496 0.645149C11.931 0.822123 12.1565 1.07517 12.3001 1.37499C12.4681 1.73073 12.5328 2.12652 12.4868 2.51726C12.4409 2.90799 12.2861 3.27796 12.0401 3.58499L7.83005 8.68499C7.66484 8.87562 7.46057 9.02851 7.2311 9.13329C7.00163 9.23807 6.75232 9.2923 6.50005 9.2923C6.24779 9.2923 5.99848 9.23807 5.76901 9.13329C5.53953 9.02851 5.33527 8.87562 5.17005 8.68499L0.960052 3.58499C0.714046 3.27796 0.559237 2.90799 0.513268 2.51726C0.467299 2.12652 0.532021 1.73073 0.700053 1.37499C0.843595 1.07517 1.06911 0.822123 1.3505 0.645149C1.63189 0.468176 1.95764 0.374509 2.29005 0.37499Z" fill="#5D8DBA"/>
</svg>
