<svg width="39" height="39" viewBox="0 0 39 39" fill="none" xmlns="http://www.w3.org/2000/svg">
<rect width="39" height="39" rx="10" fill="#1873F2"/>
<path d="M13.3751 22.125C11.4414 22.125 9.87512 23.6912 9.87512 25.625C9.87512 26.2812 10.0589 26.9025 10.3826 27.4275C10.9864 28.4425 12.0976 29.125 13.3751 29.125C14.6526 29.125 15.7639 28.4425 16.3676 27.4275C16.6914 26.9025 16.8751 26.2812 16.8751 25.625C16.8751 23.6912 15.3089 22.125 13.3751 22.125ZM14.6789 26.2637H14.0314V26.9462C14.0314 27.305 13.7339 27.6025 13.3751 27.6025C13.0164 27.6025 12.7189 27.305 12.7189 26.9462V26.2637H12.0714C11.7126 26.2637 11.4151 25.9662 11.4151 25.6075C11.4151 25.2487 11.7126 24.9512 12.0714 24.9512H12.7189V24.33C12.7189 23.9713 13.0164 23.6738 13.3751 23.6738C13.7339 23.6738 14.0314 23.9713 14.0314 24.33V24.9512H14.6789C15.0376 24.9512 15.3351 25.2487 15.3351 25.6075C15.3351 25.9662 15.0464 26.2637 14.6789 26.2637Z" fill="#F0F5FF"/>
<path d="M27.8124 19.9375H25.6249C24.6624 19.9375 23.8749 20.725 23.8749 21.6875C23.8749 22.65 24.6624 23.4375 25.6249 23.4375H27.8124C28.0574 23.4375 28.2499 23.245 28.2499 23V20.375C28.2499 20.13 28.0574 19.9375 27.8124 19.9375Z" fill="#F0F5FF"/>
<path d="M23.4638 13.725C23.7263 13.9787 23.5076 14.3725 23.1401 14.3725L15.8951 14.3637C15.4751 14.3637 15.2651 13.8562 15.5626 13.5587L17.0938 12.0187C18.3888 10.7325 20.4801 10.7325 21.7751 12.0187L23.4288 13.69C23.4376 13.6987 23.4551 13.7162 23.4638 13.725Z" fill="#F0F5FF"/>
<path d="M28.1362 25.3275C27.6024 27.13 26.0624 28.25 23.9624 28.25H18.2749C17.9337 28.25 17.7149 27.8738 17.8549 27.5588C18.1174 26.9463 18.2837 26.255 18.2837 25.625C18.2837 22.9738 16.1224 20.8125 13.4712 20.8125C12.8062 20.8125 12.1587 20.9525 11.5637 21.215C11.2399 21.355 10.8462 21.1363 10.8462 20.7863V19.5C10.8462 17.12 12.2812 15.4575 14.5124 15.1775C14.7312 15.1425 14.9674 15.125 15.2124 15.125H23.9624C24.1899 15.125 24.4087 15.1338 24.6187 15.1688C26.3862 15.37 27.6637 16.4463 28.1362 18.0475C28.2237 18.3363 28.0137 18.625 27.7162 18.625H25.7124C23.8137 18.625 22.3087 20.3575 22.7199 22.3263C23.0087 23.7613 24.3387 24.75 25.7999 24.75H27.7162C28.0224 24.75 28.2237 25.0475 28.1362 25.3275Z" fill="#F0F5FF"/>
</svg>
