<svg width="219" height="76" viewBox="0 0 219 76" fill="none" xmlns="http://www.w3.org/2000/svg">
<path d="M56.652 55.9977C50.6001 44.296 52.3946 23.7844 60.3866 13.3114L66.7618 13.8691L63.0273 56.5555L56.652 55.9977Z" fill="#1B2438"/>
<path d="M178.613 66.6679C186.605 56.1949 188.4 35.6833 182.348 23.9816L175.972 23.4238L172.238 66.1101L178.613 66.6679Z" fill="#1B2438"/>
<path d="M176.862 20.5128L175.455 17.7925L138.312 14.5429L129.346 13.7585L113.458 12.3684L104.492 11.584L67.3489 8.33442L65.4912 10.7691C60.6548 17.1069 57.9868 25.9799 57.2377 34.5424C56.4886 43.1049 57.5752 52.3064 61.2376 59.3878L62.6444 62.1081L99.787 65.3577L108.753 66.1421L124.642 67.5321L133.608 68.3166L170.75 71.5661L172.608 69.1315C177.445 62.7936 180.113 53.9206 180.862 45.3581C181.611 36.7956 180.524 27.5941 176.862 20.5128Z" fill="#273552"/>
<path d="M177.986 45.1064C177.271 53.2713 174.736 61.4684 170.404 67.1454L169.661 68.1191L65.216 58.9813L64.6539 57.8935C61.3733 51.5504 60.2998 43.0376 61.0142 34.8727C61.7285 26.7079 64.2639 18.5108 68.5961 12.8338L69.3386 11.8601L173.784 20.9979L174.346 22.0857C177.627 28.4288 178.7 36.9416 177.986 45.1064Z" fill="#1B2438"/>
<path fill-rule="evenodd" clip-rule="evenodd" d="M139.384 20.2227C131.392 30.6957 129.598 51.2073 135.649 62.909C143.641 52.436 145.436 31.9244 139.384 20.2227Z" fill="#202B42"/>
<path d="M139.384 20.2226C145.436 31.9243 143.642 52.4359 135.65 62.9089L168.634 65.7947C176.626 55.3217 178.421 34.8101 172.369 23.1084L139.384 20.2226Z" fill="#2D3D5E"/>
<mask id="mask0_2002_407" style="mask-type:alpha" maskUnits="userSpaceOnUse" x="135" y="20" width="41" height="46">
<path d="M139.384 20.2226C145.436 31.9243 143.642 52.4359 135.65 62.9089L168.634 65.7947C176.626 55.3217 178.421 34.8101 172.369 23.1084L139.384 20.2226Z" fill="#D9D9D9"/>
</mask>
<g mask="url(#mask0_2002_407)">
<path d="M166.531 38.1596L160.611 33.9485C160.202 33.6548 159.722 33.4781 159.222 33.4369C158.717 33.3918 158.21 33.4848 157.751 33.7062L157.766 33.7005L151.247 36.8233C150.986 36.9332 150.759 37.1116 150.589 37.3401C150.419 37.5687 150.312 37.839 150.28 38.1232L149.59 46.0005C149.528 46.7138 149.855 47.37 150.392 47.7525L150.4 47.7584L156.16 51.8514C156.547 52.1307 157.025 52.3172 157.548 52.363C158.073 52.409 158.575 52.3081 159.019 52.0938L159.006 52.0995L165.389 49.0689C165.7 48.9306 165.97 48.7103 166.17 48.4307C166.37 48.151 166.493 47.8224 166.526 47.4787L167.215 39.6065C167.236 39.3268 167.185 39.0465 167.066 38.7936C166.948 38.5406 166.766 38.3238 166.539 38.1646L166.531 38.1596ZM153.627 46.2809C153.156 46.3004 152.756 45.6065 152.738 44.738C152.721 43.8695 153.082 43.1555 153.552 43.1447C154.021 43.1337 154.422 43.819 154.441 44.6875C154.46 45.5561 154.105 46.2707 153.627 46.2809ZM158.734 39.7922C157.845 39.7144 157.159 39.2643 157.201 38.7911C157.242 38.3179 157.996 37.9937 158.885 38.0715C159.774 38.1493 160.46 38.5994 160.418 39.0726C160.377 39.5458 159.626 39.8356 158.737 39.7578L158.734 39.7922ZM159.009 36.6519C158.12 36.5742 157.433 36.1326 157.475 35.6508C157.518 35.1699 158.27 34.8535 159.16 34.9312C160.049 35.009 160.735 35.4592 160.693 35.9324C160.652 36.4055 159.901 36.6953 159.012 36.6175L159.009 36.6519ZM161.852 48.925C161.612 49.7181 161.07 50.2524 160.639 50.1106C160.207 49.9689 160.054 49.1925 160.299 48.4337C160.545 47.675 161.081 47.1064 161.513 47.2395C161.945 47.3727 162.103 48.0974 161.855 48.8906L161.852 48.925ZM162.235 44.5458C161.995 45.3389 161.453 45.8732 161.021 45.7401C160.589 45.6069 160.436 44.8219 160.682 44.0546C160.929 43.2863 161.464 42.7263 161.895 42.8681C162.327 43.0099 162.486 43.7174 162.238 44.5106L162.235 44.5458ZM165.108 47.398C164.868 48.1911 164.318 48.7247 163.886 48.5906C163.454 48.4566 163.309 47.6733 163.547 46.9052C163.785 46.1371 164.337 45.5785 164.769 45.7203C165.2 45.862 165.35 46.5861 165.11 47.38L165.108 47.398ZM165.491 43.0189C165.251 43.8128 164.701 44.3455 164.269 44.2123C163.837 44.0792 163.692 43.2949 163.929 42.5354C164.167 41.7759 164.72 41.2088 165.152 41.342C165.584 41.4751 165.733 42.2077 165.493 43.0016L165.491 43.0189Z" fill="#202D47"/>
</g>
<path d="M103.35 17.07C95.3584 27.5431 93.5639 48.0547 99.6159 59.7564C107.608 49.2834 109.402 28.7717 103.35 17.07Z" fill="#202B42"/>
<path fill-rule="evenodd" clip-rule="evenodd" d="M66.6309 56.8706C60.5789 45.1689 62.3734 24.6572 70.3655 14.1842L103.35 17.07C95.3583 27.543 93.5638 48.0547 99.6158 59.7564L66.6309 56.8706Z" fill="#2D3D5E"/>
<mask id="mask1_2002_407" style="mask-type:alpha" maskUnits="userSpaceOnUse" x="63" y="14" width="41" height="46">
<path fill-rule="evenodd" clip-rule="evenodd" d="M66.631 56.8705C60.579 45.1688 62.3736 24.6572 70.3656 14.1842L103.35 17.07C95.3585 27.543 93.5639 48.0546 99.6159 59.7563L66.631 56.8705Z" fill="#D9D9D9"/>
</mask>
<g mask="url(#mask1_2002_407)">
<path d="M89.8999 28.3759L72.9646 26.8943L75.4529 34.8307L77.1324 31.2235L87.1492 32.0999C87.9357 32.1687 88.2409 31.5171 88.4408 31.1954L89.8999 28.3759Z" fill="#202D47"/>
<path d="M82.2831 33.674L78.2523 33.3213L74.999 40.0186L76.5997 45.2811L79.4368 39.5297L83.1207 39.852C83.847 39.9156 84.4009 39.2623 84.6419 38.9326L86.077 36.0408L81.3243 35.625L82.2831 33.674Z" fill="#202D47"/>
</g>
<path d="M103.773 60.1202C97.7213 48.4185 99.5158 27.9069 107.508 17.4339L135.226 19.8589C141.278 31.5606 139.484 52.0722 131.492 62.5452L103.773 60.1202Z" fill="#2D3D5E"/>
<mask id="mask2_2002_407" style="mask-type:alpha" maskUnits="userSpaceOnUse" x="100" y="17" width="39" height="46">
<path d="M103.773 60.1202C97.7213 48.4185 99.5158 27.9069 107.508 17.4339L135.226 19.8589C141.278 31.5606 139.484 52.0722 131.492 62.5452L103.773 60.1202Z" fill="#D9D9D9"/>
</mask>
<g mask="url(#mask2_2002_407)">
<path d="M112.714 31.4976L112.145 37.9969L115.011 38.2476C115.341 34.4833 117.932 36.6066 120.907 36.8669C119.39 38.8085 114.777 40.9238 114.283 46.5703L120.451 47.11C121.133 39.3166 126.19 38.0996 126.661 32.7177L123.522 32.4431L123.442 33.3548C121.122 33.1519 119.743 30.6901 115.5 32.66L115.58 31.7483L112.714 31.4976Z" fill="#202D47"/>
</g>
<path d="M0 9.5C15.808 11.5 23.8133 6 28.3733 0C29.184 5.2 33.44 9.5 38 9.5C34.4533 15 21.7867 24 11.6533 24C4.05333 24 0.506667 16.5 0 9.5Z" fill="#192133"/>
<path d="M189.728 59.5228C201.242 62.8926 207.754 59.7071 211.763 55.739C211.821 59.7407 214.527 63.4733 217.909 64.012C214.704 67.7242 204.369 72.9879 196.854 71.7908C191.218 70.893 189.372 64.8406 189.728 59.5228Z" fill="#192133"/>
<path d="M203.333 27C192.667 24.2857 188.625 15.4643 188 8C191.778 10.7143 201.067 16.0071 208 15.4643C204.267 17.6357 203.333 24.0595 203.333 27Z" fill="#1B2438"/>
<path d="M41 65.3074C29.8 68.1434 19.3636 61.7623 13 55.3811C14.2727 55.3811 17.8364 54.1049 21.9091 49C25.9818 55.2393 36.3333 54.4358 41 53.2541C38.4545 55.5229 39.9394 62.235 41 65.3074Z" fill="#192133"/>
</svg>
