<svg width="119" height="88" viewBox="0 0 119 88" fill="none" xmlns="http://www.w3.org/2000/svg">
<path d="M119 58.8276L43.76 15L29.2223 39.8161L49.1316 35.225L93.6341 61.1479C97.128 63.1831 100.733 62.3581 102.746 62.068L119 58.8276Z" fill="url(#paint0_linear_1_553)"/>
<path d="M65.3838 53.3157L49.1316 43.8487L47.4759 42.8842L29.2223 46.8663L9.87255 51.0874L0 67.4253L32.4971 60.484L48.8637 70.0176C52.0908 71.8974 56.3 72.0841 59.112 71.4485L75.4923 67.9789L65.3838 62.0906L54.377 55.6792L55.8527 55.3623L65.3838 53.3157Z" fill="url(#paint1_linear_1_553)"/>
<path d="M0 83.6475L32.4971 76.7062V60.484L0 67.4253V75.5364V83.6475Z" fill="url(#paint2_linear_1_553)"/>
<path d="M32.4971 76.7062L48.8637 86.2398V70.0176L32.4971 60.484V76.7062Z" fill="url(#paint3_linear_1_553)"/>
<path d="M48.8637 86.2398C52.0908 88.1196 56.3 88.3063 59.112 87.6707V71.4485C56.3 72.0841 52.0908 71.8974 48.8637 70.0176V86.2398Z" fill="url(#paint4_linear_1_553)"/>
<path d="M59.112 87.6707L75.4923 84.2011V67.9789L59.112 71.4485V87.6707Z" fill="url(#paint5_linear_1_553)"/>
<path d="M93.6341 77.3701C97.128 79.4053 100.733 78.5804 102.746 78.2902V62.068C100.733 62.3581 97.128 63.1831 93.6341 61.1479V77.3701Z" fill="url(#paint6_linear_1_553)"/>
<path d="M102.746 78.2902L119 75.0498V58.8276L102.746 62.068V78.2902Z" fill="url(#paint7_linear_1_553)"/>
<path d="M65.3838 53.3157L55.8527 55.3623L54.377 55.6792L65.3838 62.0906V60.9142V53.3157Z" fill="url(#paint8_linear_1_553)"/>
<path d="M49.1316 35.225L29.2223 39.8161V46.8663L47.4759 42.8842L49.1316 43.8487V35.225Z" fill="url(#paint9_linear_1_553)"/>
<path d="M93.6341 61.1479L49.1316 35.225V43.8487L65.3838 53.3157V60.9142L93.6341 77.3701V61.1479Z" fill="url(#paint10_linear_1_553)"/>
<path d="M119 43.8276L43.76 0L29.2223 24.8161L49.1316 20.225L93.6341 46.1479C97.128 48.1831 100.733 47.3581 102.746 47.068L119 43.8276Z" fill="#34476B"/>
<path d="M65.3838 38.3157L49.1316 28.8487L47.4759 27.8842L29.2223 31.8663L9.87255 36.0874L0 52.4253L32.4971 45.484L48.8637 55.0176C52.0908 56.8974 56.3 57.0841 59.112 56.4485L75.4923 52.9789L65.3838 47.0906L54.377 40.6792L55.8527 40.3623L65.3838 38.3157Z" fill="#34476B"/>
<path d="M0 68.6475L32.4971 61.7062V45.484L0 52.4253V60.5364V68.6475Z" fill="#19253B"/>
<path d="M32.4971 61.7062L48.8637 71.2398V55.0176L32.4971 45.484V61.7062Z" fill="#1B2942"/>
<path d="M48.8637 71.2398C52.0908 73.1196 56.3 73.3063 59.112 72.6707V56.4485C56.3 57.0841 52.0908 56.8974 48.8637 55.0176V71.2398Z" fill="#1D2C47"/>
<path d="M59.112 72.6707L75.4923 69.2011V52.9789L59.112 56.4485V72.6707Z" fill="#1B2942"/>
<path d="M93.6341 62.3701C97.128 64.4053 100.733 63.5804 102.746 63.2902V47.068C100.733 47.3581 97.128 48.1831 93.6341 46.1479V62.3701Z" fill="#1D2C47"/>
<path d="M102.746 63.2902L119 60.0498V43.8276L102.746 47.068V63.2902Z" fill="#1B2942"/>
<path d="M65.3838 38.3157L55.8527 40.3623L54.377 40.6792L65.3838 47.0906V45.9142V38.3157Z" fill="#19253B"/>
<path d="M49.1316 20.225L29.2223 24.8161V31.8663L47.4759 27.8842L49.1316 28.8487V20.225Z" fill="#19253B"/>
<path d="M93.6341 46.1479L49.1316 20.225V28.8487L65.3838 38.3157V45.9142L93.6341 62.3701V46.1479Z" fill="#1B2942"/>
<defs>
<linearGradient id="paint0_linear_1_553" x1="59.5" y1="15" x2="59.5" y2="88" gradientUnits="userSpaceOnUse">
<stop/>
<stop offset="1" stop-opacity="0"/>
</linearGradient>
<linearGradient id="paint1_linear_1_553" x1="59.5" y1="15" x2="59.5" y2="88" gradientUnits="userSpaceOnUse">
<stop/>
<stop offset="1" stop-opacity="0"/>
</linearGradient>
<linearGradient id="paint2_linear_1_553" x1="59.5" y1="15" x2="59.5" y2="88" gradientUnits="userSpaceOnUse">
<stop/>
<stop offset="1" stop-opacity="0"/>
</linearGradient>
<linearGradient id="paint3_linear_1_553" x1="59.5" y1="15" x2="59.5" y2="88" gradientUnits="userSpaceOnUse">
<stop/>
<stop offset="1" stop-opacity="0"/>
</linearGradient>
<linearGradient id="paint4_linear_1_553" x1="59.5" y1="15" x2="59.5" y2="88" gradientUnits="userSpaceOnUse">
<stop/>
<stop offset="1" stop-opacity="0"/>
</linearGradient>
<linearGradient id="paint5_linear_1_553" x1="59.5" y1="15" x2="59.5" y2="88" gradientUnits="userSpaceOnUse">
<stop/>
<stop offset="1" stop-opacity="0"/>
</linearGradient>
<linearGradient id="paint6_linear_1_553" x1="59.5" y1="15" x2="59.5" y2="88" gradientUnits="userSpaceOnUse">
<stop/>
<stop offset="1" stop-opacity="0"/>
</linearGradient>
<linearGradient id="paint7_linear_1_553" x1="59.5" y1="15" x2="59.5" y2="88" gradientUnits="userSpaceOnUse">
<stop/>
<stop offset="1" stop-opacity="0"/>
</linearGradient>
<linearGradient id="paint8_linear_1_553" x1="59.5" y1="15" x2="59.5" y2="88" gradientUnits="userSpaceOnUse">
<stop/>
<stop offset="1" stop-opacity="0"/>
</linearGradient>
<linearGradient id="paint9_linear_1_553" x1="59.5" y1="15" x2="59.5" y2="88" gradientUnits="userSpaceOnUse">
<stop/>
<stop offset="1" stop-opacity="0"/>
</linearGradient>
<linearGradient id="paint10_linear_1_553" x1="59.5" y1="15" x2="59.5" y2="88" gradientUnits="userSpaceOnUse">
<stop/>
<stop offset="1" stop-opacity="0"/>
</linearGradient>
</defs>
</svg>
