<svg width="21" height="18" viewBox="0 0 21 18" fill="none" xmlns="http://www.w3.org/2000/svg">
<path fill-rule="evenodd" clip-rule="evenodd" d="M18.277 0.827426C18.5241 0.723417 18.7946 0.687545 19.0603 0.723543C19.326 0.759541 19.5772 0.866094 19.7877 1.03211C19.9982 1.19813 20.1604 1.41754 20.2574 1.66751C20.3543 1.91748 20.3825 2.18887 20.339 2.45343L18.071 16.2104C17.851 17.5374 16.395 18.2984 15.178 17.6374C14.16 17.0844 12.648 16.2324 11.288 15.3434C10.608 14.8984 8.52502 13.4734 8.78102 12.4594C9.00102 11.5924 12.501 8.33443 14.501 6.39743C15.286 5.63643 14.928 5.19743 14.001 5.89743C11.699 7.63543 8.00302 10.2784 6.78102 11.0224C5.70302 11.6784 5.14102 11.7904 4.46902 11.6784C3.24302 11.4744 2.10602 11.1584 1.17802 10.7734C-0.0759802 10.2534 -0.0149803 8.52943 1.17702 8.02743L18.277 0.827426Z" fill="white"/>
</svg>
