<svg width="19" height="19" viewBox="0 0 19 19" fill="none" xmlns="http://www.w3.org/2000/svg">
<path fill-rule="evenodd" clip-rule="evenodd" d="M1.98893 8.58866C6.66417 6.55172 9.78173 5.20884 11.3416 4.56003C15.7954 2.70754 16.7208 2.38574 17.324 2.37511C17.4567 2.37278 17.7533 2.40566 17.9455 2.56157C18.1077 2.69322 18.1524 2.87107 18.1737 2.99589C18.1951 3.12071 18.2217 3.40506 18.2006 3.62723C17.9592 6.16315 16.9149 12.3172 16.3836 15.1574C16.1588 16.3593 15.7161 16.7622 15.2876 16.8017C14.3562 16.8874 13.649 16.1862 12.747 15.5949C11.3355 14.6696 10.5381 14.0936 9.16799 13.1907C7.58459 12.1473 8.61104 11.5738 9.51341 10.6365C9.74957 10.3913 13.853 6.65884 13.9324 6.32025C13.9424 6.27791 13.9516 6.12006 13.8578 6.03671C13.764 5.95336 13.6256 5.98186 13.5258 6.00453C13.3842 6.03666 11.1293 7.52708 6.76107 10.4758C6.12103 10.9153 5.54129 11.1294 5.02187 11.1182C4.44925 11.1058 3.34776 10.7944 2.52892 10.5283C1.52457 10.2018 0.726337 10.0292 0.795845 9.47471C0.83205 9.18592 1.22974 8.89057 1.98893 8.58866Z" fill="url(#paint0_linear_52_106)"/>
<defs>
<linearGradient id="paint0_linear_52_106" x1="871.625" y1="2.375" x2="871.625" y2="1435.05" gradientUnits="userSpaceOnUse">
<stop stop-color="#2AABEE"/>
<stop offset="1" stop-color="#229ED9"/>
</linearGradient>
</defs>
</svg>
