<svg width="12" height="9" viewBox="0 0 12 9" fill="none" xmlns="http://www.w3.org/2000/svg">
<path d="M1.79005 -9.53674e-06L10.2101 -9.53674e-06C10.5425 -0.000491142 10.8682 0.0931759 11.1496 0.270149C11.431 0.447123 11.6565 0.700166 11.8001 0.99999C11.9681 1.35573 12.0328 1.75152 11.9868 2.14226C11.9409 2.53299 11.7861 2.90296 11.5401 3.20999L7.33005 8.30999C7.16484 8.50062 6.96057 8.65351 6.7311 8.75829C6.50163 8.86307 6.25232 8.9173 6.00005 8.9173C5.74779 8.9173 5.49848 8.86307 5.26901 8.75829C5.03953 8.65351 4.83527 8.50062 4.67005 8.30999L0.460052 3.20999C0.214046 2.90296 0.0592375 2.53299 0.0132685 2.14226C-0.0327005 1.75152 0.0320206 1.35573 0.200053 0.99999C0.343595 0.700166 0.569112 0.447123 0.850499 0.270149C1.13189 0.0931759 1.45764 -0.000491142 1.79005 -9.53674e-06Z" fill="#5D8DBA"/>
</svg>
