<svg width="44" height="44" viewBox="0 0 44 44" fill="none" xmlns="http://www.w3.org/2000/svg">
<rect width="44" height="44" rx="22" fill="#00112C"/>
<rect width="44" height="44" rx="22" fill="url(#paint0_linear_19_9594)"/>
<rect width="44" height="44" rx="22" fill="url(#paint1_linear_19_9594)"/>
<rect x="0.5" y="0.5" width="43" height="43" rx="21.5" stroke="url(#paint2_linear_19_9594)" stroke-opacity="0.2"/>
<path d="M22 12C22.1857 12.0001 22.3676 12.0543 22.5255 12.1566C22.6834 12.2589 22.811 12.4052 22.894 12.5791L25.4739 17.9803L31.1437 18.8432C31.3284 18.8713 31.5019 18.9529 31.6446 19.0789C31.7873 19.2049 31.8935 19.3702 31.9511 19.5561C32.0088 19.742 32.0156 19.941 31.9708 20.1308C31.926 20.3205 31.8314 20.4933 31.6977 20.6297L27.5708 24.8434L28.4988 30.785C28.5286 30.9774 28.5066 31.1746 28.4352 31.3546C28.3638 31.5345 28.2459 31.69 28.0947 31.8036C27.9435 31.9172 27.7651 31.9844 27.5794 31.9976C27.3938 32.0108 27.2083 31.9695 27.0439 31.8783L22 29.0761L16.9561 31.8783C16.7917 31.9695 16.6062 32.0108 16.4206 31.9976C16.2349 31.9844 16.0565 31.9172 15.9053 31.8036C15.7541 31.69 15.6362 31.5345 15.5648 31.3546C15.4934 31.1746 15.4714 30.9774 15.5012 30.785L16.4292 24.8434L12.3023 20.6297C12.1686 20.4933 12.074 20.3205 12.0292 20.1308C11.9844 19.941 11.9912 19.742 12.0489 19.5561C12.1065 19.3702 12.2127 19.2049 12.3554 19.0789C12.4981 18.9529 12.6716 18.8713 12.8563 18.8432L18.5261 17.9803L21.106 12.5791C21.189 12.4052 21.3166 12.2589 21.4745 12.1566C21.6324 12.0543 21.8143 12.0001 22 12ZM22 15.3886L20.0821 19.4055C20.0101 19.5566 19.9043 19.6872 19.7737 19.7862C19.6431 19.8852 19.4916 19.9497 19.3321 19.9741L15.1482 20.6108L18.1981 23.724C18.3134 23.8416 18.3998 23.9866 18.4501 24.1467C18.5004 24.3067 18.5131 24.4771 18.4871 24.6434L17.8001 29.0384L21.531 26.965C21.6754 26.8847 21.8365 26.8427 22 26.8427C22.1635 26.8427 22.3246 26.8847 22.469 26.965L26.1999 29.0384L25.5129 24.6434C25.487 24.4773 25.4998 24.3071 25.5501 24.1472C25.6004 23.9874 25.6868 23.8426 25.8019 23.7251L28.8518 20.6108L24.6689 19.9741C24.5094 19.9497 24.3579 19.8852 24.2273 19.7862C24.0967 19.6872 23.9909 19.5566 23.9189 19.4055L22 15.3886Z" fill="white"/>
<defs>
<linearGradient id="paint0_linear_19_9594" x1="22" y1="0" x2="22" y2="44" gradientUnits="userSpaceOnUse">
<stop stop-color="#045EBA"/>
<stop offset="1" stop-color="#0571CF"/>
</linearGradient>
<linearGradient id="paint1_linear_19_9594" x1="21.1624" y1="8.40278" x2="21.1625" y2="46.9028" gradientUnits="userSpaceOnUse">
<stop stop-color="#6DD8D8"/>
<stop offset="1" stop-color="#006DAF"/>
</linearGradient>
<linearGradient id="paint2_linear_19_9594" x1="22" y1="0" x2="22" y2="44" gradientUnits="userSpaceOnUse">
<stop stop-color="white"/>
<stop offset="1" stop-color="white" stop-opacity="0.1"/>
</linearGradient>
</defs>
</svg>
