<svg width="21" height="19" viewBox="0 0 21 19" fill="none" xmlns="http://www.w3.org/2000/svg">
<path d="M1.97369 8.52632C1.97369 9.40926 1.97369 9.85074 2.11769 10.1984C2.21292 10.4285 2.35254 10.6375 2.52859 10.8135C2.70464 10.9896 2.91365 11.1292 3.14369 11.2244C3.49138 11.3684 3.93285 11.3684 4.8158 11.3684H5.45527C6.00569 11.3684 6.28138 11.3684 6.50117 11.4954C6.5566 11.5273 6.60865 11.5647 6.65654 11.6072C6.84601 11.7758 6.93317 12.0363 7.10748 12.5593L7.2259 12.9155C7.43432 13.5407 7.53854 13.8534 7.78675 14.0315C8.03496 14.2105 8.36464 14.2105 9.02401 14.2105H11.977C12.6354 14.2105 12.9651 14.2105 13.2133 14.0315C13.4615 13.8524 13.5657 13.5407 13.7741 12.9155L13.8925 12.5593C14.0669 12.0363 14.154 11.7758 14.3435 11.6072C14.3914 11.5647 14.4434 11.5273 14.4989 11.4954C14.7186 11.3684 14.9943 11.3684 15.5447 11.3684H16.1842C17.0672 11.3684 17.5086 11.3684 17.8563 11.2244C18.0864 11.1292 18.2954 10.9896 18.4714 10.8135C18.6475 10.6375 18.7871 10.4285 18.8823 10.1984C19.0263 9.85074 19.0263 9.40926 19.0263 8.52632M6.71054 6.63158L10.5 9.47368M10.5 9.47368L14.2895 6.63158M10.5 9.47368V0" stroke="#5D8DBA" stroke-width="2"/>
<path d="M14.2895 2.8421H15.2369C17.0236 2.8421 17.916 2.8421 18.4712 3.39726C19.0263 3.95242 19.0263 4.84484 19.0263 6.63158V14.2105C19.0263 15.9973 19.0263 16.8897 18.4712 17.4448C17.916 18 17.0236 18 15.2369 18H5.76317C3.97643 18 3.08401 18 2.52885 17.4448C1.97369 16.8897 1.97369 15.9973 1.97369 14.2105V6.63158C1.97369 4.84484 1.97369 3.95242 2.52885 3.39726C3.08401 2.8421 3.97643 2.8421 5.76317 2.8421H6.71054" stroke="#5D8DBA" stroke-width="2"/>
</svg>
