<svg width="44" height="44" viewBox="0 0 44 44" fill="none" xmlns="http://www.w3.org/2000/svg">
<rect width="44" height="44" rx="20" fill="#00112C"/>
<rect width="44" height="44" rx="20" fill="url(#paint0_linear_19_9656)"/>
<rect width="44" height="44" rx="20" fill="url(#paint1_linear_19_9656)"/>
<rect x="0.75" y="0.75" width="42.5" height="42.5" rx="19.25" stroke="url(#paint2_linear_19_9656)" stroke-opacity="0.2" stroke-width="1.5"/>
<path d="M28.325 23.9748C26 23.9748 24.05 25.7246 23.55 28.0533C22.3625 27.5139 21.275 27.6586 20.45 28.0402C19.9375 25.6983 17.9875 23.9748 15.675 23.9748C12.9625 23.9748 10.75 26.3298 10.75 29.2374C10.75 32.145 12.9625 34.5 15.675 34.5C18.25 34.5 20.35 32.3687 20.55 29.6584C20.975 29.3427 22.0875 28.7506 23.45 29.6847C23.675 32.3818 25.75 34.5 28.325 34.5C31.0375 34.5 33.25 32.145 33.25 29.2374C33.25 26.3298 31.0375 23.9748 28.325 23.9748ZM15.675 33.0002C13.725 33.0002 12.1625 31.3161 12.1625 29.2374C12.1625 27.1587 13.7375 25.4747 15.675 25.4747C17.625 25.4747 19.1875 27.1587 19.1875 29.2374C19.1875 31.3161 17.625 33.0002 15.675 33.0002ZM28.325 33.0002C26.375 33.0002 24.8125 31.3161 24.8125 29.2374C24.8125 27.1587 26.375 25.4747 28.325 25.4747C30.275 25.4747 31.85 27.1587 31.85 29.2374C31.85 31.3161 30.2625 33.0002 28.325 33.0002ZM34.5 20.6857H9.5V22.6592H34.5V20.6857ZM26.4125 10.3316C26.1375 9.68691 25.4375 9.34484 24.775 9.5685L22 10.5421L19.2125 9.5685L19.15 9.55535C18.4875 9.358 17.7875 9.72638 17.5375 10.3974L14.5 18.7122H29.5L26.45 10.3974L26.4125 10.3316Z" fill="white"/>
<defs>
<linearGradient id="paint0_linear_19_9656" x1="22" y1="0" x2="22" y2="44" gradientUnits="userSpaceOnUse">
<stop stop-color="#045EBA"/>
<stop offset="1" stop-color="#0571CF"/>
</linearGradient>
<linearGradient id="paint1_linear_19_9656" x1="21.1624" y1="8.40278" x2="21.1625" y2="46.9028" gradientUnits="userSpaceOnUse">
<stop stop-color="#6DD8D8"/>
<stop offset="1" stop-color="#006DAF"/>
</linearGradient>
<linearGradient id="paint2_linear_19_9656" x1="22" y1="0" x2="22" y2="44" gradientUnits="userSpaceOnUse">
<stop stop-color="white"/>
<stop offset="1" stop-color="white" stop-opacity="0.1"/>
</linearGradient>
</defs>
</svg>
