<svg width="94" height="23" viewBox="0 0 94 23" fill="none" xmlns="http://www.w3.org/2000/svg">
<path d="M25 0.5H0L4.66252 9.89806L6.66075 5.32718H21.4476C22.6085 5.32718 22.9722 4.50129 23.2238 4.08835L25 0.5Z" fill="#F0F5FF"/>
<path d="M14.5204 7.76214H8.57016L4.66252 16.2631L7.68206 22.5L11.1012 15.1951H16.5394C17.6116 15.1951 18.3393 14.3408 18.6501 13.9136L20.3819 10.2398H13.3659L14.5204 7.76214Z" fill="#F0F5FF"/>
<path d="M36.3 19V4.5H46.86V6.82H39.16V10.42H46.44V12.74H39.16V19H36.3ZM54.0555 8.3V10.9C53.6555 10.84 53.3155 10.84 52.9155 10.84C51.5555 10.84 50.6555 11.34 50.6555 13.36V19H47.8955V8.24H50.6155V10.12C51.2355 8.78 52.1955 8.26 53.4555 8.26C53.6355 8.26 53.8755 8.28 54.0555 8.3ZM59.9536 10.16C58.4336 10.16 57.3536 11.38 57.3536 13.64C57.3536 15.9 58.4336 17.1 59.9536 17.1C61.4736 17.1 62.5536 15.9 62.5536 13.64C62.5536 11.38 61.4736 10.16 59.9536 10.16ZM59.9536 19.26C57.2336 19.26 54.5536 17.4 54.5536 13.64C54.5536 9.86 57.2336 8 59.9536 8C62.6736 8 65.3536 9.86 65.3536 13.64C65.3536 17.4 62.6736 19.26 59.9536 19.26ZM75.6277 11.48H73.0477C72.8277 10.58 72.0277 9.94 70.7477 9.94C69.7277 9.94 69.0077 10.32 69.0077 10.98C69.0077 11.56 69.4277 12 70.4477 12.22L71.8877 12.54C74.0277 13.02 75.8477 13.56 75.8477 15.78C75.8477 17.94 73.6277 19.26 71.1877 19.26C68.5477 19.26 66.5477 17.9 66.2877 15.44H68.9477C69.1077 16.48 69.8277 17.26 71.2677 17.26C72.4677 17.26 73.2077 16.82 73.2077 16.04C73.2077 15.24 72.3877 14.94 71.4477 14.72L69.8477 14.38C67.8277 13.96 66.4877 13.12 66.4877 11.16C66.4877 9.24 68.5677 7.96 70.8877 7.96C73.1277 7.96 75.2477 9 75.6277 11.48ZM77.8903 8.24V5.32H80.6503V8.24H82.8903V10.14H80.6503V15.7C80.6503 16.8 81.0303 17.02 82.0103 17.02H82.8503V19H80.8303C78.3503 19 77.8903 18.24 77.8903 16.1V10.14H76.3703V8.24H77.8903ZM85.5388 22.5H84.3788V20.38H85.4188C86.3388 20.38 86.7388 20.4 87.2188 19.26L87.3388 18.96L83.2188 8.24H86.2388L88.6788 16L91.1788 8.24H93.9788L90.0388 18.68C88.7588 22.02 88.2188 22.5 85.5388 22.5Z" fill="#F0F5FF"/>
</svg>
