<svg width="139" height="53" viewBox="0 0 139 53" fill="none" xmlns="http://www.w3.org/2000/svg">
<mask id="path-1-inside-1_32_6904" fill="white">
<path d="M19.8237 0.577038C19.8753 0.833501 19.9011 1.08996 19.9011 1.34642C19.9011 1.57724 19.9011 1.82088 19.9011 2.07734C19.9011 2.82108 19.8624 3.6674 19.7849 4.61631C19.7591 5.12923 19.7333 5.59086 19.7075 6.0012C19.7075 6.38589 19.7075 6.80905 19.7075 7.27069C19.7075 7.55279 19.7075 7.86055 19.7075 8.19395C19.7075 8.52735 19.7204 8.89922 19.7462 9.30956H19.5913C19.2558 8.18112 18.7654 7.25786 18.1201 6.53977C17.5006 5.79603 16.7778 5.20617 15.9518 4.77019C15.1517 4.3342 14.2999 4.02645 13.3965 3.84692C12.5188 3.6674 11.6541 3.57764 10.8023 3.57764H8.86644C8.84063 3.93669 8.81482 4.42396 8.789 5.03947C8.789 5.65498 8.7761 6.34742 8.75028 7.11681C8.75028 7.88619 8.73738 8.70687 8.71157 9.57884C8.71157 10.4508 8.71157 11.3356 8.71157 12.2332C8.9955 12.2332 9.34396 12.2332 9.75696 12.2332C10.1958 12.2076 10.5571 12.1691 10.8411 12.1178C11.5122 12.0152 12.1059 11.8229 12.6221 11.5408C13.1383 11.2587 13.59 10.9381 13.9772 10.579C14.3644 10.1943 14.6742 9.79683 14.9065 9.38649C15.1388 8.95051 15.2936 8.54017 15.3711 8.15548H15.4872C15.513 8.36065 15.5259 8.55299 15.5259 8.73252C15.5259 8.91204 15.5259 9.10439 15.5259 9.30956C15.5259 10.002 15.5001 10.7329 15.4485 11.5023C15.4227 12.246 15.384 13.0154 15.3324 13.8105C15.3065 14.8876 15.3195 15.8493 15.3711 16.6957C15.4485 17.542 15.5259 18.3755 15.6034 19.1961H15.4485C15.0871 17.9651 14.4935 17.029 13.6675 16.3879C12.8673 15.7211 11.9252 15.3236 10.8411 15.1953C10.4797 15.1697 10.0925 15.1569 9.67952 15.1569C9.26653 15.1569 8.94388 15.1569 8.71157 15.1569C8.71157 15.9519 8.72447 16.7213 8.75028 17.465C8.80191 18.1831 8.84063 18.8371 8.86644 19.427C8.89225 20.1451 8.94388 20.9016 9.02131 21.6967C9.09875 22.4917 9.24071 23.2611 9.44721 24.0048C9.65371 24.7485 9.93764 25.4153 10.299 26.0052C10.6862 26.5951 11.1895 27.0439 11.809 27.3516V27.467C11.1895 27.4157 10.4668 27.3901 9.6408 27.3901C8.84063 27.3645 8.02755 27.3516 7.20156 27.3516H6.07874C5.38181 27.3773 4.59454 27.4157 3.71694 27.467C2.86514 27.4927 2.05206 27.5055 1.2777 27.5055C1.04539 27.5055 0.825986 27.5055 0.619489 27.5055C0.412993 27.5055 0.206496 27.4927 0 27.467V27.3516C0.567865 27.0695 1.03248 26.7233 1.39385 26.313C1.78103 25.877 2.09078 25.3384 2.32308 24.6973C2.55539 24.0561 2.72317 23.3124 2.82642 22.466C2.92967 21.5941 2.9942 20.5939 3.02001 19.4654C3.09745 17.0547 3.13616 14.7722 3.13616 12.6179C3.13616 11.5408 3.12326 10.5149 3.09745 9.54037C3.07163 8.54017 3.02001 7.59126 2.94257 6.69365C2.76189 4.94971 2.46505 3.61611 2.05206 2.69285C1.63907 1.76959 0.955046 1.10279 0 0.692446V0.538569C0.825986 0.589862 1.74231 0.628332 2.74898 0.653978C3.78147 0.679624 4.80104 0.692446 5.80771 0.692446C6.68532 0.692446 7.52421 0.692446 8.32439 0.692446C9.12456 0.666801 9.83439 0.653978 10.4539 0.653978C10.8669 0.653978 11.3573 0.641155 11.9252 0.615509C12.493 0.589862 13.0867 0.577038 13.7062 0.577038C14.3257 0.551392 14.9581 0.538569 15.6034 0.538569C16.2487 0.512923 16.8682 0.5001 17.4619 0.5001C17.9265 0.5001 18.3524 0.512923 18.7395 0.538569C19.1525 0.538569 19.5139 0.551392 19.8237 0.577038Z"/>
<path d="M30.3438 22.1968C30.4728 23.4021 30.7568 24.4921 31.1956 25.4666C31.6344 26.4155 32.2668 27.031 33.0928 27.3132V27.467C32.2926 27.4157 31.3892 27.3901 30.3825 27.3901C29.3758 27.3901 28.4079 27.3901 27.4786 27.3901C26.7301 27.3901 25.9428 27.4157 25.1168 27.467C24.2909 27.4927 23.4649 27.5055 22.6389 27.5055C22.4324 27.5055 22.2259 27.4927 22.0194 27.467C21.8387 27.467 21.6451 27.467 21.4386 27.467V27.3132C22.4195 26.7233 23.1293 25.8513 23.5681 24.6973C24.0069 23.5432 24.2779 22.0172 24.3812 20.1194C24.4328 19.3757 24.4586 18.5165 24.4586 17.542C24.4844 16.5418 24.4974 15.5159 24.4974 14.4644C24.4974 13.6694 24.4844 12.8744 24.4586 12.0793C24.4586 11.2843 24.4457 10.5406 24.4199 9.84812C24.4199 9.13003 24.407 8.48888 24.3812 7.92466C24.3554 7.3348 24.3296 6.86035 24.3038 6.5013C24.1489 4.96253 23.8779 3.70587 23.4907 2.73132C23.1035 1.73112 22.4195 1.02585 21.4386 0.615509V0.5001C22.5485 0.57704 23.7746 0.615509 25.1168 0.615509H26.4333C27.1818 0.589862 27.9691 0.564215 28.7951 0.538569C29.6469 0.487278 30.5632 0.461632 31.544 0.461632C31.9312 0.461632 32.3184 0.474455 32.7056 0.5001C33.1186 0.5001 33.5445 0.512923 33.9833 0.538569C34.8093 0.589862 35.7256 0.718093 36.7323 0.923261C37.7389 1.10278 38.694 1.43619 39.5974 1.92346C40.5008 2.41074 41.2881 3.07754 41.9592 3.92386C42.6303 4.77018 43.0433 5.88579 43.1982 7.27069C43.3014 8.34783 43.1982 9.29673 42.8884 10.1174C42.6045 10.9381 42.1915 11.6434 41.6495 12.2332C41.1074 12.7974 40.4879 13.2462 39.791 13.5796C39.1199 13.913 38.4488 14.1439 37.7776 14.2721C38.4488 15.8878 39.1457 17.5292 39.8684 19.1961C40.617 20.8632 41.4559 22.4404 42.3851 23.9279C42.8239 24.646 43.3272 25.3256 43.8951 25.9667C44.4888 26.6079 45.2502 27.0439 46.1795 27.2747V27.467C46.0504 27.544 45.8181 27.6209 45.4825 27.6979C45.147 27.7748 44.7469 27.8389 44.2823 27.8902C43.8177 27.9671 43.3143 28.0184 42.7723 28.0441C42.2302 28.0697 41.714 28.0569 41.2236 28.0056C40.3201 27.9287 39.5587 27.7491 38.9392 27.467C38.3197 27.1849 37.7776 26.8259 37.313 26.3899C36.8484 25.9283 36.4483 25.4025 36.1128 24.8127C35.7772 24.2228 35.4546 23.5945 35.1448 22.9277C34.9899 22.6199 34.7705 22.1455 34.4866 21.5043C34.2285 20.8375 33.9317 20.0809 33.5961 19.2346C33.2605 18.3883 32.9121 17.4779 32.5507 16.5033C32.2151 15.5287 31.8925 14.567 31.5828 13.6181C33.4928 13.3616 34.9383 12.7461 35.9192 11.7716C36.9 10.7714 37.3001 9.34802 37.1194 7.5015C37.042 6.55259 36.771 5.79603 36.3064 5.23182C35.8676 4.6676 35.3255 4.23162 34.6802 3.92386C34.0349 3.61611 33.3122 3.42376 32.512 3.34682C31.7376 3.26988 30.9762 3.24424 30.2276 3.26989C30.2018 3.70587 30.176 4.29573 30.1502 5.03947C30.1502 5.78321 30.1373 6.59106 30.1115 7.46303C30.1115 8.335 30.0986 9.21979 30.0728 10.1174C30.0728 11.015 30.0728 11.8229 30.0728 12.541C30.0728 13.2591 30.0728 14.0541 30.0728 14.9261C30.0728 15.798 30.0857 16.67 30.1115 17.542C30.1373 18.4139 30.1631 19.2603 30.1889 20.0809C30.2405 20.876 30.2922 21.5812 30.3438 22.1968Z"/>
<path d="M57.3034 2.92366C56.4774 2.92366 55.7675 3.21859 55.1739 3.80846C54.606 4.39832 54.1285 5.19335 53.7413 6.19355C53.3541 7.19375 53.0573 8.36065 52.8508 9.69425C52.6701 11.0278 52.5668 12.4512 52.541 13.9643C52.4894 15.6826 52.5539 17.2342 52.7346 18.6191C52.9411 19.9784 53.2509 21.1324 53.6639 22.0813C54.0768 23.0303 54.5931 23.7612 55.2126 24.2741C55.8321 24.787 56.529 25.0435 57.3034 25.0435C58.0777 25.0435 58.7617 24.787 59.3554 24.2741C59.9749 23.7612 60.4782 23.0303 60.8654 22.0813C61.2784 21.1324 61.5752 19.9784 61.7559 18.6191C61.9366 17.2342 62.014 15.6826 61.9882 13.9643C61.9624 12.4512 61.8463 11.0278 61.6398 9.69425C61.4591 8.335 61.1752 7.15528 60.788 6.15508C60.4008 5.15488 59.9104 4.37267 59.3167 3.80846C58.7488 3.21859 58.0777 2.92366 57.3034 2.92366ZM68.338 14.5798C68.3638 16.6315 68.1057 18.4909 67.5636 20.1579C67.0216 21.7992 66.2601 23.197 65.2793 24.351C64.2984 25.5051 63.124 26.4027 61.7559 27.0439C60.4137 27.6594 58.9295 27.9671 57.3034 27.9671C55.6772 27.9671 54.1801 27.6594 52.8121 27.0439C51.444 26.4027 50.2567 25.5051 49.25 24.351C48.2433 23.1713 47.469 21.7608 46.9269 20.1194C46.3849 18.4524 46.1396 16.6059 46.1913 14.5798C46.2429 12.6564 46.501 10.8227 46.9656 9.07874C47.4561 7.30915 48.153 5.75756 49.0564 4.42396C49.9856 3.06472 51.1343 1.98758 52.5023 1.19255C53.8704 0.397516 55.4707 0 57.3034 0C59.0844 0 60.6589 0.397516 62.027 1.19255C63.395 1.98758 64.5436 3.06472 65.4729 4.42396C66.4021 5.75756 67.099 7.30915 67.5636 9.07874C68.0541 10.8227 68.3122 12.6564 68.338 14.5798Z"/>
<path d="M79.3572 24.428C80.7511 24.428 81.7836 24.0817 82.4547 23.3893C83.1258 22.6969 83.4613 21.8634 83.4613 20.8888C83.4613 19.9655 83.1903 19.1961 82.6483 18.5806C82.1062 17.9651 81.4093 17.4009 80.5575 16.888C79.7057 16.3751 78.7506 15.875 77.6924 15.3877C76.6599 14.8748 75.6403 14.2593 74.6336 13.5412C73.5237 12.7461 72.7364 11.8229 72.2718 10.7714C71.833 9.69425 71.6136 8.57864 71.6136 7.42456C71.6136 6.39872 71.7814 5.43699 72.117 4.53937C72.4783 3.64175 72.9946 2.85955 73.6657 2.19275C74.3368 1.52595 75.1628 1.0002 76.1436 0.615509C77.1503 0.230816 78.3118 0.0384687 79.6283 0.0384687C80.2477 0.0384687 80.8672 0.0897611 81.4867 0.192346C82.132 0.294931 82.7386 0.410339 83.3065 0.538569C83.8743 0.641154 84.3906 0.743739 84.8552 0.846324C85.3456 0.923263 85.7586 0.961732 86.0942 0.961732C86.8427 0.961732 87.3202 0.718094 87.5267 0.230817H87.6429C87.6687 0.512924 87.6816 0.807854 87.6816 1.11561C87.7074 1.39772 87.7203 1.69265 87.7203 2.0004C87.7203 2.69285 87.6816 3.51352 87.6042 4.46243C87.5526 5.38569 87.5267 6.20637 87.5267 6.92446C87.5267 7.71949 87.5655 8.59146 87.6429 9.54037H87.5267C87.3461 8.89922 87.0234 8.20677 86.5588 7.46303C86.12 6.71929 85.5779 6.03967 84.9326 5.42416C84.3131 4.78301 83.6033 4.25726 82.8031 3.84692C82.0288 3.41094 81.2028 3.19295 80.3252 3.19295C79.4734 3.19295 78.7248 3.43659 78.0795 3.92386C77.46 4.38549 77.1503 5.10359 77.1503 6.07814C77.1503 6.61671 77.3052 7.11681 77.6149 7.57844C77.9247 8.01443 78.3377 8.43759 78.8539 8.84793C79.3959 9.25826 80.0154 9.65578 80.7124 10.0405C81.4351 10.3995 82.2095 10.7842 83.0354 11.1945C85.2037 12.2717 86.7911 13.4771 87.7978 14.8107C88.8044 16.1443 89.3078 17.7343 89.3078 19.5808C89.3078 20.7349 89.0884 21.8249 88.6496 22.8507C88.2108 23.8509 87.5913 24.7357 86.7911 25.5051C85.9909 26.2745 85.023 26.8772 83.8872 27.3132C82.7515 27.7491 81.4867 27.9671 80.0929 27.9671C79.3185 27.9671 78.57 27.9158 77.8472 27.8133C77.1503 27.7107 76.505 27.5953 75.9113 27.467C75.3435 27.3132 74.8272 27.1849 74.3626 27.0823C73.9238 26.9798 73.5753 26.9285 73.3172 26.9285C72.9558 26.9285 72.6074 26.9798 72.2718 27.0823C71.9363 27.1849 71.6652 27.3773 71.4587 27.6594H71.3039C71.3813 26.8644 71.42 25.8642 71.42 24.6588C71.42 23.6842 71.3813 22.7097 71.3039 21.7351C71.2522 20.7606 71.2264 19.786 71.2264 18.8115C71.2264 18.555 71.2264 18.2985 71.2264 18.0421C71.2264 17.7856 71.2393 17.5163 71.2651 17.2342H71.3813C71.7427 18.4652 72.2331 19.5295 72.8526 20.4272C73.4979 21.3248 74.1819 22.0685 74.9046 22.6584C75.6532 23.2482 76.4147 23.6842 77.189 23.9663C77.9634 24.2484 78.6861 24.4023 79.3572 24.428Z"/>
<path d="M105.448 20.0425C105.526 21.9146 105.784 23.4791 106.223 24.7357C106.662 25.9667 107.358 26.8259 108.314 27.3132V27.467C107.823 27.4157 107.242 27.3901 106.571 27.3901C105.926 27.3645 105.255 27.3516 104.558 27.3516C104.171 27.3516 103.796 27.3516 103.435 27.3516C103.074 27.3516 102.738 27.3645 102.428 27.3901C101.783 27.4157 101.099 27.4414 100.376 27.467C99.6794 27.4927 98.9695 27.5055 98.2468 27.5055C97.9629 27.5055 97.6789 27.5055 97.395 27.5055C97.1111 27.5055 96.8271 27.4927 96.5432 27.467V27.3132C97.4983 26.7233 98.221 25.8642 98.7114 24.7357C99.2277 23.6073 99.5116 22.0685 99.5632 20.1194C99.589 18.8115 99.6019 17.3368 99.6019 15.6954C99.6278 14.0541 99.6407 12.4256 99.6407 10.8099C99.6407 9.19415 99.6278 7.74514 99.6019 6.46283C99.6019 5.18052 99.589 4.24444 99.5632 3.65458L98.4791 3.73152C97.7306 3.80846 97.0078 3.93669 96.3109 4.11621C95.6398 4.29573 95.0203 4.60349 94.4524 5.03947C93.8846 5.44981 93.3812 6.01402 92.9424 6.73212C92.5294 7.42456 92.2068 8.32218 91.9745 9.42496H91.8196C91.7938 9.1685 91.7809 8.92486 91.7809 8.69405C91.7809 8.46323 91.7809 8.21959 91.7809 7.96313C91.7809 7.45021 91.7809 6.92446 91.7809 6.38589C91.8067 5.84733 91.8325 5.28311 91.8583 4.69325C91.91 3.23142 91.8712 1.84652 91.7422 0.538569C93.0328 0.615508 94.2718 0.679624 95.4591 0.730915C96.6465 0.756563 97.9113 0.769386 99.2535 0.769386C99.7181 0.769386 100.196 0.769386 100.686 0.769386C101.176 0.769386 101.68 0.756563 102.196 0.730915C103.512 0.705269 104.932 0.666801 106.455 0.615509C107.978 0.53857 109.398 0.5001 110.714 0.5001C111.153 0.5001 111.566 0.512923 111.953 0.538569C112.366 0.538569 112.753 0.551392 113.115 0.577038C113.14 0.807854 113.153 1.02585 113.153 1.23102C113.179 1.43619 113.192 1.64136 113.192 1.84652C113.192 2.23122 113.179 2.65438 113.153 3.11601C113.127 3.57764 113.102 4.12903 113.076 4.77019C113.076 5.07794 113.063 5.36005 113.037 5.61651C113.037 5.84733 113.037 6.09096 113.037 6.34742C113.037 6.78341 113.037 7.23222 113.037 7.69385C113.063 8.15548 113.102 8.73252 113.153 9.42496H112.998C112.585 7.5015 111.824 6.10379 110.714 5.23182C109.63 4.35985 108.326 3.85975 106.804 3.73152C106.597 3.70587 106.403 3.69305 106.223 3.69305C106.068 3.6674 105.926 3.65458 105.797 3.65458H105.332C105.306 4.14186 105.281 4.84713 105.255 5.77039C105.229 6.69365 105.216 7.74514 105.216 8.92486C105.216 9.84813 105.216 10.8227 105.216 11.8485C105.242 12.8487 105.268 13.8361 105.293 14.8107C105.319 15.7852 105.345 16.7213 105.371 17.6189C105.397 18.5165 105.423 19.3244 105.448 20.0425Z"/>
<path d="M129.514 20.6965C129.566 22.5173 129.863 23.9792 130.405 25.0819C130.947 26.1591 131.631 26.9028 132.457 27.3132V27.467C131.94 27.4414 131.347 27.4157 130.676 27.3901C130.03 27.3645 129.333 27.3516 128.585 27.3516C127.63 27.3516 126.61 27.3773 125.526 27.4286C124.468 27.4799 123.371 27.5055 122.235 27.5055C121.925 27.5055 121.628 27.5055 121.345 27.5055C121.061 27.5055 120.79 27.4927 120.531 27.467V27.3132C121.099 27.0567 121.577 26.7233 121.964 26.313C122.351 25.9026 122.661 25.3769 122.893 24.7357C123.151 24.0946 123.332 23.3252 123.435 22.4276C123.539 21.53 123.59 20.44 123.59 19.1577C123.59 18.696 123.577 18.1959 123.551 17.6574C123.551 17.0932 123.539 16.5674 123.513 16.0801C123.28 15.6185 122.932 14.9645 122.467 14.1182C122.029 13.2462 121.512 12.2845 120.919 11.233C120.325 10.1815 119.693 9.09156 119.021 7.96313C118.35 6.8347 117.679 5.78321 117.008 4.80865C116.363 3.80845 115.756 2.94931 115.188 2.23122C114.621 1.48748 114.143 0.987377 113.756 0.730915V0.577038C114.427 0.628331 115.124 0.666801 115.847 0.692446C116.569 0.692446 117.279 0.692446 117.976 0.692446C118.621 0.692446 119.564 0.666801 120.803 0.615509C122.041 0.564216 123.319 0.538569 124.636 0.538569C124.842 0.538569 125.036 0.551392 125.216 0.577038C125.423 0.577038 125.629 0.577038 125.836 0.577038V0.730915C125.165 0.961731 124.674 1.3336 124.365 1.84652C124.081 2.3338 123.939 2.91084 123.939 3.57764C123.939 4.14185 124.094 4.85995 124.403 5.73192C124.739 6.60389 125.113 7.48868 125.526 8.38629C125.965 9.25826 126.378 10.0789 126.765 10.8483C127.178 11.5921 127.475 12.1306 127.656 12.464C128.017 11.8485 128.404 11.1048 128.817 10.2328C129.23 9.3352 129.798 8.10419 130.521 6.53977C130.96 5.61651 131.179 4.70607 131.179 3.80846C131.179 3.14166 131.037 2.53897 130.753 2.0004C130.469 1.46183 129.992 1.03867 129.32 0.730915V0.577038C130.637 0.653977 131.927 0.692446 133.192 0.692446C134.096 0.692446 134.909 0.666801 135.632 0.615509C136.354 0.564216 137.129 0.538569 137.955 0.538569C138.135 0.538569 138.303 0.538569 138.458 0.538569C138.639 0.538569 138.819 0.551392 139 0.577038V0.730915C138.587 0.961731 138.174 1.30795 137.761 1.76959C137.348 2.23122 136.922 2.75696 136.483 3.34682C136.07 3.93669 135.657 4.57784 135.244 5.27029C134.831 5.96273 134.431 6.65518 134.044 7.34763C133.244 8.80946 132.482 10.2328 131.76 11.6177C131.037 12.977 130.301 14.349 129.553 15.7339C129.527 16.1699 129.501 16.6444 129.475 17.1573C129.475 17.6446 129.475 18.1447 129.475 18.6576C129.475 19.0166 129.475 19.3757 129.475 19.7347C129.501 20.0681 129.514 20.3887 129.514 20.6965Z"/>
<path d="M33.4775 31.1231C33.4978 31.345 33.508 31.577 33.508 31.819C33.5283 32.0409 33.5384 32.283 33.5384 32.5452C33.5384 33.2915 33.508 34.0681 33.4471 34.875C33.4268 35.2179 33.4166 35.5406 33.4166 35.8432C33.4166 36.1256 33.4166 36.408 33.4166 36.6904C33.4166 37.0333 33.4166 37.3863 33.4166 37.7494C33.4166 38.0923 33.4369 38.4453 33.4775 38.8083H33.3557C33.2542 38.4453 33.041 37.9712 32.7162 37.3863C32.4117 36.7811 32.0158 36.1962 31.5286 35.6314C31.0413 35.0666 30.4932 34.5825 29.8841 34.1791C29.2751 33.7555 28.6254 33.5437 27.9352 33.5437C26.7374 33.5639 25.7325 34.2093 24.9204 35.4801C24.1286 36.7509 23.7124 38.6571 23.6718 41.1986C23.6515 42.5904 23.7835 43.7805 24.0677 44.7689C24.3519 45.7371 24.7275 46.5339 25.1945 47.1592C25.6817 47.7845 26.2298 48.2484 26.8389 48.551C27.4479 48.8536 28.0773 49.0149 28.7269 49.0351C29.2345 49.0553 29.7623 49.0049 30.3105 48.8838C30.8789 48.7628 31.4169 48.551 31.9244 48.2484C32.432 47.9459 32.8888 47.5424 33.2948 47.0382C33.7211 46.5137 34.046 45.8682 34.2693 45.1017H34.3911C34.2896 46.1305 34.0561 47.1189 33.6907 48.0669C33.3456 49.0149 32.8786 49.852 32.2899 50.5782C31.7011 51.2842 30.9906 51.8591 30.1582 52.3028C29.3461 52.7466 28.4224 52.9786 27.387 52.9987C26.108 53.0189 24.9711 52.797 23.9764 52.3331C22.9816 51.849 22.1289 51.1632 21.4184 50.2756C20.7281 49.3881 20.2003 48.3291 19.8348 47.0987C19.4694 45.8481 19.2867 44.4764 19.2867 42.9838C19.2867 40.9061 19.5405 39.0706 20.048 37.4771C20.5555 35.8835 21.2966 34.5522 22.271 33.4832C23.1034 32.5755 23.9561 31.9502 24.829 31.6073C25.7223 31.2643 26.646 31.0727 27.6002 31.0324C28.4326 30.992 29.2243 31.0727 29.9755 31.2744C30.7267 31.456 31.3661 31.5669 31.894 31.6073C32.2391 31.6476 32.5436 31.6375 32.8076 31.577C33.0715 31.4963 33.2542 31.345 33.3557 31.1231H33.4775Z"/>
<path d="M45.6789 43.8007C45.4556 43.0745 45.2323 42.3181 45.009 41.5314C44.7857 40.7448 44.5624 39.9984 44.339 39.2924C44.136 38.5663 43.9432 37.9006 43.7604 37.2955C43.598 36.6904 43.4559 36.1962 43.3341 35.8129C43.2529 36.0953 43.1311 36.5189 42.9687 37.0837C42.8063 37.6283 42.6134 38.2637 42.3901 38.9899C42.1871 39.716 41.9637 40.5027 41.7201 41.3499C41.4968 42.1769 41.2836 42.9939 41.0806 43.8007H45.6789ZM54.571 52.6054C54.0635 52.5852 53.5357 52.5751 52.9875 52.5751C52.4394 52.555 51.9014 52.5449 51.3736 52.5449H50.2164C49.7291 52.5651 49.1505 52.5852 48.4806 52.6054C47.8309 52.6256 47.1813 52.6357 46.5316 52.6357C46.3286 52.6357 46.1256 52.6256 45.9226 52.6054C45.7399 52.6054 45.5571 52.6054 45.3744 52.6054V52.5146C45.882 52.2121 46.2778 51.8086 46.5621 51.3044C46.8463 50.8001 46.9884 50.1647 46.9884 49.3982C46.9884 48.7124 46.8564 47.9459 46.5925 47.0987C46.5519 46.9777 46.5113 46.8465 46.4707 46.7053C46.4301 46.544 46.3895 46.3826 46.3489 46.2212H40.4716C40.431 46.3624 40.3904 46.4935 40.3498 46.6146C40.3295 46.7356 40.299 46.8566 40.2584 46.9777C40.1569 47.4416 40.0757 47.8753 40.0148 48.2787C39.9539 48.6619 39.9234 49.0351 39.9234 49.3982C39.9234 50.1244 40.0452 50.7597 40.2889 51.3044C40.5325 51.8288 40.9182 52.2322 41.4461 52.5146V52.6054C40.9791 52.5852 40.5325 52.5751 40.1062 52.5751C39.6798 52.555 39.2433 52.5449 38.7967 52.5449H37.7918C37.2842 52.5449 36.8173 52.555 36.391 52.5751C35.9849 52.5953 35.5484 52.6054 35.0815 52.6054C34.9191 52.6054 34.7567 52.6054 34.5943 52.6054C34.4319 52.6054 34.2593 52.5953 34.0766 52.5751V52.5146C34.7871 52.1314 35.3759 51.4859 35.8428 50.5782C36.3301 49.6503 36.8173 48.4602 37.3045 47.0079C37.5481 46.2817 37.8019 45.5152 38.0658 44.7084C38.3298 43.9016 38.5835 43.0947 38.8272 42.2879C39.0911 41.481 39.3347 40.6943 39.558 39.9278C39.8016 39.1613 40.0249 38.4453 40.228 37.7796C40.3701 37.2955 40.5223 36.7811 40.6847 36.2365C40.8675 35.6717 41.0299 35.1069 41.172 34.5421C41.3344 33.9774 41.4765 33.4327 41.5983 32.9083C41.7201 32.3838 41.8216 31.8896 41.9028 31.4257C42.3089 31.4459 42.7454 31.4661 43.2123 31.4862C43.6995 31.4862 44.1766 31.4862 44.6436 31.4862C45.0496 31.4862 45.4353 31.4862 45.8008 31.4862C46.1662 31.4661 46.5012 31.4459 46.8057 31.4257C46.9072 32.1115 47.0696 32.8982 47.2929 33.7857C47.5365 34.6531 47.8005 35.5608 48.0847 36.5088C48.308 37.2955 48.5516 38.1326 48.8155 39.0201C49.0795 39.9077 49.3535 40.8053 49.6378 41.713C49.922 42.6207 50.2062 43.5284 50.4904 44.4361C50.795 45.3236 51.0893 46.1708 51.3736 46.9777C51.5766 47.5828 51.7897 48.1778 52.013 48.7628C52.2567 49.3276 52.5104 49.852 52.7744 50.3361C53.0383 50.8203 53.3124 51.2539 53.5966 51.6372C53.9011 52.0204 54.2259 52.3129 54.571 52.5146V52.6054Z"/>
<path d="M62.0557 50.2151C63.152 50.2151 63.964 49.9428 64.4919 49.3982C65.0197 48.8536 65.2836 48.198 65.2836 47.4315C65.2836 46.7053 65.0705 46.1002 64.6441 45.6161C64.2178 45.132 63.6697 44.6882 62.9997 44.2848C62.3298 43.8814 61.5786 43.488 60.7462 43.1048C59.9342 42.7014 59.1323 42.2173 58.3405 41.6525C57.4675 41.0272 56.8483 40.301 56.4829 39.474C56.1378 38.6268 55.9652 37.7494 55.9652 36.8417C55.9652 36.0348 56.0972 35.2784 56.3611 34.5724C56.6453 33.8664 57.0513 33.2512 57.5792 32.7267C58.107 32.2023 58.7567 31.7888 59.5281 31.4862C60.3199 31.1837 61.2335 31.0324 62.2688 31.0324C62.7561 31.0324 63.2433 31.0727 63.7306 31.1534C64.2381 31.2341 64.7152 31.3249 65.1618 31.4257C65.6085 31.5064 66.0145 31.5871 66.3799 31.6678C66.7657 31.7283 67.0905 31.7585 67.3544 31.7585C67.9432 31.7585 68.3187 31.5669 68.4811 31.1837H68.5725C68.5928 31.4055 68.603 31.6375 68.603 31.8796C68.6233 32.1014 68.6334 32.3334 68.6334 32.5755C68.6334 33.1201 68.603 33.7656 68.542 34.5119C68.5014 35.2381 68.4811 35.8835 68.4811 36.4483C68.4811 37.0736 68.5116 37.7594 68.5725 38.5058H68.4811C68.339 38.0015 68.0853 37.4569 67.7198 36.8719C67.3747 36.287 66.9484 35.7524 66.4408 35.2683C65.9536 34.764 65.3953 34.3505 64.766 34.0278C64.1569 33.6849 63.5072 33.5134 62.817 33.5134C62.147 33.5134 61.5583 33.705 61.0508 34.0883C60.5635 34.4514 60.3199 35.0162 60.3199 35.7827C60.3199 36.2063 60.4417 36.5996 60.6853 36.9627C60.9289 37.3056 61.2538 37.6384 61.6598 37.9612C62.0861 38.2839 62.5734 38.5965 63.1215 38.8991C63.69 39.1815 64.299 39.4841 64.9487 39.8068C66.654 40.654 67.9025 41.602 68.6943 42.6509C69.4861 43.6998 69.882 44.9505 69.882 46.4028C69.882 47.3105 69.7094 48.1678 69.3643 48.9746C69.0191 49.7613 68.5319 50.4572 67.9025 51.0623C67.2732 51.6674 66.5119 52.1415 65.6186 52.4844C64.7253 52.8273 63.7306 52.9987 62.6343 52.9987C62.0252 52.9987 61.4365 52.9584 60.868 52.8777C60.3199 52.797 59.8124 52.7063 59.3454 52.6054C58.8988 52.4844 58.4928 52.3835 58.1273 52.3028C57.7822 52.2221 57.5081 52.1818 57.3051 52.1818C57.0209 52.1818 56.7468 52.2221 56.4829 52.3028C56.219 52.3835 56.0058 52.5348 55.8434 52.7567H55.7216C55.7825 52.1314 55.8129 51.3447 55.8129 50.3967C55.8129 49.6302 55.7825 48.8637 55.7216 48.0972C55.681 47.3307 55.6607 46.5641 55.6607 45.7976C55.6607 45.5959 55.6607 45.3942 55.6607 45.1925C55.6607 44.9908 55.6708 44.779 55.6911 44.5571H55.7825C56.0667 45.5253 56.4524 46.3624 56.9397 47.0684C57.4472 47.7744 57.9852 48.3594 58.5537 48.8233C59.1424 49.2873 59.7413 49.6302 60.3503 49.852C60.9594 50.0739 61.5278 50.195 62.0557 50.2151Z"/>
<path d="M78.3135 46.9171C78.3744 48.4098 78.5977 49.6402 78.9834 50.6085C79.3895 51.5565 79.9173 52.1919 80.5669 52.5146V52.6054C80.1609 52.5852 79.7143 52.5751 79.227 52.5751C78.7398 52.555 78.2221 52.5449 77.674 52.5449C77.4304 52.5449 77.1766 52.5449 76.9127 52.5449C76.669 52.5449 76.4153 52.555 76.1514 52.5751C75.6438 52.5953 75.1363 52.6054 74.6287 52.6054C74.1212 52.6256 73.6339 52.6357 73.167 52.6357C72.8219 52.6357 72.4971 52.6256 72.1925 52.6054C71.9083 52.6054 71.6241 52.6054 71.3399 52.6054V52.5146C72.1316 52.1314 72.7102 51.4657 73.0757 50.5177C73.4411 49.5495 73.6543 48.3594 73.7152 46.9474C73.7558 46.3423 73.7761 45.6363 73.7761 44.8294C73.7964 44.0226 73.8065 43.1956 73.8065 42.3484C73.8065 41.0776 73.7862 39.8774 73.7456 38.7478C73.7253 37.6182 73.6949 36.761 73.6543 36.176C73.5527 34.9052 73.3193 33.8866 72.9538 33.1201C72.5884 32.3334 72.0504 31.809 71.3399 31.5467V31.4257C71.8068 31.4661 72.2839 31.4963 72.7711 31.5165C73.2584 31.5367 73.7558 31.5467 74.2633 31.5467C74.5272 31.5467 74.781 31.5467 75.0246 31.5467C75.2885 31.5266 75.5423 31.5165 75.7859 31.5165C76.4356 31.4963 77.0649 31.4761 77.674 31.456C78.3033 31.4156 78.9225 31.3955 79.5316 31.3955C79.7143 31.3955 79.8868 31.3955 80.0493 31.3955C80.232 31.3955 80.4147 31.4055 80.5974 31.4257V31.5165C79.8868 31.7989 79.3489 32.3334 78.9834 33.1201C78.618 33.8866 78.3744 34.9052 78.2526 36.176C78.212 36.5794 78.1917 37.114 78.1917 37.7796C78.1917 38.4453 78.1917 39.1815 78.1917 39.9884C78.1917 40.5733 78.1917 41.1785 78.1917 41.8038C78.1917 42.4291 78.1917 43.0443 78.1917 43.6494C78.212 44.2546 78.2323 44.8395 78.2526 45.4043C78.2729 45.9691 78.2932 46.4734 78.3135 46.9171Z"/>
<path d="M97.8734 52.6054C97.5486 52.5852 97.2136 52.5751 96.8685 52.5751C96.5437 52.555 96.2087 52.5449 95.8636 52.5449C95.4576 52.5449 95.0515 52.555 94.6455 52.5751C94.2598 52.5751 93.8943 52.5852 93.5492 52.6054C93.4274 52.323 93.1736 51.7885 92.7879 51.0018C92.4225 50.195 91.986 49.2671 91.4784 48.2182C90.9912 47.1491 90.4532 46.0094 89.8644 44.7992C89.296 43.5889 88.7479 42.4391 88.22 41.3499C87.7125 40.2405 87.2557 39.2521 86.8497 38.3848C86.4436 37.4972 86.1493 36.8618 85.9665 36.4786C85.9665 36.9022 85.9665 37.5476 85.9665 38.415C85.9868 39.2622 85.997 40.1901 85.997 41.1986C86.0173 42.2072 86.0376 43.2258 86.0579 44.2546C86.0782 45.2833 86.1087 46.1809 86.1493 46.9474C86.2305 48.2787 86.4436 49.4385 86.7888 50.4269C87.1339 51.4153 87.6922 52.1112 88.4636 52.5146V52.6054C88.0779 52.5852 87.682 52.5751 87.276 52.5751C86.87 52.5751 86.4335 52.5751 85.9665 52.5751C85.256 52.5751 84.5759 52.5852 83.9262 52.6054C83.2969 52.6256 82.7183 52.6357 82.1904 52.6357C82.0077 52.6357 81.825 52.6357 81.6423 52.6357C81.4799 52.6357 81.3073 52.6256 81.1246 52.6054V52.5146C81.6931 52.2121 82.1397 51.7986 82.4645 51.2741C82.7893 50.7295 83.0228 50.0638 83.1649 49.2772C83.3273 48.4703 83.4288 47.5122 83.4694 46.4028C83.51 45.2934 83.5303 44.0125 83.5303 42.5602C83.5303 40.8456 83.5202 39.353 83.4999 38.0822C83.4796 36.8114 83.3882 35.7322 83.2258 34.8447C83.0837 33.9572 82.8503 33.2512 82.5254 32.7267C82.2006 32.1821 81.7337 31.7888 81.1246 31.5467V31.4257C81.4697 31.4661 81.8555 31.4963 82.2818 31.5165C82.7081 31.5165 83.1548 31.5165 83.6217 31.5165C84.4947 31.5165 85.2966 31.4963 86.0275 31.456C86.7583 31.4156 87.3572 31.3955 87.8241 31.3955C87.9866 31.3955 88.1388 31.3955 88.2809 31.3955C88.423 31.3955 88.5753 31.4055 88.7377 31.4257C88.8798 31.8695 89.1234 32.5049 89.4686 33.3319C89.834 34.1589 90.24 35.0767 90.6867 36.0852C91.1536 37.0938 91.6307 38.1427 92.1179 39.2319C92.6255 40.3212 93.1026 41.3398 93.5492 42.2879C93.9958 43.2359 94.3816 44.073 94.7064 44.7992C95.0515 45.5052 95.2951 45.9994 95.4372 46.2817V42.2576C95.4372 40.6439 95.4169 39.2219 95.3763 37.9914C95.356 36.761 95.2647 35.7121 95.1023 34.8447C94.9602 33.9572 94.7267 33.2512 94.4019 32.7267C94.077 32.1821 93.6202 31.7888 93.0315 31.5467V31.4257C93.4172 31.4661 93.8334 31.4963 94.2801 31.5165C94.747 31.5367 95.2139 31.5467 95.6809 31.5467C96.635 31.5467 97.4065 31.5266 97.9952 31.4862C98.6043 31.4459 99.193 31.4257 99.7615 31.4257H100.371V31.5467C99.6194 31.8291 99.0509 32.3738 98.6652 33.1806C98.2795 33.9673 98.0562 34.9557 97.9952 36.1458C97.9749 36.4887 97.9546 37.1241 97.9343 38.0519C97.9343 38.9596 97.9242 40.0085 97.9039 41.1986C97.9039 42.3686 97.8937 43.6091 97.8734 44.9202C97.8734 46.2313 97.8734 47.4416 97.8734 48.551C97.8734 49.6402 97.8734 50.5681 97.8734 51.3346C97.8734 52.081 97.8734 52.5045 97.8734 52.6054Z"/>
<path d="M110.343 33.3016C109.694 33.3016 109.135 33.5336 108.668 33.9975C108.222 34.4615 107.846 35.0868 107.542 35.8734C107.237 36.6601 107.004 37.5779 106.841 38.6268C106.699 39.6757 106.618 40.7952 106.598 41.9853C106.557 43.3368 106.608 44.5571 106.75 45.6464C106.912 46.7154 107.156 47.6231 107.481 48.3695C107.806 49.1158 108.212 49.6907 108.699 50.0941C109.186 50.4975 109.734 50.6992 110.343 50.6992C110.952 50.6992 111.49 50.4975 111.957 50.0941C112.444 49.6907 112.84 49.1158 113.145 48.3695C113.47 47.6231 113.703 46.7154 113.845 45.6464C113.987 44.5571 114.048 43.3368 114.028 41.9853C114.008 40.7952 113.916 39.6757 113.754 38.6268C113.612 37.5577 113.388 36.6299 113.084 35.8432C112.779 35.0565 112.394 34.4413 111.927 33.9975C111.48 33.5336 110.952 33.3016 110.343 33.3016ZM119.022 42.4694C119.042 44.0831 118.839 45.5455 118.413 46.8566C117.987 48.1476 117.388 49.2469 116.616 50.1546C115.845 51.0623 114.921 51.7683 113.845 52.2726C112.79 52.7567 111.622 52.9987 110.343 52.9987C109.064 52.9987 107.887 52.7567 106.811 52.2726C105.735 51.7683 104.801 51.0623 104.009 50.1546C103.217 49.2267 102.608 48.1173 102.182 46.8264C101.756 45.5152 101.563 44.0629 101.603 42.4694C101.644 40.9566 101.847 39.5143 102.212 38.1427C102.598 36.7509 103.146 35.5305 103.857 34.4816C104.588 33.4126 105.491 32.5654 106.567 31.9401C107.643 31.3148 108.902 31.0021 110.343 31.0021C111.744 31.0021 112.982 31.3148 114.058 31.9401C115.134 32.5654 116.038 33.4126 116.769 34.4816C117.5 35.5305 118.048 36.7509 118.413 38.1427C118.799 39.5143 119.002 40.9566 119.022 42.4694Z"/>
</mask>
<path d="M19.8237 0.577038C19.8753 0.833501 19.9011 1.08996 19.9011 1.34642C19.9011 1.57724 19.9011 1.82088 19.9011 2.07734C19.9011 2.82108 19.8624 3.6674 19.7849 4.61631C19.7591 5.12923 19.7333 5.59086 19.7075 6.0012C19.7075 6.38589 19.7075 6.80905 19.7075 7.27069C19.7075 7.55279 19.7075 7.86055 19.7075 8.19395C19.7075 8.52735 19.7204 8.89922 19.7462 9.30956H19.5913C19.2558 8.18112 18.7654 7.25786 18.1201 6.53977C17.5006 5.79603 16.7778 5.20617 15.9518 4.77019C15.1517 4.3342 14.2999 4.02645 13.3965 3.84692C12.5188 3.6674 11.6541 3.57764 10.8023 3.57764H8.86644C8.84063 3.93669 8.81482 4.42396 8.789 5.03947C8.789 5.65498 8.7761 6.34742 8.75028 7.11681C8.75028 7.88619 8.73738 8.70687 8.71157 9.57884C8.71157 10.4508 8.71157 11.3356 8.71157 12.2332C8.9955 12.2332 9.34396 12.2332 9.75696 12.2332C10.1958 12.2076 10.5571 12.1691 10.8411 12.1178C11.5122 12.0152 12.1059 11.8229 12.6221 11.5408C13.1383 11.2587 13.59 10.9381 13.9772 10.579C14.3644 10.1943 14.6742 9.79683 14.9065 9.38649C15.1388 8.95051 15.2936 8.54017 15.3711 8.15548H15.4872C15.513 8.36065 15.5259 8.55299 15.5259 8.73252C15.5259 8.91204 15.5259 9.10439 15.5259 9.30956C15.5259 10.002 15.5001 10.7329 15.4485 11.5023C15.4227 12.246 15.384 13.0154 15.3324 13.8105C15.3065 14.8876 15.3195 15.8493 15.3711 16.6957C15.4485 17.542 15.5259 18.3755 15.6034 19.1961H15.4485C15.0871 17.9651 14.4935 17.029 13.6675 16.3879C12.8673 15.7211 11.9252 15.3236 10.8411 15.1953C10.4797 15.1697 10.0925 15.1569 9.67952 15.1569C9.26653 15.1569 8.94388 15.1569 8.71157 15.1569C8.71157 15.9519 8.72447 16.7213 8.75028 17.465C8.80191 18.1831 8.84063 18.8371 8.86644 19.427C8.89225 20.1451 8.94388 20.9016 9.02131 21.6967C9.09875 22.4917 9.24071 23.2611 9.44721 24.0048C9.65371 24.7485 9.93764 25.4153 10.299 26.0052C10.6862 26.5951 11.1895 27.0439 11.809 27.3516V27.467C11.1895 27.4157 10.4668 27.3901 9.6408 27.3901C8.84063 27.3645 8.02755 27.3516 7.20156 27.3516H6.07874C5.38181 27.3773 4.59454 27.4157 3.71694 27.467C2.86514 27.4927 2.05206 27.5055 1.2777 27.5055C1.04539 27.5055 0.825986 27.5055 0.619489 27.5055C0.412993 27.5055 0.206496 27.4927 0 27.467V27.3516C0.567865 27.0695 1.03248 26.7233 1.39385 26.313C1.78103 25.877 2.09078 25.3384 2.32308 24.6973C2.55539 24.0561 2.72317 23.3124 2.82642 22.466C2.92967 21.5941 2.9942 20.5939 3.02001 19.4654C3.09745 17.0547 3.13616 14.7722 3.13616 12.6179C3.13616 11.5408 3.12326 10.5149 3.09745 9.54037C3.07163 8.54017 3.02001 7.59126 2.94257 6.69365C2.76189 4.94971 2.46505 3.61611 2.05206 2.69285C1.63907 1.76959 0.955046 1.10279 0 0.692446V0.538569C0.825986 0.589862 1.74231 0.628332 2.74898 0.653978C3.78147 0.679624 4.80104 0.692446 5.80771 0.692446C6.68532 0.692446 7.52421 0.692446 8.32439 0.692446C9.12456 0.666801 9.83439 0.653978 10.4539 0.653978C10.8669 0.653978 11.3573 0.641155 11.9252 0.615509C12.493 0.589862 13.0867 0.577038 13.7062 0.577038C14.3257 0.551392 14.9581 0.538569 15.6034 0.538569C16.2487 0.512923 16.8682 0.5001 17.4619 0.5001C17.9265 0.5001 18.3524 0.512923 18.7395 0.538569C19.1525 0.538569 19.5139 0.551392 19.8237 0.577038Z" fill="url(#paint0_linear_32_6904)"/>
<path d="M30.3438 22.1968C30.4728 23.4021 30.7568 24.4921 31.1956 25.4666C31.6344 26.4155 32.2668 27.031 33.0928 27.3132V27.467C32.2926 27.4157 31.3892 27.3901 30.3825 27.3901C29.3758 27.3901 28.4079 27.3901 27.4786 27.3901C26.7301 27.3901 25.9428 27.4157 25.1168 27.467C24.2909 27.4927 23.4649 27.5055 22.6389 27.5055C22.4324 27.5055 22.2259 27.4927 22.0194 27.467C21.8387 27.467 21.6451 27.467 21.4386 27.467V27.3132C22.4195 26.7233 23.1293 25.8513 23.5681 24.6973C24.0069 23.5432 24.2779 22.0172 24.3812 20.1194C24.4328 19.3757 24.4586 18.5165 24.4586 17.542C24.4844 16.5418 24.4974 15.5159 24.4974 14.4644C24.4974 13.6694 24.4844 12.8744 24.4586 12.0793C24.4586 11.2843 24.4457 10.5406 24.4199 9.84812C24.4199 9.13003 24.407 8.48888 24.3812 7.92466C24.3554 7.3348 24.3296 6.86035 24.3038 6.5013C24.1489 4.96253 23.8779 3.70587 23.4907 2.73132C23.1035 1.73112 22.4195 1.02585 21.4386 0.615509V0.5001C22.5485 0.57704 23.7746 0.615509 25.1168 0.615509H26.4333C27.1818 0.589862 27.9691 0.564215 28.7951 0.538569C29.6469 0.487278 30.5632 0.461632 31.544 0.461632C31.9312 0.461632 32.3184 0.474455 32.7056 0.5001C33.1186 0.5001 33.5445 0.512923 33.9833 0.538569C34.8093 0.589862 35.7256 0.718093 36.7323 0.923261C37.7389 1.10278 38.694 1.43619 39.5974 1.92346C40.5008 2.41074 41.2881 3.07754 41.9592 3.92386C42.6303 4.77018 43.0433 5.88579 43.1982 7.27069C43.3014 8.34783 43.1982 9.29673 42.8884 10.1174C42.6045 10.9381 42.1915 11.6434 41.6495 12.2332C41.1074 12.7974 40.4879 13.2462 39.791 13.5796C39.1199 13.913 38.4488 14.1439 37.7776 14.2721C38.4488 15.8878 39.1457 17.5292 39.8684 19.1961C40.617 20.8632 41.4559 22.4404 42.3851 23.9279C42.8239 24.646 43.3272 25.3256 43.8951 25.9667C44.4888 26.6079 45.2502 27.0439 46.1795 27.2747V27.467C46.0504 27.544 45.8181 27.6209 45.4825 27.6979C45.147 27.7748 44.7469 27.8389 44.2823 27.8902C43.8177 27.9671 43.3143 28.0184 42.7723 28.0441C42.2302 28.0697 41.714 28.0569 41.2236 28.0056C40.3201 27.9287 39.5587 27.7491 38.9392 27.467C38.3197 27.1849 37.7776 26.8259 37.313 26.3899C36.8484 25.9283 36.4483 25.4025 36.1128 24.8127C35.7772 24.2228 35.4546 23.5945 35.1448 22.9277C34.9899 22.6199 34.7705 22.1455 34.4866 21.5043C34.2285 20.8375 33.9317 20.0809 33.5961 19.2346C33.2605 18.3883 32.9121 17.4779 32.5507 16.5033C32.2151 15.5287 31.8925 14.567 31.5828 13.6181C33.4928 13.3616 34.9383 12.7461 35.9192 11.7716C36.9 10.7714 37.3001 9.34802 37.1194 7.5015C37.042 6.55259 36.771 5.79603 36.3064 5.23182C35.8676 4.6676 35.3255 4.23162 34.6802 3.92386C34.0349 3.61611 33.3122 3.42376 32.512 3.34682C31.7376 3.26988 30.9762 3.24424 30.2276 3.26989C30.2018 3.70587 30.176 4.29573 30.1502 5.03947C30.1502 5.78321 30.1373 6.59106 30.1115 7.46303C30.1115 8.335 30.0986 9.21979 30.0728 10.1174C30.0728 11.015 30.0728 11.8229 30.0728 12.541C30.0728 13.2591 30.0728 14.0541 30.0728 14.9261C30.0728 15.798 30.0857 16.67 30.1115 17.542C30.1373 18.4139 30.1631 19.2603 30.1889 20.0809C30.2405 20.876 30.2922 21.5812 30.3438 22.1968Z" fill="url(#paint1_linear_32_6904)"/>
<path d="M57.3034 2.92366C56.4774 2.92366 55.7675 3.21859 55.1739 3.80846C54.606 4.39832 54.1285 5.19335 53.7413 6.19355C53.3541 7.19375 53.0573 8.36065 52.8508 9.69425C52.6701 11.0278 52.5668 12.4512 52.541 13.9643C52.4894 15.6826 52.5539 17.2342 52.7346 18.6191C52.9411 19.9784 53.2509 21.1324 53.6639 22.0813C54.0768 23.0303 54.5931 23.7612 55.2126 24.2741C55.8321 24.787 56.529 25.0435 57.3034 25.0435C58.0777 25.0435 58.7617 24.787 59.3554 24.2741C59.9749 23.7612 60.4782 23.0303 60.8654 22.0813C61.2784 21.1324 61.5752 19.9784 61.7559 18.6191C61.9366 17.2342 62.014 15.6826 61.9882 13.9643C61.9624 12.4512 61.8463 11.0278 61.6398 9.69425C61.4591 8.335 61.1752 7.15528 60.788 6.15508C60.4008 5.15488 59.9104 4.37267 59.3167 3.80846C58.7488 3.21859 58.0777 2.92366 57.3034 2.92366ZM68.338 14.5798C68.3638 16.6315 68.1057 18.4909 67.5636 20.1579C67.0216 21.7992 66.2601 23.197 65.2793 24.351C64.2984 25.5051 63.124 26.4027 61.7559 27.0439C60.4137 27.6594 58.9295 27.9671 57.3034 27.9671C55.6772 27.9671 54.1801 27.6594 52.8121 27.0439C51.444 26.4027 50.2567 25.5051 49.25 24.351C48.2433 23.1713 47.469 21.7608 46.9269 20.1194C46.3849 18.4524 46.1396 16.6059 46.1913 14.5798C46.2429 12.6564 46.501 10.8227 46.9656 9.07874C47.4561 7.30915 48.153 5.75756 49.0564 4.42396C49.9856 3.06472 51.1343 1.98758 52.5023 1.19255C53.8704 0.397516 55.4707 0 57.3034 0C59.0844 0 60.6589 0.397516 62.027 1.19255C63.395 1.98758 64.5436 3.06472 65.4729 4.42396C66.4021 5.75756 67.099 7.30915 67.5636 9.07874C68.0541 10.8227 68.3122 12.6564 68.338 14.5798Z" fill="url(#paint2_linear_32_6904)"/>
<path d="M79.3572 24.428C80.7511 24.428 81.7836 24.0817 82.4547 23.3893C83.1258 22.6969 83.4613 21.8634 83.4613 20.8888C83.4613 19.9655 83.1903 19.1961 82.6483 18.5806C82.1062 17.9651 81.4093 17.4009 80.5575 16.888C79.7057 16.3751 78.7506 15.875 77.6924 15.3877C76.6599 14.8748 75.6403 14.2593 74.6336 13.5412C73.5237 12.7461 72.7364 11.8229 72.2718 10.7714C71.833 9.69425 71.6136 8.57864 71.6136 7.42456C71.6136 6.39872 71.7814 5.43699 72.117 4.53937C72.4783 3.64175 72.9946 2.85955 73.6657 2.19275C74.3368 1.52595 75.1628 1.0002 76.1436 0.615509C77.1503 0.230816 78.3118 0.0384687 79.6283 0.0384687C80.2477 0.0384687 80.8672 0.0897611 81.4867 0.192346C82.132 0.294931 82.7386 0.410339 83.3065 0.538569C83.8743 0.641154 84.3906 0.743739 84.8552 0.846324C85.3456 0.923263 85.7586 0.961732 86.0942 0.961732C86.8427 0.961732 87.3202 0.718094 87.5267 0.230817H87.6429C87.6687 0.512924 87.6816 0.807854 87.6816 1.11561C87.7074 1.39772 87.7203 1.69265 87.7203 2.0004C87.7203 2.69285 87.6816 3.51352 87.6042 4.46243C87.5526 5.38569 87.5267 6.20637 87.5267 6.92446C87.5267 7.71949 87.5655 8.59146 87.6429 9.54037H87.5267C87.3461 8.89922 87.0234 8.20677 86.5588 7.46303C86.12 6.71929 85.5779 6.03967 84.9326 5.42416C84.3131 4.78301 83.6033 4.25726 82.8031 3.84692C82.0288 3.41094 81.2028 3.19295 80.3252 3.19295C79.4734 3.19295 78.7248 3.43659 78.0795 3.92386C77.46 4.38549 77.1503 5.10359 77.1503 6.07814C77.1503 6.61671 77.3052 7.11681 77.6149 7.57844C77.9247 8.01443 78.3377 8.43759 78.8539 8.84793C79.3959 9.25826 80.0154 9.65578 80.7124 10.0405C81.4351 10.3995 82.2095 10.7842 83.0354 11.1945C85.2037 12.2717 86.7911 13.4771 87.7978 14.8107C88.8044 16.1443 89.3078 17.7343 89.3078 19.5808C89.3078 20.7349 89.0884 21.8249 88.6496 22.8507C88.2108 23.8509 87.5913 24.7357 86.7911 25.5051C85.9909 26.2745 85.023 26.8772 83.8872 27.3132C82.7515 27.7491 81.4867 27.9671 80.0929 27.9671C79.3185 27.9671 78.57 27.9158 77.8472 27.8133C77.1503 27.7107 76.505 27.5953 75.9113 27.467C75.3435 27.3132 74.8272 27.1849 74.3626 27.0823C73.9238 26.9798 73.5753 26.9285 73.3172 26.9285C72.9558 26.9285 72.6074 26.9798 72.2718 27.0823C71.9363 27.1849 71.6652 27.3773 71.4587 27.6594H71.3039C71.3813 26.8644 71.42 25.8642 71.42 24.6588C71.42 23.6842 71.3813 22.7097 71.3039 21.7351C71.2522 20.7606 71.2264 19.786 71.2264 18.8115C71.2264 18.555 71.2264 18.2985 71.2264 18.0421C71.2264 17.7856 71.2393 17.5163 71.2651 17.2342H71.3813C71.7427 18.4652 72.2331 19.5295 72.8526 20.4272C73.4979 21.3248 74.1819 22.0685 74.9046 22.6584C75.6532 23.2482 76.4147 23.6842 77.189 23.9663C77.9634 24.2484 78.6861 24.4023 79.3572 24.428Z" fill="url(#paint3_linear_32_6904)"/>
<path d="M105.448 20.0425C105.526 21.9146 105.784 23.4791 106.223 24.7357C106.662 25.9667 107.358 26.8259 108.314 27.3132V27.467C107.823 27.4157 107.242 27.3901 106.571 27.3901C105.926 27.3645 105.255 27.3516 104.558 27.3516C104.171 27.3516 103.796 27.3516 103.435 27.3516C103.074 27.3516 102.738 27.3645 102.428 27.3901C101.783 27.4157 101.099 27.4414 100.376 27.467C99.6794 27.4927 98.9695 27.5055 98.2468 27.5055C97.9629 27.5055 97.6789 27.5055 97.395 27.5055C97.1111 27.5055 96.8271 27.4927 96.5432 27.467V27.3132C97.4983 26.7233 98.221 25.8642 98.7114 24.7357C99.2277 23.6073 99.5116 22.0685 99.5632 20.1194C99.589 18.8115 99.6019 17.3368 99.6019 15.6954C99.6278 14.0541 99.6407 12.4256 99.6407 10.8099C99.6407 9.19415 99.6278 7.74514 99.6019 6.46283C99.6019 5.18052 99.589 4.24444 99.5632 3.65458L98.4791 3.73152C97.7306 3.80846 97.0078 3.93669 96.3109 4.11621C95.6398 4.29573 95.0203 4.60349 94.4524 5.03947C93.8846 5.44981 93.3812 6.01402 92.9424 6.73212C92.5294 7.42456 92.2068 8.32218 91.9745 9.42496H91.8196C91.7938 9.1685 91.7809 8.92486 91.7809 8.69405C91.7809 8.46323 91.7809 8.21959 91.7809 7.96313C91.7809 7.45021 91.7809 6.92446 91.7809 6.38589C91.8067 5.84733 91.8325 5.28311 91.8583 4.69325C91.91 3.23142 91.8712 1.84652 91.7422 0.538569C93.0328 0.615508 94.2718 0.679624 95.4591 0.730915C96.6465 0.756563 97.9113 0.769386 99.2535 0.769386C99.7181 0.769386 100.196 0.769386 100.686 0.769386C101.176 0.769386 101.68 0.756563 102.196 0.730915C103.512 0.705269 104.932 0.666801 106.455 0.615509C107.978 0.53857 109.398 0.5001 110.714 0.5001C111.153 0.5001 111.566 0.512923 111.953 0.538569C112.366 0.538569 112.753 0.551392 113.115 0.577038C113.14 0.807854 113.153 1.02585 113.153 1.23102C113.179 1.43619 113.192 1.64136 113.192 1.84652C113.192 2.23122 113.179 2.65438 113.153 3.11601C113.127 3.57764 113.102 4.12903 113.076 4.77019C113.076 5.07794 113.063 5.36005 113.037 5.61651C113.037 5.84733 113.037 6.09096 113.037 6.34742C113.037 6.78341 113.037 7.23222 113.037 7.69385C113.063 8.15548 113.102 8.73252 113.153 9.42496H112.998C112.585 7.5015 111.824 6.10379 110.714 5.23182C109.63 4.35985 108.326 3.85975 106.804 3.73152C106.597 3.70587 106.403 3.69305 106.223 3.69305C106.068 3.6674 105.926 3.65458 105.797 3.65458H105.332C105.306 4.14186 105.281 4.84713 105.255 5.77039C105.229 6.69365 105.216 7.74514 105.216 8.92486C105.216 9.84813 105.216 10.8227 105.216 11.8485C105.242 12.8487 105.268 13.8361 105.293 14.8107C105.319 15.7852 105.345 16.7213 105.371 17.6189C105.397 18.5165 105.423 19.3244 105.448 20.0425Z" fill="url(#paint4_linear_32_6904)"/>
<path d="M129.514 20.6965C129.566 22.5173 129.863 23.9792 130.405 25.0819C130.947 26.1591 131.631 26.9028 132.457 27.3132V27.467C131.94 27.4414 131.347 27.4157 130.676 27.3901C130.03 27.3645 129.333 27.3516 128.585 27.3516C127.63 27.3516 126.61 27.3773 125.526 27.4286C124.468 27.4799 123.371 27.5055 122.235 27.5055C121.925 27.5055 121.628 27.5055 121.345 27.5055C121.061 27.5055 120.79 27.4927 120.531 27.467V27.3132C121.099 27.0567 121.577 26.7233 121.964 26.313C122.351 25.9026 122.661 25.3769 122.893 24.7357C123.151 24.0946 123.332 23.3252 123.435 22.4276C123.539 21.53 123.59 20.44 123.59 19.1577C123.59 18.696 123.577 18.1959 123.551 17.6574C123.551 17.0932 123.539 16.5674 123.513 16.0801C123.28 15.6185 122.932 14.9645 122.467 14.1182C122.029 13.2462 121.512 12.2845 120.919 11.233C120.325 10.1815 119.693 9.09156 119.021 7.96313C118.35 6.8347 117.679 5.78321 117.008 4.80865C116.363 3.80845 115.756 2.94931 115.188 2.23122C114.621 1.48748 114.143 0.987377 113.756 0.730915V0.577038C114.427 0.628331 115.124 0.666801 115.847 0.692446C116.569 0.692446 117.279 0.692446 117.976 0.692446C118.621 0.692446 119.564 0.666801 120.803 0.615509C122.041 0.564216 123.319 0.538569 124.636 0.538569C124.842 0.538569 125.036 0.551392 125.216 0.577038C125.423 0.577038 125.629 0.577038 125.836 0.577038V0.730915C125.165 0.961731 124.674 1.3336 124.365 1.84652C124.081 2.3338 123.939 2.91084 123.939 3.57764C123.939 4.14185 124.094 4.85995 124.403 5.73192C124.739 6.60389 125.113 7.48868 125.526 8.38629C125.965 9.25826 126.378 10.0789 126.765 10.8483C127.178 11.5921 127.475 12.1306 127.656 12.464C128.017 11.8485 128.404 11.1048 128.817 10.2328C129.23 9.3352 129.798 8.10419 130.521 6.53977C130.96 5.61651 131.179 4.70607 131.179 3.80846C131.179 3.14166 131.037 2.53897 130.753 2.0004C130.469 1.46183 129.992 1.03867 129.32 0.730915V0.577038C130.637 0.653977 131.927 0.692446 133.192 0.692446C134.096 0.692446 134.909 0.666801 135.632 0.615509C136.354 0.564216 137.129 0.538569 137.955 0.538569C138.135 0.538569 138.303 0.538569 138.458 0.538569C138.639 0.538569 138.819 0.551392 139 0.577038V0.730915C138.587 0.961731 138.174 1.30795 137.761 1.76959C137.348 2.23122 136.922 2.75696 136.483 3.34682C136.07 3.93669 135.657 4.57784 135.244 5.27029C134.831 5.96273 134.431 6.65518 134.044 7.34763C133.244 8.80946 132.482 10.2328 131.76 11.6177C131.037 12.977 130.301 14.349 129.553 15.7339C129.527 16.1699 129.501 16.6444 129.475 17.1573C129.475 17.6446 129.475 18.1447 129.475 18.6576C129.475 19.0166 129.475 19.3757 129.475 19.7347C129.501 20.0681 129.514 20.3887 129.514 20.6965Z" fill="url(#paint5_linear_32_6904)"/>
<path d="M33.4775 31.1231C33.4978 31.345 33.508 31.577 33.508 31.819C33.5283 32.0409 33.5384 32.283 33.5384 32.5452C33.5384 33.2915 33.508 34.0681 33.4471 34.875C33.4268 35.2179 33.4166 35.5406 33.4166 35.8432C33.4166 36.1256 33.4166 36.408 33.4166 36.6904C33.4166 37.0333 33.4166 37.3863 33.4166 37.7494C33.4166 38.0923 33.4369 38.4453 33.4775 38.8083H33.3557C33.2542 38.4453 33.041 37.9712 32.7162 37.3863C32.4117 36.7811 32.0158 36.1962 31.5286 35.6314C31.0413 35.0666 30.4932 34.5825 29.8841 34.1791C29.2751 33.7555 28.6254 33.5437 27.9352 33.5437C26.7374 33.5639 25.7325 34.2093 24.9204 35.4801C24.1286 36.7509 23.7124 38.6571 23.6718 41.1986C23.6515 42.5904 23.7835 43.7805 24.0677 44.7689C24.3519 45.7371 24.7275 46.5339 25.1945 47.1592C25.6817 47.7845 26.2298 48.2484 26.8389 48.551C27.4479 48.8536 28.0773 49.0149 28.7269 49.0351C29.2345 49.0553 29.7623 49.0049 30.3105 48.8838C30.8789 48.7628 31.4169 48.551 31.9244 48.2484C32.432 47.9459 32.8888 47.5424 33.2948 47.0382C33.7211 46.5137 34.046 45.8682 34.2693 45.1017H34.3911C34.2896 46.1305 34.0561 47.1189 33.6907 48.0669C33.3456 49.0149 32.8786 49.852 32.2899 50.5782C31.7011 51.2842 30.9906 51.8591 30.1582 52.3028C29.3461 52.7466 28.4224 52.9786 27.387 52.9987C26.108 53.0189 24.9711 52.797 23.9764 52.3331C22.9816 51.849 22.1289 51.1632 21.4184 50.2756C20.7281 49.3881 20.2003 48.3291 19.8348 47.0987C19.4694 45.8481 19.2867 44.4764 19.2867 42.9838C19.2867 40.9061 19.5405 39.0706 20.048 37.4771C20.5555 35.8835 21.2966 34.5522 22.271 33.4832C23.1034 32.5755 23.9561 31.9502 24.829 31.6073C25.7223 31.2643 26.646 31.0727 27.6002 31.0324C28.4326 30.992 29.2243 31.0727 29.9755 31.2744C30.7267 31.456 31.3661 31.5669 31.894 31.6073C32.2391 31.6476 32.5436 31.6375 32.8076 31.577C33.0715 31.4963 33.2542 31.345 33.3557 31.1231H33.4775Z" fill="url(#paint6_linear_32_6904)"/>
<path d="M45.6789 43.8007C45.4556 43.0745 45.2323 42.3181 45.009 41.5314C44.7857 40.7448 44.5624 39.9984 44.339 39.2924C44.136 38.5663 43.9432 37.9006 43.7604 37.2955C43.598 36.6904 43.4559 36.1962 43.3341 35.8129C43.2529 36.0953 43.1311 36.5189 42.9687 37.0837C42.8063 37.6283 42.6134 38.2637 42.3901 38.9899C42.1871 39.716 41.9637 40.5027 41.7201 41.3499C41.4968 42.1769 41.2836 42.9939 41.0806 43.8007H45.6789ZM54.571 52.6054C54.0635 52.5852 53.5357 52.5751 52.9875 52.5751C52.4394 52.555 51.9014 52.5449 51.3736 52.5449H50.2164C49.7291 52.5651 49.1505 52.5852 48.4806 52.6054C47.8309 52.6256 47.1813 52.6357 46.5316 52.6357C46.3286 52.6357 46.1256 52.6256 45.9226 52.6054C45.7399 52.6054 45.5571 52.6054 45.3744 52.6054V52.5146C45.882 52.2121 46.2778 51.8086 46.5621 51.3044C46.8463 50.8001 46.9884 50.1647 46.9884 49.3982C46.9884 48.7124 46.8564 47.9459 46.5925 47.0987C46.5519 46.9777 46.5113 46.8465 46.4707 46.7053C46.4301 46.544 46.3895 46.3826 46.3489 46.2212H40.4716C40.431 46.3624 40.3904 46.4935 40.3498 46.6146C40.3295 46.7356 40.299 46.8566 40.2584 46.9777C40.1569 47.4416 40.0757 47.8753 40.0148 48.2787C39.9539 48.6619 39.9234 49.0351 39.9234 49.3982C39.9234 50.1244 40.0452 50.7597 40.2889 51.3044C40.5325 51.8288 40.9182 52.2322 41.4461 52.5146V52.6054C40.9791 52.5852 40.5325 52.5751 40.1062 52.5751C39.6798 52.555 39.2433 52.5449 38.7967 52.5449H37.7918C37.2842 52.5449 36.8173 52.555 36.391 52.5751C35.9849 52.5953 35.5484 52.6054 35.0815 52.6054C34.9191 52.6054 34.7567 52.6054 34.5943 52.6054C34.4319 52.6054 34.2593 52.5953 34.0766 52.5751V52.5146C34.7871 52.1314 35.3759 51.4859 35.8428 50.5782C36.3301 49.6503 36.8173 48.4602 37.3045 47.0079C37.5481 46.2817 37.8019 45.5152 38.0658 44.7084C38.3298 43.9016 38.5835 43.0947 38.8272 42.2879C39.0911 41.481 39.3347 40.6943 39.558 39.9278C39.8016 39.1613 40.0249 38.4453 40.228 37.7796C40.3701 37.2955 40.5223 36.7811 40.6847 36.2365C40.8675 35.6717 41.0299 35.1069 41.172 34.5421C41.3344 33.9774 41.4765 33.4327 41.5983 32.9083C41.7201 32.3838 41.8216 31.8896 41.9028 31.4257C42.3089 31.4459 42.7454 31.4661 43.2123 31.4862C43.6995 31.4862 44.1766 31.4862 44.6436 31.4862C45.0496 31.4862 45.4353 31.4862 45.8008 31.4862C46.1662 31.4661 46.5012 31.4459 46.8057 31.4257C46.9072 32.1115 47.0696 32.8982 47.2929 33.7857C47.5365 34.6531 47.8005 35.5608 48.0847 36.5088C48.308 37.2955 48.5516 38.1326 48.8155 39.0201C49.0795 39.9077 49.3535 40.8053 49.6378 41.713C49.922 42.6207 50.2062 43.5284 50.4904 44.4361C50.795 45.3236 51.0893 46.1708 51.3736 46.9777C51.5766 47.5828 51.7897 48.1778 52.013 48.7628C52.2567 49.3276 52.5104 49.852 52.7744 50.3361C53.0383 50.8203 53.3124 51.2539 53.5966 51.6372C53.9011 52.0204 54.2259 52.3129 54.571 52.5146V52.6054Z" fill="url(#paint7_linear_32_6904)"/>
<path d="M62.0557 50.2151C63.152 50.2151 63.964 49.9428 64.4919 49.3982C65.0197 48.8536 65.2836 48.198 65.2836 47.4315C65.2836 46.7053 65.0705 46.1002 64.6441 45.6161C64.2178 45.132 63.6697 44.6882 62.9997 44.2848C62.3298 43.8814 61.5786 43.488 60.7462 43.1048C59.9342 42.7014 59.1323 42.2173 58.3405 41.6525C57.4675 41.0272 56.8483 40.301 56.4829 39.474C56.1378 38.6268 55.9652 37.7494 55.9652 36.8417C55.9652 36.0348 56.0972 35.2784 56.3611 34.5724C56.6453 33.8664 57.0513 33.2512 57.5792 32.7267C58.107 32.2023 58.7567 31.7888 59.5281 31.4862C60.3199 31.1837 61.2335 31.0324 62.2688 31.0324C62.7561 31.0324 63.2433 31.0727 63.7306 31.1534C64.2381 31.2341 64.7152 31.3249 65.1618 31.4257C65.6085 31.5064 66.0145 31.5871 66.3799 31.6678C66.7657 31.7283 67.0905 31.7585 67.3544 31.7585C67.9432 31.7585 68.3187 31.5669 68.4811 31.1837H68.5725C68.5928 31.4055 68.603 31.6375 68.603 31.8796C68.6233 32.1014 68.6334 32.3334 68.6334 32.5755C68.6334 33.1201 68.603 33.7656 68.542 34.5119C68.5014 35.2381 68.4811 35.8835 68.4811 36.4483C68.4811 37.0736 68.5116 37.7594 68.5725 38.5058H68.4811C68.339 38.0015 68.0853 37.4569 67.7198 36.8719C67.3747 36.287 66.9484 35.7524 66.4408 35.2683C65.9536 34.764 65.3953 34.3505 64.766 34.0278C64.1569 33.6849 63.5072 33.5134 62.817 33.5134C62.147 33.5134 61.5583 33.705 61.0508 34.0883C60.5635 34.4514 60.3199 35.0162 60.3199 35.7827C60.3199 36.2063 60.4417 36.5996 60.6853 36.9627C60.9289 37.3056 61.2538 37.6384 61.6598 37.9612C62.0861 38.2839 62.5734 38.5965 63.1215 38.8991C63.69 39.1815 64.299 39.4841 64.9487 39.8068C66.654 40.654 67.9025 41.602 68.6943 42.6509C69.4861 43.6998 69.882 44.9505 69.882 46.4028C69.882 47.3105 69.7094 48.1678 69.3643 48.9746C69.0191 49.7613 68.5319 50.4572 67.9025 51.0623C67.2732 51.6674 66.5119 52.1415 65.6186 52.4844C64.7253 52.8273 63.7306 52.9987 62.6343 52.9987C62.0252 52.9987 61.4365 52.9584 60.868 52.8777C60.3199 52.797 59.8124 52.7063 59.3454 52.6054C58.8988 52.4844 58.4928 52.3835 58.1273 52.3028C57.7822 52.2221 57.5081 52.1818 57.3051 52.1818C57.0209 52.1818 56.7468 52.2221 56.4829 52.3028C56.219 52.3835 56.0058 52.5348 55.8434 52.7567H55.7216C55.7825 52.1314 55.8129 51.3447 55.8129 50.3967C55.8129 49.6302 55.7825 48.8637 55.7216 48.0972C55.681 47.3307 55.6607 46.5641 55.6607 45.7976C55.6607 45.5959 55.6607 45.3942 55.6607 45.1925C55.6607 44.9908 55.6708 44.779 55.6911 44.5571H55.7825C56.0667 45.5253 56.4524 46.3624 56.9397 47.0684C57.4472 47.7744 57.9852 48.3594 58.5537 48.8233C59.1424 49.2873 59.7413 49.6302 60.3503 49.852C60.9594 50.0739 61.5278 50.195 62.0557 50.2151Z" fill="url(#paint8_linear_32_6904)"/>
<path d="M78.3135 46.9171C78.3744 48.4098 78.5977 49.6402 78.9834 50.6085C79.3895 51.5565 79.9173 52.1919 80.5669 52.5146V52.6054C80.1609 52.5852 79.7143 52.5751 79.227 52.5751C78.7398 52.555 78.2221 52.5449 77.674 52.5449C77.4304 52.5449 77.1766 52.5449 76.9127 52.5449C76.669 52.5449 76.4153 52.555 76.1514 52.5751C75.6438 52.5953 75.1363 52.6054 74.6287 52.6054C74.1212 52.6256 73.6339 52.6357 73.167 52.6357C72.8219 52.6357 72.4971 52.6256 72.1925 52.6054C71.9083 52.6054 71.6241 52.6054 71.3399 52.6054V52.5146C72.1316 52.1314 72.7102 51.4657 73.0757 50.5177C73.4411 49.5495 73.6543 48.3594 73.7152 46.9474C73.7558 46.3423 73.7761 45.6363 73.7761 44.8294C73.7964 44.0226 73.8065 43.1956 73.8065 42.3484C73.8065 41.0776 73.7862 39.8774 73.7456 38.7478C73.7253 37.6182 73.6949 36.761 73.6543 36.176C73.5527 34.9052 73.3193 33.8866 72.9538 33.1201C72.5884 32.3334 72.0504 31.809 71.3399 31.5467V31.4257C71.8068 31.4661 72.2839 31.4963 72.7711 31.5165C73.2584 31.5367 73.7558 31.5467 74.2633 31.5467C74.5272 31.5467 74.781 31.5467 75.0246 31.5467C75.2885 31.5266 75.5423 31.5165 75.7859 31.5165C76.4356 31.4963 77.0649 31.4761 77.674 31.456C78.3033 31.4156 78.9225 31.3955 79.5316 31.3955C79.7143 31.3955 79.8868 31.3955 80.0493 31.3955C80.232 31.3955 80.4147 31.4055 80.5974 31.4257V31.5165C79.8868 31.7989 79.3489 32.3334 78.9834 33.1201C78.618 33.8866 78.3744 34.9052 78.2526 36.176C78.212 36.5794 78.1917 37.114 78.1917 37.7796C78.1917 38.4453 78.1917 39.1815 78.1917 39.9884C78.1917 40.5733 78.1917 41.1785 78.1917 41.8038C78.1917 42.4291 78.1917 43.0443 78.1917 43.6494C78.212 44.2546 78.2323 44.8395 78.2526 45.4043C78.2729 45.9691 78.2932 46.4734 78.3135 46.9171Z" fill="url(#paint9_linear_32_6904)"/>
<path d="M97.8734 52.6054C97.5486 52.5852 97.2136 52.5751 96.8685 52.5751C96.5437 52.555 96.2087 52.5449 95.8636 52.5449C95.4576 52.5449 95.0515 52.555 94.6455 52.5751C94.2598 52.5751 93.8943 52.5852 93.5492 52.6054C93.4274 52.323 93.1736 51.7885 92.7879 51.0018C92.4225 50.195 91.986 49.2671 91.4784 48.2182C90.9912 47.1491 90.4532 46.0094 89.8644 44.7992C89.296 43.5889 88.7479 42.4391 88.22 41.3499C87.7125 40.2405 87.2557 39.2521 86.8497 38.3848C86.4436 37.4972 86.1493 36.8618 85.9665 36.4786C85.9665 36.9022 85.9665 37.5476 85.9665 38.415C85.9868 39.2622 85.997 40.1901 85.997 41.1986C86.0173 42.2072 86.0376 43.2258 86.0579 44.2546C86.0782 45.2833 86.1087 46.1809 86.1493 46.9474C86.2305 48.2787 86.4436 49.4385 86.7888 50.4269C87.1339 51.4153 87.6922 52.1112 88.4636 52.5146V52.6054C88.0779 52.5852 87.682 52.5751 87.276 52.5751C86.87 52.5751 86.4335 52.5751 85.9665 52.5751C85.256 52.5751 84.5759 52.5852 83.9262 52.6054C83.2969 52.6256 82.7183 52.6357 82.1904 52.6357C82.0077 52.6357 81.825 52.6357 81.6423 52.6357C81.4799 52.6357 81.3073 52.6256 81.1246 52.6054V52.5146C81.6931 52.2121 82.1397 51.7986 82.4645 51.2741C82.7893 50.7295 83.0228 50.0638 83.1649 49.2772C83.3273 48.4703 83.4288 47.5122 83.4694 46.4028C83.51 45.2934 83.5303 44.0125 83.5303 42.5602C83.5303 40.8456 83.5202 39.353 83.4999 38.0822C83.4796 36.8114 83.3882 35.7322 83.2258 34.8447C83.0837 33.9572 82.8503 33.2512 82.5254 32.7267C82.2006 32.1821 81.7337 31.7888 81.1246 31.5467V31.4257C81.4697 31.4661 81.8555 31.4963 82.2818 31.5165C82.7081 31.5165 83.1548 31.5165 83.6217 31.5165C84.4947 31.5165 85.2966 31.4963 86.0275 31.456C86.7583 31.4156 87.3572 31.3955 87.8241 31.3955C87.9866 31.3955 88.1388 31.3955 88.2809 31.3955C88.423 31.3955 88.5753 31.4055 88.7377 31.4257C88.8798 31.8695 89.1234 32.5049 89.4686 33.3319C89.834 34.1589 90.24 35.0767 90.6867 36.0852C91.1536 37.0938 91.6307 38.1427 92.1179 39.2319C92.6255 40.3212 93.1026 41.3398 93.5492 42.2879C93.9958 43.2359 94.3816 44.073 94.7064 44.7992C95.0515 45.5052 95.2951 45.9994 95.4372 46.2817V42.2576C95.4372 40.6439 95.4169 39.2219 95.3763 37.9914C95.356 36.761 95.2647 35.7121 95.1023 34.8447C94.9602 33.9572 94.7267 33.2512 94.4019 32.7267C94.077 32.1821 93.6202 31.7888 93.0315 31.5467V31.4257C93.4172 31.4661 93.8334 31.4963 94.2801 31.5165C94.747 31.5367 95.2139 31.5467 95.6809 31.5467C96.635 31.5467 97.4065 31.5266 97.9952 31.4862C98.6043 31.4459 99.193 31.4257 99.7615 31.4257H100.371V31.5467C99.6194 31.8291 99.0509 32.3738 98.6652 33.1806C98.2795 33.9673 98.0562 34.9557 97.9952 36.1458C97.9749 36.4887 97.9546 37.1241 97.9343 38.0519C97.9343 38.9596 97.9242 40.0085 97.9039 41.1986C97.9039 42.3686 97.8937 43.6091 97.8734 44.9202C97.8734 46.2313 97.8734 47.4416 97.8734 48.551C97.8734 49.6402 97.8734 50.5681 97.8734 51.3346C97.8734 52.081 97.8734 52.5045 97.8734 52.6054Z" fill="url(#paint10_linear_32_6904)"/>
<path d="M110.343 33.3016C109.694 33.3016 109.135 33.5336 108.668 33.9975C108.222 34.4615 107.846 35.0868 107.542 35.8734C107.237 36.6601 107.004 37.5779 106.841 38.6268C106.699 39.6757 106.618 40.7952 106.598 41.9853C106.557 43.3368 106.608 44.5571 106.75 45.6464C106.912 46.7154 107.156 47.6231 107.481 48.3695C107.806 49.1158 108.212 49.6907 108.699 50.0941C109.186 50.4975 109.734 50.6992 110.343 50.6992C110.952 50.6992 111.49 50.4975 111.957 50.0941C112.444 49.6907 112.84 49.1158 113.145 48.3695C113.47 47.6231 113.703 46.7154 113.845 45.6464C113.987 44.5571 114.048 43.3368 114.028 41.9853C114.008 40.7952 113.916 39.6757 113.754 38.6268C113.612 37.5577 113.388 36.6299 113.084 35.8432C112.779 35.0565 112.394 34.4413 111.927 33.9975C111.48 33.5336 110.952 33.3016 110.343 33.3016ZM119.022 42.4694C119.042 44.0831 118.839 45.5455 118.413 46.8566C117.987 48.1476 117.388 49.2469 116.616 50.1546C115.845 51.0623 114.921 51.7683 113.845 52.2726C112.79 52.7567 111.622 52.9987 110.343 52.9987C109.064 52.9987 107.887 52.7567 106.811 52.2726C105.735 51.7683 104.801 51.0623 104.009 50.1546C103.217 49.2267 102.608 48.1173 102.182 46.8264C101.756 45.5152 101.563 44.0629 101.603 42.4694C101.644 40.9566 101.847 39.5143 102.212 38.1427C102.598 36.7509 103.146 35.5305 103.857 34.4816C104.588 33.4126 105.491 32.5654 106.567 31.9401C107.643 31.3148 108.902 31.0021 110.343 31.0021C111.744 31.0021 112.982 31.3148 114.058 31.9401C115.134 32.5654 116.038 33.4126 116.769 34.4816C117.5 35.5305 118.048 36.7509 118.413 38.1427C118.799 39.5143 119.002 40.9566 119.022 42.4694Z" fill="url(#paint11_linear_32_6904)"/>
<path d="M19.8237 0.577038C19.8753 0.833501 19.9011 1.08996 19.9011 1.34642C19.9011 1.57724 19.9011 1.82088 19.9011 2.07734C19.9011 2.82108 19.8624 3.6674 19.7849 4.61631C19.7591 5.12923 19.7333 5.59086 19.7075 6.0012C19.7075 6.38589 19.7075 6.80905 19.7075 7.27069C19.7075 7.55279 19.7075 7.86055 19.7075 8.19395C19.7075 8.52735 19.7204 8.89922 19.7462 9.30956H19.5913C19.2558 8.18112 18.7654 7.25786 18.1201 6.53977C17.5006 5.79603 16.7778 5.20617 15.9518 4.77019C15.1517 4.3342 14.2999 4.02645 13.3965 3.84692C12.5188 3.6674 11.6541 3.57764 10.8023 3.57764H8.86644C8.84063 3.93669 8.81482 4.42396 8.789 5.03947C8.789 5.65498 8.7761 6.34742 8.75028 7.11681C8.75028 7.88619 8.73738 8.70687 8.71157 9.57884C8.71157 10.4508 8.71157 11.3356 8.71157 12.2332C8.9955 12.2332 9.34396 12.2332 9.75696 12.2332C10.1958 12.2076 10.5571 12.1691 10.8411 12.1178C11.5122 12.0152 12.1059 11.8229 12.6221 11.5408C13.1383 11.2587 13.59 10.9381 13.9772 10.579C14.3644 10.1943 14.6742 9.79683 14.9065 9.38649C15.1388 8.95051 15.2936 8.54017 15.3711 8.15548H15.4872C15.513 8.36065 15.5259 8.55299 15.5259 8.73252C15.5259 8.91204 15.5259 9.10439 15.5259 9.30956C15.5259 10.002 15.5001 10.7329 15.4485 11.5023C15.4227 12.246 15.384 13.0154 15.3324 13.8105C15.3065 14.8876 15.3195 15.8493 15.3711 16.6957C15.4485 17.542 15.5259 18.3755 15.6034 19.1961H15.4485C15.0871 17.9651 14.4935 17.029 13.6675 16.3879C12.8673 15.7211 11.9252 15.3236 10.8411 15.1953C10.4797 15.1697 10.0925 15.1569 9.67952 15.1569C9.26653 15.1569 8.94388 15.1569 8.71157 15.1569C8.71157 15.9519 8.72447 16.7213 8.75028 17.465C8.80191 18.1831 8.84063 18.8371 8.86644 19.427C8.89225 20.1451 8.94388 20.9016 9.02131 21.6967C9.09875 22.4917 9.24071 23.2611 9.44721 24.0048C9.65371 24.7485 9.93764 25.4153 10.299 26.0052C10.6862 26.5951 11.1895 27.0439 11.809 27.3516V27.467C11.1895 27.4157 10.4668 27.3901 9.6408 27.3901C8.84063 27.3645 8.02755 27.3516 7.20156 27.3516H6.07874C5.38181 27.3773 4.59454 27.4157 3.71694 27.467C2.86514 27.4927 2.05206 27.5055 1.2777 27.5055C1.04539 27.5055 0.825986 27.5055 0.619489 27.5055C0.412993 27.5055 0.206496 27.4927 0 27.467V27.3516C0.567865 27.0695 1.03248 26.7233 1.39385 26.313C1.78103 25.877 2.09078 25.3384 2.32308 24.6973C2.55539 24.0561 2.72317 23.3124 2.82642 22.466C2.92967 21.5941 2.9942 20.5939 3.02001 19.4654C3.09745 17.0547 3.13616 14.7722 3.13616 12.6179C3.13616 11.5408 3.12326 10.5149 3.09745 9.54037C3.07163 8.54017 3.02001 7.59126 2.94257 6.69365C2.76189 4.94971 2.46505 3.61611 2.05206 2.69285C1.63907 1.76959 0.955046 1.10279 0 0.692446V0.538569C0.825986 0.589862 1.74231 0.628332 2.74898 0.653978C3.78147 0.679624 4.80104 0.692446 5.80771 0.692446C6.68532 0.692446 7.52421 0.692446 8.32439 0.692446C9.12456 0.666801 9.83439 0.653978 10.4539 0.653978C10.8669 0.653978 11.3573 0.641155 11.9252 0.615509C12.493 0.589862 13.0867 0.577038 13.7062 0.577038C14.3257 0.551392 14.9581 0.538569 15.6034 0.538569C16.2487 0.512923 16.8682 0.5001 17.4619 0.5001C17.9265 0.5001 18.3524 0.512923 18.7395 0.538569C19.1525 0.538569 19.5139 0.551392 19.8237 0.577038Z" stroke="url(#paint12_linear_32_6904)" stroke-opacity="0.75" stroke-width="2" mask="url(#path-1-inside-1_32_6904)"/>
<path d="M30.3438 22.1968C30.4728 23.4021 30.7568 24.4921 31.1956 25.4666C31.6344 26.4155 32.2668 27.031 33.0928 27.3132V27.467C32.2926 27.4157 31.3892 27.3901 30.3825 27.3901C29.3758 27.3901 28.4079 27.3901 27.4786 27.3901C26.7301 27.3901 25.9428 27.4157 25.1168 27.467C24.2909 27.4927 23.4649 27.5055 22.6389 27.5055C22.4324 27.5055 22.2259 27.4927 22.0194 27.467C21.8387 27.467 21.6451 27.467 21.4386 27.467V27.3132C22.4195 26.7233 23.1293 25.8513 23.5681 24.6973C24.0069 23.5432 24.2779 22.0172 24.3812 20.1194C24.4328 19.3757 24.4586 18.5165 24.4586 17.542C24.4844 16.5418 24.4974 15.5159 24.4974 14.4644C24.4974 13.6694 24.4844 12.8744 24.4586 12.0793C24.4586 11.2843 24.4457 10.5406 24.4199 9.84812C24.4199 9.13003 24.407 8.48888 24.3812 7.92466C24.3554 7.3348 24.3296 6.86035 24.3038 6.5013C24.1489 4.96253 23.8779 3.70587 23.4907 2.73132C23.1035 1.73112 22.4195 1.02585 21.4386 0.615509V0.5001C22.5485 0.57704 23.7746 0.615509 25.1168 0.615509H26.4333C27.1818 0.589862 27.9691 0.564215 28.7951 0.538569C29.6469 0.487278 30.5632 0.461632 31.544 0.461632C31.9312 0.461632 32.3184 0.474455 32.7056 0.5001C33.1186 0.5001 33.5445 0.512923 33.9833 0.538569C34.8093 0.589862 35.7256 0.718093 36.7323 0.923261C37.7389 1.10278 38.694 1.43619 39.5974 1.92346C40.5008 2.41074 41.2881 3.07754 41.9592 3.92386C42.6303 4.77018 43.0433 5.88579 43.1982 7.27069C43.3014 8.34783 43.1982 9.29673 42.8884 10.1174C42.6045 10.9381 42.1915 11.6434 41.6495 12.2332C41.1074 12.7974 40.4879 13.2462 39.791 13.5796C39.1199 13.913 38.4488 14.1439 37.7776 14.2721C38.4488 15.8878 39.1457 17.5292 39.8684 19.1961C40.617 20.8632 41.4559 22.4404 42.3851 23.9279C42.8239 24.646 43.3272 25.3256 43.8951 25.9667C44.4888 26.6079 45.2502 27.0439 46.1795 27.2747V27.467C46.0504 27.544 45.8181 27.6209 45.4825 27.6979C45.147 27.7748 44.7469 27.8389 44.2823 27.8902C43.8177 27.9671 43.3143 28.0184 42.7723 28.0441C42.2302 28.0697 41.714 28.0569 41.2236 28.0056C40.3201 27.9287 39.5587 27.7491 38.9392 27.467C38.3197 27.1849 37.7776 26.8259 37.313 26.3899C36.8484 25.9283 36.4483 25.4025 36.1128 24.8127C35.7772 24.2228 35.4546 23.5945 35.1448 22.9277C34.9899 22.6199 34.7705 22.1455 34.4866 21.5043C34.2285 20.8375 33.9317 20.0809 33.5961 19.2346C33.2605 18.3883 32.9121 17.4779 32.5507 16.5033C32.2151 15.5287 31.8925 14.567 31.5828 13.6181C33.4928 13.3616 34.9383 12.7461 35.9192 11.7716C36.9 10.7714 37.3001 9.34802 37.1194 7.5015C37.042 6.55259 36.771 5.79603 36.3064 5.23182C35.8676 4.6676 35.3255 4.23162 34.6802 3.92386C34.0349 3.61611 33.3122 3.42376 32.512 3.34682C31.7376 3.26988 30.9762 3.24424 30.2276 3.26989C30.2018 3.70587 30.176 4.29573 30.1502 5.03947C30.1502 5.78321 30.1373 6.59106 30.1115 7.46303C30.1115 8.335 30.0986 9.21979 30.0728 10.1174C30.0728 11.015 30.0728 11.8229 30.0728 12.541C30.0728 13.2591 30.0728 14.0541 30.0728 14.9261C30.0728 15.798 30.0857 16.67 30.1115 17.542C30.1373 18.4139 30.1631 19.2603 30.1889 20.0809C30.2405 20.876 30.2922 21.5812 30.3438 22.1968Z" stroke="url(#paint13_linear_32_6904)" stroke-opacity="0.75" stroke-width="2" mask="url(#path-1-inside-1_32_6904)"/>
<path d="M57.3034 2.92366C56.4774 2.92366 55.7675 3.21859 55.1739 3.80846C54.606 4.39832 54.1285 5.19335 53.7413 6.19355C53.3541 7.19375 53.0573 8.36065 52.8508 9.69425C52.6701 11.0278 52.5668 12.4512 52.541 13.9643C52.4894 15.6826 52.5539 17.2342 52.7346 18.6191C52.9411 19.9784 53.2509 21.1324 53.6639 22.0813C54.0768 23.0303 54.5931 23.7612 55.2126 24.2741C55.8321 24.787 56.529 25.0435 57.3034 25.0435C58.0777 25.0435 58.7617 24.787 59.3554 24.2741C59.9749 23.7612 60.4782 23.0303 60.8654 22.0813C61.2784 21.1324 61.5752 19.9784 61.7559 18.6191C61.9366 17.2342 62.014 15.6826 61.9882 13.9643C61.9624 12.4512 61.8463 11.0278 61.6398 9.69425C61.4591 8.335 61.1752 7.15528 60.788 6.15508C60.4008 5.15488 59.9104 4.37267 59.3167 3.80846C58.7488 3.21859 58.0777 2.92366 57.3034 2.92366ZM68.338 14.5798C68.3638 16.6315 68.1057 18.4909 67.5636 20.1579C67.0216 21.7992 66.2601 23.197 65.2793 24.351C64.2984 25.5051 63.124 26.4027 61.7559 27.0439C60.4137 27.6594 58.9295 27.9671 57.3034 27.9671C55.6772 27.9671 54.1801 27.6594 52.8121 27.0439C51.444 26.4027 50.2567 25.5051 49.25 24.351C48.2433 23.1713 47.469 21.7608 46.9269 20.1194C46.3849 18.4524 46.1396 16.6059 46.1913 14.5798C46.2429 12.6564 46.501 10.8227 46.9656 9.07874C47.4561 7.30915 48.153 5.75756 49.0564 4.42396C49.9856 3.06472 51.1343 1.98758 52.5023 1.19255C53.8704 0.397516 55.4707 0 57.3034 0C59.0844 0 60.6589 0.397516 62.027 1.19255C63.395 1.98758 64.5436 3.06472 65.4729 4.42396C66.4021 5.75756 67.099 7.30915 67.5636 9.07874C68.0541 10.8227 68.3122 12.6564 68.338 14.5798Z" stroke="url(#paint14_linear_32_6904)" stroke-opacity="0.75" stroke-width="2" mask="url(#path-1-inside-1_32_6904)"/>
<path d="M79.3572 24.428C80.7511 24.428 81.7836 24.0817 82.4547 23.3893C83.1258 22.6969 83.4613 21.8634 83.4613 20.8888C83.4613 19.9655 83.1903 19.1961 82.6483 18.5806C82.1062 17.9651 81.4093 17.4009 80.5575 16.888C79.7057 16.3751 78.7506 15.875 77.6924 15.3877C76.6599 14.8748 75.6403 14.2593 74.6336 13.5412C73.5237 12.7461 72.7364 11.8229 72.2718 10.7714C71.833 9.69425 71.6136 8.57864 71.6136 7.42456C71.6136 6.39872 71.7814 5.43699 72.117 4.53937C72.4783 3.64175 72.9946 2.85955 73.6657 2.19275C74.3368 1.52595 75.1628 1.0002 76.1436 0.615509C77.1503 0.230816 78.3118 0.0384687 79.6283 0.0384687C80.2477 0.0384687 80.8672 0.0897611 81.4867 0.192346C82.132 0.294931 82.7386 0.410339 83.3065 0.538569C83.8743 0.641154 84.3906 0.743739 84.8552 0.846324C85.3456 0.923263 85.7586 0.961732 86.0942 0.961732C86.8427 0.961732 87.3202 0.718094 87.5267 0.230817H87.6429C87.6687 0.512924 87.6816 0.807854 87.6816 1.11561C87.7074 1.39772 87.7203 1.69265 87.7203 2.0004C87.7203 2.69285 87.6816 3.51352 87.6042 4.46243C87.5526 5.38569 87.5267 6.20637 87.5267 6.92446C87.5267 7.71949 87.5655 8.59146 87.6429 9.54037H87.5267C87.3461 8.89922 87.0234 8.20677 86.5588 7.46303C86.12 6.71929 85.5779 6.03967 84.9326 5.42416C84.3131 4.78301 83.6033 4.25726 82.8031 3.84692C82.0288 3.41094 81.2028 3.19295 80.3252 3.19295C79.4734 3.19295 78.7248 3.43659 78.0795 3.92386C77.46 4.38549 77.1503 5.10359 77.1503 6.07814C77.1503 6.61671 77.3052 7.11681 77.6149 7.57844C77.9247 8.01443 78.3377 8.43759 78.8539 8.84793C79.3959 9.25826 80.0154 9.65578 80.7124 10.0405C81.4351 10.3995 82.2095 10.7842 83.0354 11.1945C85.2037 12.2717 86.7911 13.4771 87.7978 14.8107C88.8044 16.1443 89.3078 17.7343 89.3078 19.5808C89.3078 20.7349 89.0884 21.8249 88.6496 22.8507C88.2108 23.8509 87.5913 24.7357 86.7911 25.5051C85.9909 26.2745 85.023 26.8772 83.8872 27.3132C82.7515 27.7491 81.4867 27.9671 80.0929 27.9671C79.3185 27.9671 78.57 27.9158 77.8472 27.8133C77.1503 27.7107 76.505 27.5953 75.9113 27.467C75.3435 27.3132 74.8272 27.1849 74.3626 27.0823C73.9238 26.9798 73.5753 26.9285 73.3172 26.9285C72.9558 26.9285 72.6074 26.9798 72.2718 27.0823C71.9363 27.1849 71.6652 27.3773 71.4587 27.6594H71.3039C71.3813 26.8644 71.42 25.8642 71.42 24.6588C71.42 23.6842 71.3813 22.7097 71.3039 21.7351C71.2522 20.7606 71.2264 19.786 71.2264 18.8115C71.2264 18.555 71.2264 18.2985 71.2264 18.0421C71.2264 17.7856 71.2393 17.5163 71.2651 17.2342H71.3813C71.7427 18.4652 72.2331 19.5295 72.8526 20.4272C73.4979 21.3248 74.1819 22.0685 74.9046 22.6584C75.6532 23.2482 76.4147 23.6842 77.189 23.9663C77.9634 24.2484 78.6861 24.4023 79.3572 24.428Z" stroke="url(#paint15_linear_32_6904)" stroke-opacity="0.75" stroke-width="2" mask="url(#path-1-inside-1_32_6904)"/>
<path d="M105.448 20.0425C105.526 21.9146 105.784 23.4791 106.223 24.7357C106.662 25.9667 107.358 26.8259 108.314 27.3132V27.467C107.823 27.4157 107.242 27.3901 106.571 27.3901C105.926 27.3645 105.255 27.3516 104.558 27.3516C104.171 27.3516 103.796 27.3516 103.435 27.3516C103.074 27.3516 102.738 27.3645 102.428 27.3901C101.783 27.4157 101.099 27.4414 100.376 27.467C99.6794 27.4927 98.9695 27.5055 98.2468 27.5055C97.9629 27.5055 97.6789 27.5055 97.395 27.5055C97.1111 27.5055 96.8271 27.4927 96.5432 27.467V27.3132C97.4983 26.7233 98.221 25.8642 98.7114 24.7357C99.2277 23.6073 99.5116 22.0685 99.5632 20.1194C99.589 18.8115 99.6019 17.3368 99.6019 15.6954C99.6278 14.0541 99.6407 12.4256 99.6407 10.8099C99.6407 9.19415 99.6278 7.74514 99.6019 6.46283C99.6019 5.18052 99.589 4.24444 99.5632 3.65458L98.4791 3.73152C97.7306 3.80846 97.0078 3.93669 96.3109 4.11621C95.6398 4.29573 95.0203 4.60349 94.4524 5.03947C93.8846 5.44981 93.3812 6.01402 92.9424 6.73212C92.5294 7.42456 92.2068 8.32218 91.9745 9.42496H91.8196C91.7938 9.1685 91.7809 8.92486 91.7809 8.69405C91.7809 8.46323 91.7809 8.21959 91.7809 7.96313C91.7809 7.45021 91.7809 6.92446 91.7809 6.38589C91.8067 5.84733 91.8325 5.28311 91.8583 4.69325C91.91 3.23142 91.8712 1.84652 91.7422 0.538569C93.0328 0.615508 94.2718 0.679624 95.4591 0.730915C96.6465 0.756563 97.9113 0.769386 99.2535 0.769386C99.7181 0.769386 100.196 0.769386 100.686 0.769386C101.176 0.769386 101.68 0.756563 102.196 0.730915C103.512 0.705269 104.932 0.666801 106.455 0.615509C107.978 0.53857 109.398 0.5001 110.714 0.5001C111.153 0.5001 111.566 0.512923 111.953 0.538569C112.366 0.538569 112.753 0.551392 113.115 0.577038C113.14 0.807854 113.153 1.02585 113.153 1.23102C113.179 1.43619 113.192 1.64136 113.192 1.84652C113.192 2.23122 113.179 2.65438 113.153 3.11601C113.127 3.57764 113.102 4.12903 113.076 4.77019C113.076 5.07794 113.063 5.36005 113.037 5.61651C113.037 5.84733 113.037 6.09096 113.037 6.34742C113.037 6.78341 113.037 7.23222 113.037 7.69385C113.063 8.15548 113.102 8.73252 113.153 9.42496H112.998C112.585 7.5015 111.824 6.10379 110.714 5.23182C109.63 4.35985 108.326 3.85975 106.804 3.73152C106.597 3.70587 106.403 3.69305 106.223 3.69305C106.068 3.6674 105.926 3.65458 105.797 3.65458H105.332C105.306 4.14186 105.281 4.84713 105.255 5.77039C105.229 6.69365 105.216 7.74514 105.216 8.92486C105.216 9.84813 105.216 10.8227 105.216 11.8485C105.242 12.8487 105.268 13.8361 105.293 14.8107C105.319 15.7852 105.345 16.7213 105.371 17.6189C105.397 18.5165 105.423 19.3244 105.448 20.0425Z" stroke="url(#paint16_linear_32_6904)" stroke-opacity="0.75" stroke-width="2" mask="url(#path-1-inside-1_32_6904)"/>
<path d="M129.514 20.6965C129.566 22.5173 129.863 23.9792 130.405 25.0819C130.947 26.1591 131.631 26.9028 132.457 27.3132V27.467C131.94 27.4414 131.347 27.4157 130.676 27.3901C130.03 27.3645 129.333 27.3516 128.585 27.3516C127.63 27.3516 126.61 27.3773 125.526 27.4286C124.468 27.4799 123.371 27.5055 122.235 27.5055C121.925 27.5055 121.628 27.5055 121.345 27.5055C121.061 27.5055 120.79 27.4927 120.531 27.467V27.3132C121.099 27.0567 121.577 26.7233 121.964 26.313C122.351 25.9026 122.661 25.3769 122.893 24.7357C123.151 24.0946 123.332 23.3252 123.435 22.4276C123.539 21.53 123.59 20.44 123.59 19.1577C123.59 18.696 123.577 18.1959 123.551 17.6574C123.551 17.0932 123.539 16.5674 123.513 16.0801C123.28 15.6185 122.932 14.9645 122.467 14.1182C122.029 13.2462 121.512 12.2845 120.919 11.233C120.325 10.1815 119.693 9.09156 119.021 7.96313C118.35 6.8347 117.679 5.78321 117.008 4.80865C116.363 3.80845 115.756 2.94931 115.188 2.23122C114.621 1.48748 114.143 0.987377 113.756 0.730915V0.577038C114.427 0.628331 115.124 0.666801 115.847 0.692446C116.569 0.692446 117.279 0.692446 117.976 0.692446C118.621 0.692446 119.564 0.666801 120.803 0.615509C122.041 0.564216 123.319 0.538569 124.636 0.538569C124.842 0.538569 125.036 0.551392 125.216 0.577038C125.423 0.577038 125.629 0.577038 125.836 0.577038V0.730915C125.165 0.961731 124.674 1.3336 124.365 1.84652C124.081 2.3338 123.939 2.91084 123.939 3.57764C123.939 4.14185 124.094 4.85995 124.403 5.73192C124.739 6.60389 125.113 7.48868 125.526 8.38629C125.965 9.25826 126.378 10.0789 126.765 10.8483C127.178 11.5921 127.475 12.1306 127.656 12.464C128.017 11.8485 128.404 11.1048 128.817 10.2328C129.23 9.3352 129.798 8.10419 130.521 6.53977C130.96 5.61651 131.179 4.70607 131.179 3.80846C131.179 3.14166 131.037 2.53897 130.753 2.0004C130.469 1.46183 129.992 1.03867 129.32 0.730915V0.577038C130.637 0.653977 131.927 0.692446 133.192 0.692446C134.096 0.692446 134.909 0.666801 135.632 0.615509C136.354 0.564216 137.129 0.538569 137.955 0.538569C138.135 0.538569 138.303 0.538569 138.458 0.538569C138.639 0.538569 138.819 0.551392 139 0.577038V0.730915C138.587 0.961731 138.174 1.30795 137.761 1.76959C137.348 2.23122 136.922 2.75696 136.483 3.34682C136.07 3.93669 135.657 4.57784 135.244 5.27029C134.831 5.96273 134.431 6.65518 134.044 7.34763C133.244 8.80946 132.482 10.2328 131.76 11.6177C131.037 12.977 130.301 14.349 129.553 15.7339C129.527 16.1699 129.501 16.6444 129.475 17.1573C129.475 17.6446 129.475 18.1447 129.475 18.6576C129.475 19.0166 129.475 19.3757 129.475 19.7347C129.501 20.0681 129.514 20.3887 129.514 20.6965Z" stroke="url(#paint17_linear_32_6904)" stroke-opacity="0.75" stroke-width="2" mask="url(#path-1-inside-1_32_6904)"/>
<path d="M33.4775 31.1231C33.4978 31.345 33.508 31.577 33.508 31.819C33.5283 32.0409 33.5384 32.283 33.5384 32.5452C33.5384 33.2915 33.508 34.0681 33.4471 34.875C33.4268 35.2179 33.4166 35.5406 33.4166 35.8432C33.4166 36.1256 33.4166 36.408 33.4166 36.6904C33.4166 37.0333 33.4166 37.3863 33.4166 37.7494C33.4166 38.0923 33.4369 38.4453 33.4775 38.8083H33.3557C33.2542 38.4453 33.041 37.9712 32.7162 37.3863C32.4117 36.7811 32.0158 36.1962 31.5286 35.6314C31.0413 35.0666 30.4932 34.5825 29.8841 34.1791C29.2751 33.7555 28.6254 33.5437 27.9352 33.5437C26.7374 33.5639 25.7325 34.2093 24.9204 35.4801C24.1286 36.7509 23.7124 38.6571 23.6718 41.1986C23.6515 42.5904 23.7835 43.7805 24.0677 44.7689C24.3519 45.7371 24.7275 46.5339 25.1945 47.1592C25.6817 47.7845 26.2298 48.2484 26.8389 48.551C27.4479 48.8536 28.0773 49.0149 28.7269 49.0351C29.2345 49.0553 29.7623 49.0049 30.3105 48.8838C30.8789 48.7628 31.4169 48.551 31.9244 48.2484C32.432 47.9459 32.8888 47.5424 33.2948 47.0382C33.7211 46.5137 34.046 45.8682 34.2693 45.1017H34.3911C34.2896 46.1305 34.0561 47.1189 33.6907 48.0669C33.3456 49.0149 32.8786 49.852 32.2899 50.5782C31.7011 51.2842 30.9906 51.8591 30.1582 52.3028C29.3461 52.7466 28.4224 52.9786 27.387 52.9987C26.108 53.0189 24.9711 52.797 23.9764 52.3331C22.9816 51.849 22.1289 51.1632 21.4184 50.2756C20.7281 49.3881 20.2003 48.3291 19.8348 47.0987C19.4694 45.8481 19.2867 44.4764 19.2867 42.9838C19.2867 40.9061 19.5405 39.0706 20.048 37.4771C20.5555 35.8835 21.2966 34.5522 22.271 33.4832C23.1034 32.5755 23.9561 31.9502 24.829 31.6073C25.7223 31.2643 26.646 31.0727 27.6002 31.0324C28.4326 30.992 29.2243 31.0727 29.9755 31.2744C30.7267 31.456 31.3661 31.5669 31.894 31.6073C32.2391 31.6476 32.5436 31.6375 32.8076 31.577C33.0715 31.4963 33.2542 31.345 33.3557 31.1231H33.4775Z" stroke="url(#paint18_linear_32_6904)" stroke-opacity="0.75" stroke-width="2" mask="url(#path-1-inside-1_32_6904)"/>
<path d="M45.6789 43.8007C45.4556 43.0745 45.2323 42.3181 45.009 41.5314C44.7857 40.7448 44.5624 39.9984 44.339 39.2924C44.136 38.5663 43.9432 37.9006 43.7604 37.2955C43.598 36.6904 43.4559 36.1962 43.3341 35.8129C43.2529 36.0953 43.1311 36.5189 42.9687 37.0837C42.8063 37.6283 42.6134 38.2637 42.3901 38.9899C42.1871 39.716 41.9637 40.5027 41.7201 41.3499C41.4968 42.1769 41.2836 42.9939 41.0806 43.8007H45.6789ZM54.571 52.6054C54.0635 52.5852 53.5357 52.5751 52.9875 52.5751C52.4394 52.555 51.9014 52.5449 51.3736 52.5449H50.2164C49.7291 52.5651 49.1505 52.5852 48.4806 52.6054C47.8309 52.6256 47.1813 52.6357 46.5316 52.6357C46.3286 52.6357 46.1256 52.6256 45.9226 52.6054C45.7399 52.6054 45.5571 52.6054 45.3744 52.6054V52.5146C45.882 52.2121 46.2778 51.8086 46.5621 51.3044C46.8463 50.8001 46.9884 50.1647 46.9884 49.3982C46.9884 48.7124 46.8564 47.9459 46.5925 47.0987C46.5519 46.9777 46.5113 46.8465 46.4707 46.7053C46.4301 46.544 46.3895 46.3826 46.3489 46.2212H40.4716C40.431 46.3624 40.3904 46.4935 40.3498 46.6146C40.3295 46.7356 40.299 46.8566 40.2584 46.9777C40.1569 47.4416 40.0757 47.8753 40.0148 48.2787C39.9539 48.6619 39.9234 49.0351 39.9234 49.3982C39.9234 50.1244 40.0452 50.7597 40.2889 51.3044C40.5325 51.8288 40.9182 52.2322 41.4461 52.5146V52.6054C40.9791 52.5852 40.5325 52.5751 40.1062 52.5751C39.6798 52.555 39.2433 52.5449 38.7967 52.5449H37.7918C37.2842 52.5449 36.8173 52.555 36.391 52.5751C35.9849 52.5953 35.5484 52.6054 35.0815 52.6054C34.9191 52.6054 34.7567 52.6054 34.5943 52.6054C34.4319 52.6054 34.2593 52.5953 34.0766 52.5751V52.5146C34.7871 52.1314 35.3759 51.4859 35.8428 50.5782C36.3301 49.6503 36.8173 48.4602 37.3045 47.0079C37.5481 46.2817 37.8019 45.5152 38.0658 44.7084C38.3298 43.9016 38.5835 43.0947 38.8272 42.2879C39.0911 41.481 39.3347 40.6943 39.558 39.9278C39.8016 39.1613 40.0249 38.4453 40.228 37.7796C40.3701 37.2955 40.5223 36.7811 40.6847 36.2365C40.8675 35.6717 41.0299 35.1069 41.172 34.5421C41.3344 33.9774 41.4765 33.4327 41.5983 32.9083C41.7201 32.3838 41.8216 31.8896 41.9028 31.4257C42.3089 31.4459 42.7454 31.4661 43.2123 31.4862C43.6995 31.4862 44.1766 31.4862 44.6436 31.4862C45.0496 31.4862 45.4353 31.4862 45.8008 31.4862C46.1662 31.4661 46.5012 31.4459 46.8057 31.4257C46.9072 32.1115 47.0696 32.8982 47.2929 33.7857C47.5365 34.6531 47.8005 35.5608 48.0847 36.5088C48.308 37.2955 48.5516 38.1326 48.8155 39.0201C49.0795 39.9077 49.3535 40.8053 49.6378 41.713C49.922 42.6207 50.2062 43.5284 50.4904 44.4361C50.795 45.3236 51.0893 46.1708 51.3736 46.9777C51.5766 47.5828 51.7897 48.1778 52.013 48.7628C52.2567 49.3276 52.5104 49.852 52.7744 50.3361C53.0383 50.8203 53.3124 51.2539 53.5966 51.6372C53.9011 52.0204 54.2259 52.3129 54.571 52.5146V52.6054Z" stroke="url(#paint19_linear_32_6904)" stroke-opacity="0.75" stroke-width="2" mask="url(#path-1-inside-1_32_6904)"/>
<path d="M62.0557 50.2151C63.152 50.2151 63.964 49.9428 64.4919 49.3982C65.0197 48.8536 65.2836 48.198 65.2836 47.4315C65.2836 46.7053 65.0705 46.1002 64.6441 45.6161C64.2178 45.132 63.6697 44.6882 62.9997 44.2848C62.3298 43.8814 61.5786 43.488 60.7462 43.1048C59.9342 42.7014 59.1323 42.2173 58.3405 41.6525C57.4675 41.0272 56.8483 40.301 56.4829 39.474C56.1378 38.6268 55.9652 37.7494 55.9652 36.8417C55.9652 36.0348 56.0972 35.2784 56.3611 34.5724C56.6453 33.8664 57.0513 33.2512 57.5792 32.7267C58.107 32.2023 58.7567 31.7888 59.5281 31.4862C60.3199 31.1837 61.2335 31.0324 62.2688 31.0324C62.7561 31.0324 63.2433 31.0727 63.7306 31.1534C64.2381 31.2341 64.7152 31.3249 65.1618 31.4257C65.6085 31.5064 66.0145 31.5871 66.3799 31.6678C66.7657 31.7283 67.0905 31.7585 67.3544 31.7585C67.9432 31.7585 68.3187 31.5669 68.4811 31.1837H68.5725C68.5928 31.4055 68.603 31.6375 68.603 31.8796C68.6233 32.1014 68.6334 32.3334 68.6334 32.5755C68.6334 33.1201 68.603 33.7656 68.542 34.5119C68.5014 35.2381 68.4811 35.8835 68.4811 36.4483C68.4811 37.0736 68.5116 37.7594 68.5725 38.5058H68.4811C68.339 38.0015 68.0853 37.4569 67.7198 36.8719C67.3747 36.287 66.9484 35.7524 66.4408 35.2683C65.9536 34.764 65.3953 34.3505 64.766 34.0278C64.1569 33.6849 63.5072 33.5134 62.817 33.5134C62.147 33.5134 61.5583 33.705 61.0508 34.0883C60.5635 34.4514 60.3199 35.0162 60.3199 35.7827C60.3199 36.2063 60.4417 36.5996 60.6853 36.9627C60.9289 37.3056 61.2538 37.6384 61.6598 37.9612C62.0861 38.2839 62.5734 38.5965 63.1215 38.8991C63.69 39.1815 64.299 39.4841 64.9487 39.8068C66.654 40.654 67.9025 41.602 68.6943 42.6509C69.4861 43.6998 69.882 44.9505 69.882 46.4028C69.882 47.3105 69.7094 48.1678 69.3643 48.9746C69.0191 49.7613 68.5319 50.4572 67.9025 51.0623C67.2732 51.6674 66.5119 52.1415 65.6186 52.4844C64.7253 52.8273 63.7306 52.9987 62.6343 52.9987C62.0252 52.9987 61.4365 52.9584 60.868 52.8777C60.3199 52.797 59.8124 52.7063 59.3454 52.6054C58.8988 52.4844 58.4928 52.3835 58.1273 52.3028C57.7822 52.2221 57.5081 52.1818 57.3051 52.1818C57.0209 52.1818 56.7468 52.2221 56.4829 52.3028C56.219 52.3835 56.0058 52.5348 55.8434 52.7567H55.7216C55.7825 52.1314 55.8129 51.3447 55.8129 50.3967C55.8129 49.6302 55.7825 48.8637 55.7216 48.0972C55.681 47.3307 55.6607 46.5641 55.6607 45.7976C55.6607 45.5959 55.6607 45.3942 55.6607 45.1925C55.6607 44.9908 55.6708 44.779 55.6911 44.5571H55.7825C56.0667 45.5253 56.4524 46.3624 56.9397 47.0684C57.4472 47.7744 57.9852 48.3594 58.5537 48.8233C59.1424 49.2873 59.7413 49.6302 60.3503 49.852C60.9594 50.0739 61.5278 50.195 62.0557 50.2151Z" stroke="url(#paint20_linear_32_6904)" stroke-opacity="0.75" stroke-width="2" mask="url(#path-1-inside-1_32_6904)"/>
<path d="M78.3135 46.9171C78.3744 48.4098 78.5977 49.6402 78.9834 50.6085C79.3895 51.5565 79.9173 52.1919 80.5669 52.5146V52.6054C80.1609 52.5852 79.7143 52.5751 79.227 52.5751C78.7398 52.555 78.2221 52.5449 77.674 52.5449C77.4304 52.5449 77.1766 52.5449 76.9127 52.5449C76.669 52.5449 76.4153 52.555 76.1514 52.5751C75.6438 52.5953 75.1363 52.6054 74.6287 52.6054C74.1212 52.6256 73.6339 52.6357 73.167 52.6357C72.8219 52.6357 72.4971 52.6256 72.1925 52.6054C71.9083 52.6054 71.6241 52.6054 71.3399 52.6054V52.5146C72.1316 52.1314 72.7102 51.4657 73.0757 50.5177C73.4411 49.5495 73.6543 48.3594 73.7152 46.9474C73.7558 46.3423 73.7761 45.6363 73.7761 44.8294C73.7964 44.0226 73.8065 43.1956 73.8065 42.3484C73.8065 41.0776 73.7862 39.8774 73.7456 38.7478C73.7253 37.6182 73.6949 36.761 73.6543 36.176C73.5527 34.9052 73.3193 33.8866 72.9538 33.1201C72.5884 32.3334 72.0504 31.809 71.3399 31.5467V31.4257C71.8068 31.4661 72.2839 31.4963 72.7711 31.5165C73.2584 31.5367 73.7558 31.5467 74.2633 31.5467C74.5272 31.5467 74.781 31.5467 75.0246 31.5467C75.2885 31.5266 75.5423 31.5165 75.7859 31.5165C76.4356 31.4963 77.0649 31.4761 77.674 31.456C78.3033 31.4156 78.9225 31.3955 79.5316 31.3955C79.7143 31.3955 79.8868 31.3955 80.0493 31.3955C80.232 31.3955 80.4147 31.4055 80.5974 31.4257V31.5165C79.8868 31.7989 79.3489 32.3334 78.9834 33.1201C78.618 33.8866 78.3744 34.9052 78.2526 36.176C78.212 36.5794 78.1917 37.114 78.1917 37.7796C78.1917 38.4453 78.1917 39.1815 78.1917 39.9884C78.1917 40.5733 78.1917 41.1785 78.1917 41.8038C78.1917 42.4291 78.1917 43.0443 78.1917 43.6494C78.212 44.2546 78.2323 44.8395 78.2526 45.4043C78.2729 45.9691 78.2932 46.4734 78.3135 46.9171Z" stroke="url(#paint21_linear_32_6904)" stroke-opacity="0.75" stroke-width="2" mask="url(#path-1-inside-1_32_6904)"/>
<path d="M97.8734 52.6054C97.5486 52.5852 97.2136 52.5751 96.8685 52.5751C96.5437 52.555 96.2087 52.5449 95.8636 52.5449C95.4576 52.5449 95.0515 52.555 94.6455 52.5751C94.2598 52.5751 93.8943 52.5852 93.5492 52.6054C93.4274 52.323 93.1736 51.7885 92.7879 51.0018C92.4225 50.195 91.986 49.2671 91.4784 48.2182C90.9912 47.1491 90.4532 46.0094 89.8644 44.7992C89.296 43.5889 88.7479 42.4391 88.22 41.3499C87.7125 40.2405 87.2557 39.2521 86.8497 38.3848C86.4436 37.4972 86.1493 36.8618 85.9665 36.4786C85.9665 36.9022 85.9665 37.5476 85.9665 38.415C85.9868 39.2622 85.997 40.1901 85.997 41.1986C86.0173 42.2072 86.0376 43.2258 86.0579 44.2546C86.0782 45.2833 86.1087 46.1809 86.1493 46.9474C86.2305 48.2787 86.4436 49.4385 86.7888 50.4269C87.1339 51.4153 87.6922 52.1112 88.4636 52.5146V52.6054C88.0779 52.5852 87.682 52.5751 87.276 52.5751C86.87 52.5751 86.4335 52.5751 85.9665 52.5751C85.256 52.5751 84.5759 52.5852 83.9262 52.6054C83.2969 52.6256 82.7183 52.6357 82.1904 52.6357C82.0077 52.6357 81.825 52.6357 81.6423 52.6357C81.4799 52.6357 81.3073 52.6256 81.1246 52.6054V52.5146C81.6931 52.2121 82.1397 51.7986 82.4645 51.2741C82.7893 50.7295 83.0228 50.0638 83.1649 49.2772C83.3273 48.4703 83.4288 47.5122 83.4694 46.4028C83.51 45.2934 83.5303 44.0125 83.5303 42.5602C83.5303 40.8456 83.5202 39.353 83.4999 38.0822C83.4796 36.8114 83.3882 35.7322 83.2258 34.8447C83.0837 33.9572 82.8503 33.2512 82.5254 32.7267C82.2006 32.1821 81.7337 31.7888 81.1246 31.5467V31.4257C81.4697 31.4661 81.8555 31.4963 82.2818 31.5165C82.7081 31.5165 83.1548 31.5165 83.6217 31.5165C84.4947 31.5165 85.2966 31.4963 86.0275 31.456C86.7583 31.4156 87.3572 31.3955 87.8241 31.3955C87.9866 31.3955 88.1388 31.3955 88.2809 31.3955C88.423 31.3955 88.5753 31.4055 88.7377 31.4257C88.8798 31.8695 89.1234 32.5049 89.4686 33.3319C89.834 34.1589 90.24 35.0767 90.6867 36.0852C91.1536 37.0938 91.6307 38.1427 92.1179 39.2319C92.6255 40.3212 93.1026 41.3398 93.5492 42.2879C93.9958 43.2359 94.3816 44.073 94.7064 44.7992C95.0515 45.5052 95.2951 45.9994 95.4372 46.2817V42.2576C95.4372 40.6439 95.4169 39.2219 95.3763 37.9914C95.356 36.761 95.2647 35.7121 95.1023 34.8447C94.9602 33.9572 94.7267 33.2512 94.4019 32.7267C94.077 32.1821 93.6202 31.7888 93.0315 31.5467V31.4257C93.4172 31.4661 93.8334 31.4963 94.2801 31.5165C94.747 31.5367 95.2139 31.5467 95.6809 31.5467C96.635 31.5467 97.4065 31.5266 97.9952 31.4862C98.6043 31.4459 99.193 31.4257 99.7615 31.4257H100.371V31.5467C99.6194 31.8291 99.0509 32.3738 98.6652 33.1806C98.2795 33.9673 98.0562 34.9557 97.9952 36.1458C97.9749 36.4887 97.9546 37.1241 97.9343 38.0519C97.9343 38.9596 97.9242 40.0085 97.9039 41.1986C97.9039 42.3686 97.8937 43.6091 97.8734 44.9202C97.8734 46.2313 97.8734 47.4416 97.8734 48.551C97.8734 49.6402 97.8734 50.5681 97.8734 51.3346C97.8734 52.081 97.8734 52.5045 97.8734 52.6054Z" stroke="url(#paint22_linear_32_6904)" stroke-opacity="0.75" stroke-width="2" mask="url(#path-1-inside-1_32_6904)"/>
<path d="M110.343 33.3016C109.694 33.3016 109.135 33.5336 108.668 33.9975C108.222 34.4615 107.846 35.0868 107.542 35.8734C107.237 36.6601 107.004 37.5779 106.841 38.6268C106.699 39.6757 106.618 40.7952 106.598 41.9853C106.557 43.3368 106.608 44.5571 106.75 45.6464C106.912 46.7154 107.156 47.6231 107.481 48.3695C107.806 49.1158 108.212 49.6907 108.699 50.0941C109.186 50.4975 109.734 50.6992 110.343 50.6992C110.952 50.6992 111.49 50.4975 111.957 50.0941C112.444 49.6907 112.84 49.1158 113.145 48.3695C113.47 47.6231 113.703 46.7154 113.845 45.6464C113.987 44.5571 114.048 43.3368 114.028 41.9853C114.008 40.7952 113.916 39.6757 113.754 38.6268C113.612 37.5577 113.388 36.6299 113.084 35.8432C112.779 35.0565 112.394 34.4413 111.927 33.9975C111.48 33.5336 110.952 33.3016 110.343 33.3016ZM119.022 42.4694C119.042 44.0831 118.839 45.5455 118.413 46.8566C117.987 48.1476 117.388 49.2469 116.616 50.1546C115.845 51.0623 114.921 51.7683 113.845 52.2726C112.79 52.7567 111.622 52.9987 110.343 52.9987C109.064 52.9987 107.887 52.7567 106.811 52.2726C105.735 51.7683 104.801 51.0623 104.009 50.1546C103.217 49.2267 102.608 48.1173 102.182 46.8264C101.756 45.5152 101.563 44.0629 101.603 42.4694C101.644 40.9566 101.847 39.5143 102.212 38.1427C102.598 36.7509 103.146 35.5305 103.857 34.4816C104.588 33.4126 105.491 32.5654 106.567 31.9401C107.643 31.3148 108.902 31.0021 110.343 31.0021C111.744 31.0021 112.982 31.3148 114.058 31.9401C115.134 32.5654 116.038 33.4126 116.769 34.4816C117.5 35.5305 118.048 36.7509 118.413 38.1427C118.799 39.5143 119.002 40.9566 119.022 42.4694Z" stroke="url(#paint23_linear_32_6904)" stroke-opacity="0.75" stroke-width="2" mask="url(#path-1-inside-1_32_6904)"/>
<defs>
<linearGradient id="paint0_linear_32_6904" x1="66.8415" y1="-5.89988e-08" x2="69.1058" y2="29.1511" gradientUnits="userSpaceOnUse">
<stop stop-color="#6DD8D8"/>
<stop offset="1" stop-color="#006DAF"/>
</linearGradient>
<linearGradient id="paint1_linear_32_6904" x1="66.8415" y1="-5.89988e-08" x2="69.1058" y2="29.1511" gradientUnits="userSpaceOnUse">
<stop stop-color="#6DD8D8"/>
<stop offset="1" stop-color="#006DAF"/>
</linearGradient>
<linearGradient id="paint2_linear_32_6904" x1="66.8415" y1="-5.89988e-08" x2="69.1058" y2="29.1511" gradientUnits="userSpaceOnUse">
<stop stop-color="#6DD8D8"/>
<stop offset="1" stop-color="#006DAF"/>
</linearGradient>
<linearGradient id="paint3_linear_32_6904" x1="66.8415" y1="-5.89988e-08" x2="69.1058" y2="29.1511" gradientUnits="userSpaceOnUse">
<stop stop-color="#6DD8D8"/>
<stop offset="1" stop-color="#006DAF"/>
</linearGradient>
<linearGradient id="paint4_linear_32_6904" x1="66.8415" y1="-5.89988e-08" x2="69.1058" y2="29.1511" gradientUnits="userSpaceOnUse">
<stop stop-color="#6DD8D8"/>
<stop offset="1" stop-color="#006DAF"/>
</linearGradient>
<linearGradient id="paint5_linear_32_6904" x1="66.8415" y1="-5.89988e-08" x2="69.1058" y2="29.1511" gradientUnits="userSpaceOnUse">
<stop stop-color="#6DD8D8"/>
<stop offset="1" stop-color="#006DAF"/>
</linearGradient>
<linearGradient id="paint6_linear_32_6904" x1="69.1202" y1="30.6643" x2="67.4392" y2="54.2311" gradientUnits="userSpaceOnUse">
<stop stop-color="#6DD8D8"/>
<stop offset="1" stop-color="#006DAF"/>
</linearGradient>
<linearGradient id="paint7_linear_32_6904" x1="69.1202" y1="30.6643" x2="67.4392" y2="54.2311" gradientUnits="userSpaceOnUse">
<stop stop-color="#6DD8D8"/>
<stop offset="1" stop-color="#006DAF"/>
</linearGradient>
<linearGradient id="paint8_linear_32_6904" x1="69.1202" y1="30.6643" x2="67.4392" y2="54.2311" gradientUnits="userSpaceOnUse">
<stop stop-color="#6DD8D8"/>
<stop offset="1" stop-color="#006DAF"/>
</linearGradient>
<linearGradient id="paint9_linear_32_6904" x1="69.1202" y1="30.6643" x2="67.4392" y2="54.2311" gradientUnits="userSpaceOnUse">
<stop stop-color="#6DD8D8"/>
<stop offset="1" stop-color="#006DAF"/>
</linearGradient>
<linearGradient id="paint10_linear_32_6904" x1="69.1202" y1="30.6643" x2="67.4392" y2="54.2311" gradientUnits="userSpaceOnUse">
<stop stop-color="#6DD8D8"/>
<stop offset="1" stop-color="#006DAF"/>
</linearGradient>
<linearGradient id="paint11_linear_32_6904" x1="69.1202" y1="30.6643" x2="67.4392" y2="54.2311" gradientUnits="userSpaceOnUse">
<stop stop-color="#6DD8D8"/>
<stop offset="1" stop-color="#006DAF"/>
</linearGradient>
<linearGradient id="paint12_linear_32_6904" x1="69.1484" y1="30.1206" x2="69.1484" y2="56.1318" gradientUnits="userSpaceOnUse">
<stop stop-color="#EAFFFF"/>
<stop offset="1" stop-color="#27D1F5"/>
</linearGradient>
<linearGradient id="paint13_linear_32_6904" x1="69.1484" y1="30.1206" x2="69.1484" y2="56.1318" gradientUnits="userSpaceOnUse">
<stop stop-color="#EAFFFF"/>
<stop offset="1" stop-color="#27D1F5"/>
</linearGradient>
<linearGradient id="paint14_linear_32_6904" x1="69.1484" y1="30.1206" x2="69.1484" y2="56.1318" gradientUnits="userSpaceOnUse">
<stop stop-color="#EAFFFF"/>
<stop offset="1" stop-color="#27D1F5"/>
</linearGradient>
<linearGradient id="paint15_linear_32_6904" x1="69.1484" y1="30.1206" x2="69.1484" y2="56.1318" gradientUnits="userSpaceOnUse">
<stop stop-color="#EAFFFF"/>
<stop offset="1" stop-color="#27D1F5"/>
</linearGradient>
<linearGradient id="paint16_linear_32_6904" x1="69.1484" y1="30.1206" x2="69.1484" y2="56.1318" gradientUnits="userSpaceOnUse">
<stop stop-color="#EAFFFF"/>
<stop offset="1" stop-color="#27D1F5"/>
</linearGradient>
<linearGradient id="paint17_linear_32_6904" x1="69.1484" y1="30.1206" x2="69.1484" y2="56.1318" gradientUnits="userSpaceOnUse">
<stop stop-color="#EAFFFF"/>
<stop offset="1" stop-color="#27D1F5"/>
</linearGradient>
<linearGradient id="paint18_linear_32_6904" x1="69.1484" y1="30.1206" x2="69.1484" y2="56.1318" gradientUnits="userSpaceOnUse">
<stop stop-color="#EAFFFF"/>
<stop offset="1" stop-color="#27D1F5"/>
</linearGradient>
<linearGradient id="paint19_linear_32_6904" x1="69.1484" y1="30.1206" x2="69.1484" y2="56.1318" gradientUnits="userSpaceOnUse">
<stop stop-color="#EAFFFF"/>
<stop offset="1" stop-color="#27D1F5"/>
</linearGradient>
<linearGradient id="paint20_linear_32_6904" x1="69.1484" y1="30.1206" x2="69.1484" y2="56.1318" gradientUnits="userSpaceOnUse">
<stop stop-color="#EAFFFF"/>
<stop offset="1" stop-color="#27D1F5"/>
</linearGradient>
<linearGradient id="paint21_linear_32_6904" x1="69.1484" y1="30.1206" x2="69.1484" y2="56.1318" gradientUnits="userSpaceOnUse">
<stop stop-color="#EAFFFF"/>
<stop offset="1" stop-color="#27D1F5"/>
</linearGradient>
<linearGradient id="paint22_linear_32_6904" x1="69.1484" y1="30.1206" x2="69.1484" y2="56.1318" gradientUnits="userSpaceOnUse">
<stop stop-color="#EAFFFF"/>
<stop offset="1" stop-color="#27D1F5"/>
</linearGradient>
<linearGradient id="paint23_linear_32_6904" x1="69.1484" y1="30.1206" x2="69.1484" y2="56.1318" gradientUnits="userSpaceOnUse">
<stop stop-color="#EAFFFF"/>
<stop offset="1" stop-color="#27D1F5"/>
</linearGradient>
</defs>
</svg>
