<svg width="136" height="34" viewBox="0 0 136 34" fill="none" xmlns="http://www.w3.org/2000/svg">
<rect width="136" height="34" rx="17" fill="#00112C"/>
<rect width="136" height="34" rx="17" fill="url(#paint0_linear_19_9651)"/>
<rect width="136" height="34" rx="17" fill="url(#paint1_linear_19_9651)"/>
<rect x="0.75" y="0.75" width="134.5" height="32.5" rx="16.25" stroke="url(#paint2_linear_19_9651)" stroke-opacity="0.2" stroke-width="1.5"/>
<path d="M20 7C20.1857 7.0001 20.3676 7.05433 20.5255 7.15661C20.6834 7.25888 20.811 7.40517 20.894 7.57908L23.4739 12.9803L29.1437 13.8432C29.3284 13.8713 29.5019 13.9529 29.6446 14.0789C29.7873 14.2049 29.8935 14.3702 29.9511 14.5561C30.0088 14.742 30.0156 14.941 29.9708 15.1308C29.926 15.3205 29.8314 15.4933 29.6977 15.6297L25.5708 19.8434L26.4988 25.785C26.5286 25.9774 26.5066 26.1746 26.4352 26.3546C26.3638 26.5345 26.2459 26.69 26.0947 26.8036C25.9435 26.9172 25.7651 26.9844 25.5794 26.9976C25.3938 27.0108 25.2083 26.9695 25.0439 26.8783L20 24.0761L14.9561 26.8783C14.7917 26.9695 14.6062 27.0108 14.4206 26.9976C14.2349 26.9844 14.0565 26.9172 13.9053 26.8036C13.7541 26.69 13.6362 26.5345 13.5648 26.3546C13.4934 26.1746 13.4714 25.9774 13.5012 25.785L14.4292 19.8434L10.3023 15.6297C10.1686 15.4933 10.074 15.3205 10.0292 15.1308C9.98443 14.941 9.99125 14.742 10.0489 14.5561C10.1065 14.3702 10.2127 14.2049 10.3554 14.0789C10.4981 13.9529 10.6716 13.8713 10.8563 13.8432L16.5261 12.9803L19.106 7.57908C19.189 7.40517 19.3166 7.25888 19.4745 7.15661C19.6324 7.05433 19.8143 7.0001 20 7ZM20 10.3886L18.0821 14.4055C18.0101 14.5566 17.9043 14.6872 17.7737 14.7862C17.6431 14.8852 17.4916 14.9497 17.3321 14.9741L13.1482 15.6108L16.1981 18.724C16.3134 18.8416 16.3998 18.9866 16.4501 19.1467C16.5004 19.3067 16.5131 19.4771 16.4871 19.6434L15.8001 24.0384L19.531 21.965C19.6754 21.8847 19.8365 21.8427 20 21.8427C20.1635 21.8427 20.3246 21.8847 20.469 21.965L24.1999 24.0384L23.5129 19.6434C23.487 19.4773 23.4998 19.3071 23.5501 19.1472C23.6004 18.9874 23.6868 18.8426 23.8019 18.7251L26.8518 15.6108L22.6689 14.9741C22.5094 14.9497 22.3579 14.8852 22.2273 14.7862C22.0967 14.6872 21.9909 14.5566 21.9189 14.4055L20 10.3886Z" fill="white"/>
<path d="M36.036 22V12.088H40.432C40.8893 12.088 41.3093 12.1347 41.692 12.228C42.084 12.3213 42.4247 12.4893 42.714 12.732C42.9473 12.9187 43.1433 13.166 43.302 13.474C43.47 13.7727 43.554 14.1367 43.554 14.566C43.5633 15.0233 43.4793 15.4293 43.302 15.784C43.134 16.1387 42.8447 16.4373 42.434 16.68C42.7233 16.764 42.9707 16.89 43.176 17.058C43.3813 17.226 43.5447 17.422 43.666 17.646C43.7967 17.87 43.89 18.1127 43.946 18.374C44.002 18.6353 44.0253 18.906 44.016 19.186C43.9973 19.634 43.876 20.0493 43.652 20.432C43.4373 20.8053 43.1527 21.1087 42.798 21.342C42.378 21.6313 41.916 21.8133 41.412 21.888C40.908 21.9627 40.4087 22 39.914 22H36.036ZM39.858 16.106C40.0633 16.106 40.2687 16.0967 40.474 16.078C40.6793 16.05 40.8707 15.9847 41.048 15.882C41.1973 15.7887 41.3233 15.6627 41.426 15.504C41.5287 15.3453 41.5847 15.1587 41.594 14.944C41.6033 14.72 41.566 14.538 41.482 14.398C41.398 14.258 41.2953 14.1507 41.174 14.076C41.0247 13.9827 40.852 13.9313 40.656 13.922C40.46 13.9033 40.2593 13.894 40.054 13.894H38.066V16.106H39.858ZM38.066 20.208H39.914C40.1847 20.208 40.4693 20.194 40.768 20.166C41.076 20.1287 41.3373 20.0307 41.552 19.872C41.6827 19.7693 41.79 19.6433 41.874 19.494C41.958 19.3353 42 19.1393 42 18.906C42 18.6913 41.9533 18.5093 41.86 18.36C41.7667 18.2107 41.65 18.0987 41.51 18.024C41.3513 17.9213 41.1693 17.8607 40.964 17.842C40.768 17.8233 40.5627 17.814 40.348 17.814L38.066 17.828V20.208ZM51.0744 19.032L54.4904 14.622H56.1844V22H54.1964V17.73L50.8784 22H49.1004V14.622H51.0744V19.032ZM63.089 18.066C63.4157 18.1873 63.663 18.4067 63.831 18.724C63.999 19.0413 64.0784 19.368 64.069 19.704C64.0597 20.264 63.9244 20.7073 63.663 21.034C63.4017 21.3607 63.0844 21.608 62.711 21.776C62.403 21.9067 62.0717 21.9953 61.717 22.042C61.3717 22.0887 61.031 22.112 60.695 22.112C60.3124 22.112 59.925 22.0747 59.533 22C59.141 21.916 58.7817 21.776 58.455 21.58C58.1377 21.384 57.8717 21.132 57.657 20.824C57.4424 20.5067 57.3257 20.11 57.307 19.634H59.225C59.2624 19.83 59.337 19.984 59.449 20.096C59.561 20.208 59.687 20.2967 59.827 20.362C59.9764 20.418 60.135 20.4553 60.303 20.474C60.471 20.4927 60.6344 20.502 60.793 20.502C60.9517 20.502 61.1104 20.4973 61.269 20.488C61.4277 20.4693 61.577 20.4367 61.717 20.39C61.857 20.334 61.969 20.2593 62.053 20.166C62.137 20.0727 62.1837 19.9373 62.193 19.76C62.2024 19.4893 62.0997 19.3027 61.885 19.2C61.6797 19.088 61.4044 19.032 61.059 19.032H59.897V17.562H60.793C60.9237 17.562 61.059 17.5573 61.199 17.548C61.3484 17.5293 61.479 17.4967 61.591 17.45C61.7124 17.394 61.815 17.3147 61.899 17.212C61.983 17.1 62.025 16.9553 62.025 16.778C62.025 16.6287 61.983 16.5073 61.899 16.414C61.815 16.3207 61.7124 16.2507 61.591 16.204C61.4697 16.148 61.339 16.1107 61.199 16.092C61.059 16.0733 60.9284 16.064 60.807 16.064C60.667 16.064 60.5177 16.078 60.359 16.106C60.2004 16.1247 60.051 16.1667 59.911 16.232C59.7804 16.288 59.6684 16.3673 59.575 16.47C59.4817 16.5727 59.4257 16.708 59.407 16.876H57.545C57.601 16.372 57.7364 15.9613 57.951 15.644C58.175 15.3267 58.441 15.084 58.749 14.916C59.0664 14.7387 59.407 14.622 59.771 14.566C60.1444 14.5007 60.5177 14.468 60.891 14.468C61.2457 14.468 61.5957 14.5053 61.941 14.58C62.2864 14.6453 62.5944 14.762 62.865 14.93C63.145 15.0887 63.369 15.3033 63.537 15.574C63.7144 15.8447 63.8124 16.1807 63.831 16.582C63.8497 16.946 63.7797 17.254 63.621 17.506C63.4717 17.7487 63.2944 17.9353 63.089 18.066ZM65.2423 17.268C65.2423 16.8667 65.2563 16.47 65.2843 16.078C65.3216 15.6767 65.387 15.294 65.4803 14.93C65.5736 14.566 65.6996 14.2207 65.8583 13.894C66.017 13.5673 66.2223 13.2733 66.4743 13.012C66.661 12.8067 66.8756 12.6293 67.1183 12.48C67.3703 12.3307 67.6503 12.2047 67.9583 12.102C68.3596 11.9807 68.761 11.9013 69.1623 11.864C69.5636 11.8267 69.9696 11.7847 70.3803 11.738C70.539 11.7193 70.7116 11.7053 70.8983 11.696C71.0943 11.6773 71.2856 11.6587 71.4723 11.64C71.659 11.612 71.8363 11.584 72.0043 11.556C72.1816 11.5187 72.345 11.4767 72.4943 11.43V13.292C72.2423 13.404 71.981 13.474 71.7103 13.502C71.449 13.53 71.183 13.5533 70.9123 13.572C70.5856 13.6 70.2543 13.628 69.9183 13.656C69.5916 13.6747 69.2696 13.7073 68.9523 13.754C68.6723 13.7913 68.4296 13.8567 68.2243 13.95C68.0283 14.0433 67.8556 14.174 67.7063 14.342C67.5196 14.538 67.375 14.7853 67.2723 15.084C67.179 15.3733 67.1323 15.6767 67.1323 15.994C67.459 15.63 67.837 15.3733 68.2663 15.224C68.705 15.0747 69.167 14.9953 69.6523 14.986C70.1283 14.9767 70.5623 15.0467 70.9543 15.196C71.3556 15.336 71.701 15.546 71.9903 15.826C72.3076 16.1153 72.5503 16.4747 72.7183 16.904C72.8863 17.324 72.9703 17.786 72.9703 18.29C72.9703 19.5033 72.6063 20.446 71.8783 21.118C71.5423 21.4447 71.141 21.6967 70.6743 21.874C70.217 22.042 69.7036 22.1213 69.1343 22.112C68.5743 22.1027 68.075 22.0093 67.6363 21.832C67.207 21.6547 66.8383 21.412 66.5303 21.104C66.2783 20.8613 66.0683 20.586 65.9003 20.278C65.7416 19.97 65.611 19.6527 65.5083 19.326C65.415 18.99 65.345 18.6493 65.2983 18.304C65.261 17.9493 65.2423 17.604 65.2423 17.268ZM69.1763 20.362C69.475 20.362 69.7363 20.3153 69.9603 20.222C70.1843 20.1193 70.371 19.984 70.5203 19.816C70.679 19.6387 70.7956 19.4473 70.8703 19.242C70.9543 19.0273 70.9963 18.808 70.9963 18.584C71.015 18.0427 70.861 17.6133 70.5343 17.296C70.217 16.9693 69.7923 16.8013 69.2603 16.792C68.999 16.792 68.7563 16.8293 68.5323 16.904C68.3083 16.9787 68.1076 17.0907 67.9303 17.24C67.7623 17.3893 67.627 17.5713 67.5243 17.786C67.431 17.9913 67.3796 18.2293 67.3703 18.5C67.361 18.7333 67.389 18.962 67.4543 19.186C67.529 19.4007 67.6363 19.5967 67.7763 19.774C67.9256 19.9513 68.117 20.096 68.3503 20.208C68.593 20.3107 68.8683 20.362 69.1763 20.362ZM76.2173 15.616C76.5066 15.2613 76.866 14.986 77.2953 14.79C77.734 14.5847 78.1726 14.4773 78.6113 14.468C79.134 14.4587 79.6193 14.552 80.0673 14.748C80.5153 14.9347 80.8886 15.252 81.1873 15.7C81.43 16.0267 81.6073 16.4093 81.7193 16.848C81.8313 17.2867 81.8873 17.7487 81.8873 18.234C81.8873 18.8407 81.8126 19.3913 81.6633 19.886C81.5233 20.3713 81.2806 20.7913 80.9353 21.146C80.646 21.4633 80.2913 21.706 79.8713 21.874C79.4513 22.0327 79.0313 22.112 78.6113 22.112C78.406 22.112 78.2006 22.098 77.9953 22.07C77.79 22.0513 77.5846 22.0093 77.3793 21.944C77.174 21.8787 76.9686 21.7853 76.7633 21.664C76.5673 21.5427 76.3806 21.3793 76.2033 21.174V25.08H74.2293V14.622H76.1053L76.2173 15.616ZM78.0653 16.232C77.776 16.232 77.5146 16.288 77.2813 16.4C77.0573 16.5027 76.866 16.6473 76.7073 16.834C76.5486 17.0207 76.4226 17.2353 76.3293 17.478C76.2453 17.7207 76.2033 17.982 76.2033 18.262C76.194 18.8873 76.3573 19.3913 76.6933 19.774C77.0386 20.1473 77.5053 20.3433 78.0933 20.362C78.4106 20.362 78.6813 20.3107 78.9053 20.208C79.1293 20.1053 79.3113 19.9607 79.4513 19.774C79.6006 19.5873 79.7126 19.368 79.7873 19.116C79.8713 18.864 79.9133 18.5887 79.9133 18.29C79.9133 18.0007 79.8713 17.73 79.7873 17.478C79.7126 17.226 79.596 17.0067 79.4373 16.82C79.288 16.6333 79.1013 16.4887 78.8773 16.386C78.6533 16.2833 78.3826 16.232 78.0653 16.232ZM87.7364 21.09C87.4564 21.4633 87.111 21.7293 86.7004 21.888C86.299 22.0467 85.837 22.1213 85.3144 22.112C84.633 22.0933 84.0637 21.902 83.6064 21.538C83.3637 21.3327 83.1724 21.09 83.0324 20.81C82.9017 20.5207 82.8364 20.18 82.8364 19.788C82.8457 19.3867 82.9344 19.032 83.1024 18.724C83.2797 18.4067 83.5457 18.1453 83.9004 17.94C84.199 17.7813 84.535 17.6693 84.9084 17.604C85.291 17.5387 85.7064 17.506 86.1544 17.506H87.6664C87.6944 17.0487 87.587 16.708 87.3444 16.484C87.111 16.2507 86.7797 16.1293 86.3504 16.12C86.2104 16.12 86.0657 16.1293 85.9164 16.148C85.767 16.1667 85.627 16.204 85.4964 16.26C85.375 16.316 85.2677 16.3953 85.1744 16.498C85.0904 16.5913 85.0344 16.708 85.0064 16.848H82.9764C83.023 16.4 83.1444 16.0267 83.3404 15.728C83.5457 15.42 83.8024 15.1727 84.1104 14.986C84.4184 14.7993 84.759 14.6687 85.1324 14.594C85.515 14.51 85.907 14.468 86.3084 14.468C86.5324 14.468 86.761 14.482 86.9944 14.51C87.2277 14.5287 87.4564 14.5753 87.6804 14.65C87.9044 14.7153 88.1144 14.8087 88.3104 14.93C88.5157 15.042 88.707 15.1913 88.8844 15.378C89.2017 15.742 89.3977 16.162 89.4724 16.638C89.5564 17.1047 89.5937 17.562 89.5844 18.01V22H87.7784L87.7364 21.09ZM87.6664 18.738H86.2244C86.0844 18.738 85.9257 18.752 85.7484 18.78C85.571 18.808 85.417 18.8593 85.2864 18.934C85.1557 19.0087 85.0437 19.1067 84.9504 19.228C84.8664 19.3493 84.8244 19.4987 84.8244 19.676C84.8244 19.8253 84.8524 19.956 84.9084 20.068C84.9737 20.18 85.053 20.2733 85.1464 20.348C85.249 20.4227 85.3704 20.4833 85.5104 20.53C85.6504 20.5673 85.7904 20.586 85.9304 20.586C86.201 20.5953 86.453 20.5487 86.6864 20.446C86.929 20.3433 87.139 20.1987 87.3164 20.012C87.4284 19.8627 87.5124 19.6947 87.5684 19.508C87.6337 19.312 87.6664 19.0553 87.6664 18.738ZM93.1018 17.464H95.9718V14.622H97.9458V22H95.9718V19.172H93.1018V22H91.1278V14.622H93.1018V17.464ZM101.483 17.464H104.353V14.622H106.327V22H104.353V19.172H101.483V22H99.5086V14.622H101.483V17.464ZM111.319 22.112C110.125 22.112 109.205 21.776 108.561 21.104C107.917 20.4227 107.595 19.48 107.595 18.276C107.595 17.6973 107.679 17.1747 107.847 16.708C108.025 16.232 108.267 15.826 108.575 15.49C108.893 15.154 109.28 14.902 109.737 14.734C110.204 14.5567 110.731 14.468 111.319 14.468C111.898 14.468 112.416 14.5567 112.873 14.734C113.34 14.902 113.732 15.154 114.049 15.49C114.376 15.826 114.623 16.232 114.791 16.708C114.969 17.1747 115.057 17.6973 115.057 18.276C115.057 19.4893 114.731 20.432 114.077 21.104C113.433 21.776 112.514 22.112 111.319 22.112ZM111.319 16.232C110.722 16.232 110.274 16.428 109.975 16.82C109.686 17.212 109.541 17.702 109.541 18.29C109.541 18.8873 109.686 19.382 109.975 19.774C110.274 20.166 110.722 20.362 111.319 20.362C111.917 20.362 112.355 20.166 112.635 19.774C112.925 19.382 113.069 18.8873 113.069 18.29C113.069 17.702 112.925 17.212 112.635 16.82C112.355 16.428 111.917 16.232 111.319 16.232ZM120.399 20.6L118.299 17.548V22H116.325V14.622H118.369L120.637 17.926L122.877 14.622H124.907V22H122.919V17.548L120.875 20.6H120.399Z" fill="white"/>
<defs>
<linearGradient id="paint0_linear_19_9651" x1="68" y1="0" x2="68" y2="34" gradientUnits="userSpaceOnUse">
<stop stop-color="#045EBA"/>
<stop offset="1" stop-color="#0571CF"/>
</linearGradient>
<linearGradient id="paint1_linear_19_9651" x1="65.4112" y1="6.49306" x2="65.4112" y2="36.2431" gradientUnits="userSpaceOnUse">
<stop stop-color="#6DD8D8"/>
<stop offset="1" stop-color="#006DAF"/>
</linearGradient>
<linearGradient id="paint2_linear_19_9651" x1="68" y1="0" x2="68" y2="34" gradientUnits="userSpaceOnUse">
<stop stop-color="white"/>
<stop offset="1" stop-color="white" stop-opacity="0.1"/>
</linearGradient>
</defs>
</svg>
